<svg width="792" height="561" viewBox="-0.5 -0.5 792 561" xmlns="http://www.w3.org/2000/svg" xmlns:xlink="http://www.w3.org/1999/xlink" overflow="hidden"><defs></defs><g><path d="M41 0 791 0 791 560 41 560Z" stroke="#666666" stroke-miterlimit="10" fill="#FFFFFF"/><ellipse cx="726" cy="15" rx="10" ry="10" stroke="#666666" fill="none"/><ellipse cx="751" cy="15" rx="10" ry="10" stroke="#666666" fill="none"/><ellipse cx="776" cy="15" rx="10" ry="10" stroke="#008CFF" fill="none"/><path d="M41 40 71 40 71 15C71 12.24 73.24 10 76 10L211 10C213.76 10 216 12.24 216 15L216 40 791 40" stroke="#C4C4C4" stroke-miterlimit="10" fill="none"/><path d="M41 110 791 110" stroke="#C4C4C4" stroke-miterlimit="10" fill="none"/><path d="M141 60C141 57.24 143.24 55 146 55L776 55C778.76 55 781 57.24 781 60L781 85C781 87.76 778.76 90 776 90L146 90C143.24 90 141 87.76 141 85Z" stroke="#C4C4C4" stroke-miterlimit="10" fill="none"/><g fill="#666666" font-family="Arial,Helvetica" font-size="17"></g><g fill="#666666" font-family="Arial,Helvetica" font-size="17"></g><path d="M78 17 89 17 93 21 93 35 78 35Z" stroke="#C4C4C4" stroke-miterlimit="10" fill="none"/><path d="M89 17 89 21 93 22" stroke="#C4C4C4" stroke-width="0.5" stroke-miterlimit="10" fill="none"/><path d="M148 64 159 64 163 68 163 82 148 82Z" stroke="#C4C4C4" stroke-width="2" stroke-miterlimit="10" fill="none"/><path d="M159 64 159 68 163 69" stroke="#C4C4C4" stroke-width="0.5" stroke-miterlimit="10" fill="none"/><path d="M53 74 63 64 63 70 73 70 73 78 63 78 63 84Z" stroke="#C4C4C4" stroke-width="2" stroke-miterlimit="10" fill="#C4C4C4"/><path d="M103 74 93 64 93 70 83 70 83 78 93 78 93 84Z" stroke="#C4C4C4" stroke-width="2" stroke-miterlimit="10" fill="#C4C4C4"/><path d="M128.6 77.3C126.9 80.13 123.22 81.06 120.38 79.36 117.54 77.67 116.61 74 118.29 71.15 119.98 68.31 123.65 67.36 126.5 69.04L124.9 70.5 132.8 72.3 131 64.8 129.3 66.4C126.11 64.03 121.8 63.82 118.39 65.87 114.99 67.92 113.16 71.83 113.77 75.76 114.37 79.69 117.3 82.86 121.16 83.79 125.03 84.72 129.07 83.22 131.4 80Z" stroke="#C4C4C4" stroke-width="2" stroke-miterlimit="10" fill="#C4C4C4"/><g fill="#666666" font-family="Yu Gothic UI" font-size="17"><text x="102.5" y="32">情報管理シス...</text></g><g fill="#666666" font-family="Yu Gothic UI" font-size="17"><text x="172.5" y="80">https://example.com/member/search</text></g><rect x="41" y="110" width="750" height="50" stroke="#666666" fill="#F5F5F5"/><rect x="41" y="160" width="750" height="30" stroke="#666666" fill="#F5F5F5"/><g fill="#666666" font-family="Yu Gothic UI" font-size="12" text-anchor="middle"><text x="415.5" y="177.5">タイトル</text></g><rect x="56" y="120" width="130" height="30" stroke="#666666" fill="#F5F5F5"/><g fill="#666666" font-family="Yu Gothic UI" font-size="12" text-anchor="middle"><text x="120.5" y="139.5">ロゴ</text></g><rect x="711" y="120" width="69" height="30" stroke="#666666" fill="#F5F5F5"/><g fill="#666666" font-family="Yu Gothic UI" font-size="12" text-anchor="middle"><text x="745" y="139.5">ログアウト</text></g><rect x="201" y="120" width="500" height="30" stroke="#666666" fill="#F5F5F5"/><g fill="#666666" font-family="Yu Gothic UI" font-size="12" text-anchor="middle"><text x="450.5" y="139.5">機能へのリンク</text></g><rect x="310" y="248" width="150" height="30" stroke="#666666" fill="#FFFFFF"/><g fill="#666666" font-family="Arial,Helvetica" font-size="17"></g><rect x="220" y="248" width="71" height="30" fill="none"/><g font-family="Yu Gothic UI" font-size="12"><text x="221.5" y="267.5">メールアドレス</text></g><rect x="310" y="288" width="150" height="30" stroke="#666666" fill="#FFFFFF"/><g fill="#666666" font-family="Arial,Helvetica" font-size="17"></g><rect x="220" y="288" width="60" height="30" fill="none"/><g font-family="Yu Gothic UI" font-size="12"><text x="221.5" y="307.5">氏名</text></g><path d="M310 348C310 342.48 314.48 338 320 338L380 338C385.52 338 390 342.48 390 348L390 358C390 363.52 385.52 368 380 368L320 368C314.48 368 310 363.52 310 358Z" stroke="#666666" stroke-miterlimit="10" fill="#E6E6E6"/><g fill="#666666" font-family="Arial,Helvetica" font-weight="700" font-size="17" text-anchor="middle"></g><g font-family="Yu Gothic UI" font-size="12" text-anchor="middle"><text x="349.5" y="357.5">検索</text></g><path d="M400 348C400 342.48 404.48 338 410 338L470 338C475.52 338 480 342.48 480 348L480 358C480 363.52 475.52 368 470 368L410 368C404.48 368 400 363.52 400 358Z" stroke="#666666" stroke-miterlimit="10" fill="#E6E6E6"/><g fill="#666666" font-family="Arial,Helvetica" font-weight="700" font-size="17" text-anchor="middle"></g><g font-family="Yu Gothic UI" font-size="12" text-anchor="middle"><text x="439.5" y="357.5">登録</text></g><path d="M1 223.5 71 223.5 311 258" stroke="#FF8000" stroke-miterlimit="10" fill="none"/><g fill="#666666" font-family="Arial,Helvetica" font-size="17" text-anchor="middle"></g><g fill="#FF8000" font-family="Yu Gothic UI" font-size="17"><text x="2.5" y="220.5">①</text></g><path d="M1 273.5 71 273.5 311 308" stroke="#FF8000" stroke-miterlimit="10" fill="none"/><g fill="#666666" font-family="Arial,Helvetica" font-size="17" text-anchor="middle"></g><g fill="#FF8000" font-family="Yu Gothic UI" font-size="17"><text x="2.5" y="270.5">②</text></g><path d="M650 325.5 580 325.5 470 355" stroke="#FF8000" stroke-miterlimit="10" fill="none"/><g fill="#666666" font-family="Arial,Helvetica" font-size="17" text-anchor="middle"></g><g fill="#FF8000" font-family="Yu Gothic UI" font-size="17" text-anchor="end"><text x="647.5" y="322.5">④</text></g><path d="M0 323.5 70 323.5 310 348" stroke="#FF8000" stroke-miterlimit="10" fill="none"/><g fill="#666666" font-family="Arial,Helvetica" font-size="17" text-anchor="middle"></g><g fill="#FF8000" font-family="Yu Gothic UI" font-size="17"><text x="1.5" y="320.5">③</text></g></g></svg>