<svg width="830" height="561" viewBox="-0.5 -0.5 830 561" xmlns="http://www.w3.org/2000/svg" xmlns:xlink="http://www.w3.org/1999/xlink" overflow="hidden"><defs></defs><g><path d="M40 0 790 0 790 560 40 560Z" stroke="#666666" stroke-miterlimit="10" fill="#FFFFFF"/><ellipse cx="725" cy="15" rx="10" ry="10" stroke="#666666" fill="none"/><ellipse cx="750" cy="15" rx="10" ry="10" stroke="#666666" fill="none"/><ellipse cx="775" cy="15" rx="10" ry="10" stroke="#008CFF" fill="none"/><path d="M40 40 70 40 70 15C70 12.24 72.24 10 75 10L210 10C212.76 10 215 12.24 215 15L215 40 790 40" stroke="#C4C4C4" stroke-miterlimit="10" fill="none"/><path d="M40 110 790 110" stroke="#C4C4C4" stroke-miterlimit="10" fill="none"/><path d="M140 60C140 57.24 142.24 55 145 55L775 55C777.76 55 780 57.24 780 60L780 85C780 87.76 777.76 90 775 90L145 90C142.24 90 140 87.76 140 85Z" stroke="#C4C4C4" stroke-miterlimit="10" fill="none"/><g fill="#666666" font-family="Arial,Helvetica" font-size="17"></g><g fill="#666666" font-family="Arial,Helvetica" font-size="17"></g><path d="M77 17 88 17 92 21 92 35 77 35Z" stroke="#C4C4C4" stroke-miterlimit="10" fill="none"/><path d="M88 17 88 21 92 22" stroke="#C4C4C4" stroke-width="0.5" stroke-miterlimit="10" fill="none"/><path d="M147 64 158 64 162 68 162 82 147 82Z" stroke="#C4C4C4" stroke-width="2" stroke-miterlimit="10" fill="none"/><path d="M158 64 158 68 162 69" stroke="#C4C4C4" stroke-width="0.5" stroke-miterlimit="10" fill="none"/><path d="M52 74 62 64 62 70 72 70 72 78 62 78 62 84Z" stroke="#C4C4C4" stroke-width="2" stroke-miterlimit="10" fill="#C4C4C4"/><path d="M102 74 92 64 92 70 82 70 82 78 92 78 92 84Z" stroke="#C4C4C4" stroke-width="2" stroke-miterlimit="10" fill="#C4C4C4"/><path d="M127.6 77.3C125.9 80.13 122.22 81.06 119.38 79.36 116.54 77.67 115.61 74 117.29 71.15 118.98 68.31 122.65 67.36 125.5 69.04L123.9 70.5 131.8 72.3 130 64.8 128.3 66.4C125.11 64.03 120.8 63.82 117.39 65.87 113.99 67.92 112.16 71.83 112.77 75.76 113.37 79.69 116.3 82.86 120.16 83.79 124.03 84.72 128.07 83.22 130.4 80Z" stroke="#C4C4C4" stroke-width="2" stroke-miterlimit="10" fill="#C4C4C4"/><g fill="#666666" font-family="Yu Gothic UI" font-size="17"><text x="101.5" y="32">情報管理シス...</text></g><g fill="#666666" font-family="Yu Gothic UI" font-size="17"><text x="171.5" y="80">https://example.com/charge/search</text></g><rect x="40" y="110" width="750" height="50" stroke="#666666" fill="#F5F5F5"/><rect x="40" y="160" width="750" height="30" stroke="#666666" fill="#F5F5F5"/><g fill="#666666" font-family="Yu Gothic UI" font-size="12" text-anchor="middle"><text x="414.5" y="177.5">タイトル</text></g><rect x="55" y="120" width="130" height="30" stroke="#666666" fill="#F5F5F5"/><g fill="#666666" font-family="Yu Gothic UI" font-size="12" text-anchor="middle"><text x="119.5" y="139.5">ロゴ</text></g><rect x="710" y="120" width="69" height="30" stroke="#666666" fill="#F5F5F5"/><g fill="#666666" font-family="Yu Gothic UI" font-size="12" text-anchor="middle"><text x="744" y="139.5">ログイン名</text></g><rect x="200" y="120" width="500" height="30" stroke="#666666" fill="#F5F5F5"/><g fill="#666666" font-family="Yu Gothic UI" font-size="12" text-anchor="middle"><text x="449.5" y="139.5">機能へのリンク</text></g><rect x="309" y="248" width="150" height="30" stroke="#666666" fill="#FFFFFF"/><g fill="#666666" font-family="Arial,Helvetica" font-size="17"></g><rect x="219" y="248" width="71" height="30" fill="none"/><g font-family="Yu Gothic UI" font-size="12"><text x="220.5" y="267.5">料金名</text></g><path d="M309 310C309 304.48 313.48 300 319 300L379 300C384.52 300 389 304.48 389 310L389 320C389 325.52 384.52 330 379 330L319 330C313.48 330 309 325.52 309 320Z" stroke="#666666" stroke-miterlimit="10" fill="#E6E6E6"/><g fill="#666666" font-family="Arial,Helvetica" font-weight="700" font-size="17" text-anchor="middle"></g><g font-family="Yu Gothic UI" font-size="12" text-anchor="middle"><text x="348.5" y="319.5">検索</text></g><path d="M399 310C399 304.48 403.48 300 409 300L469 300C474.52 300 479 304.48 479 310L479 320C479 325.52 474.52 330 469 330L409 330C403.48 330 399 325.52 399 320Z" stroke="#666666" stroke-miterlimit="10" fill="#E6E6E6"/><g fill="#666666" font-family="Arial,Helvetica" font-weight="700" font-size="17" text-anchor="middle"></g><g font-family="Yu Gothic UI" font-size="12" text-anchor="middle"><text x="438.5" y="319.5">登録</text></g><path d="M0 223.5 70 223.5 310 258" stroke="#FF8000" stroke-miterlimit="10" fill="none"/><g fill="#666666" font-family="Arial,Helvetica" font-size="17" text-anchor="middle"></g><g fill="#FF8000" font-family="Yu Gothic UI" font-size="17"><text x="1.5" y="220.5">①</text></g><path d="M0 273.5 70 273.5 310 308" stroke="#FF8000" stroke-miterlimit="10" fill="none"/><g fill="#666666" font-family="Arial,Helvetica" font-size="17" text-anchor="middle"></g><g fill="#FF8000" font-family="Yu Gothic UI" font-size="17"><text x="1.5" y="270.5">②</text></g><path d="M829 285.5 759 285.5 469 315" stroke="#FF8000" stroke-miterlimit="10" fill="none"/><g fill="#666666" font-family="Arial,Helvetica" font-size="17" text-anchor="middle"></g><g fill="#FF8000" font-family="Yu Gothic UI" font-size="17" text-anchor="end"><text x="826.5" y="282.5">③</text></g></g></svg>