<svg width="806" height="561" viewBox="-0.5 -0.5 806 561" xmlns="http://www.w3.org/2000/svg" xmlns:xlink="http://www.w3.org/1999/xlink" overflow="hidden"><defs><clipPath id="mx-clip-130-254-79-27-0"><rect x="130" y="254" width="79" height="27"/></clipPath><clipPath id="mx-clip-209-254-91-27-0"><rect x="209" y="254" width="91" height="27"/></clipPath><clipPath id="mx-clip-300-254-66-27-0"><rect x="300" y="254" width="66" height="27"/></clipPath><clipPath id="mx-clip-366-254-79-27-0"><rect x="366" y="254" width="79" height="27"/></clipPath><clipPath id="mx-clip-445-254-79-27-0"><rect x="445" y="254" width="79" height="27"/></clipPath><clipPath id="mx-clip-524-254-56-27-0"><rect x="524" y="254" width="56" height="27"/></clipPath><clipPath id="mx-clip-580-254-101-27-0"><rect x="580" y="254" width="101" height="27"/></clipPath><clipPath id="mx-clip-130-281-79-27-0"><rect x="130" y="281" width="79" height="27"/></clipPath><clipPath id="mx-clip-209-281-91-27-0"><rect x="209" y="281" width="91" height="27"/></clipPath><clipPath id="mx-clip-300-281-66-27-0"><rect x="300" y="281" width="66" height="27"/></clipPath><clipPath id="mx-clip-366-281-79-27-0"><rect x="366" y="281" width="79" height="27"/></clipPath><clipPath id="mx-clip-445-281-79-27-0"><rect x="445" y="281" width="79" height="27"/></clipPath><clipPath id="mx-clip-580-281-101-27-0"><rect x="580" y="281" width="101" height="27"/></clipPath></defs><g><path d="M26 0 776 0 776 560 26 560Z" stroke="#666666" stroke-miterlimit="10" fill="#FFFFFF"/><ellipse cx="711" cy="15" rx="10" ry="10" stroke="#666666" fill="none"/><ellipse cx="736" cy="15" rx="10" ry="10" stroke="#666666" fill="none"/><ellipse cx="761" cy="15" rx="10" ry="10" stroke="#008CFF" fill="none"/><path d="M26 40 56 40 56 15C56 12.24 58.24 10 61 10L196 10C198.76 10 201 12.24 201 15L201 40 776 40" stroke="#C4C4C4" stroke-miterlimit="10" fill="none"/><path d="M26 110 776 110" stroke="#C4C4C4" stroke-miterlimit="10" fill="none"/><path d="M126 60C126 57.24 128.24 55 131 55L761 55C763.76 55 766 57.24 766 60L766 85C766 87.76 763.76 90 761 90L131 90C128.24 90 126 87.76 126 85Z" stroke="#C4C4C4" stroke-miterlimit="10" fill="none"/><g fill="#666666" font-family="Arial,Helvetica" font-size="17"></g><g fill="#666666" font-family="Arial,Helvetica" font-size="17"></g><path d="M63 17 74 17 78 21 78 35 63 35Z" stroke="#C4C4C4" stroke-miterlimit="10" fill="none"/><path d="M74 17 74 21 78 22" stroke="#C4C4C4" stroke-width="0.5" stroke-miterlimit="10" fill="none"/><path d="M133 64 144 64 148 68 148 82 133 82Z" stroke="#C4C4C4" stroke-width="2" stroke-miterlimit="10" fill="none"/><path d="M144 64 144 68 148 69" stroke="#C4C4C4" stroke-width="0.5" stroke-miterlimit="10" fill="none"/><path d="M38 74 48 64 48 70 58 70 58 78 48 78 48 84Z" stroke="#C4C4C4" stroke-width="2" stroke-miterlimit="10" fill="#C4C4C4"/><path d="M88 74 78 64 78 70 68 70 68 78 78 78 78 84Z" stroke="#C4C4C4" stroke-width="2" stroke-miterlimit="10" fill="#C4C4C4"/><path d="M113.6 77.3C111.9 80.13 108.22 81.06 105.38 79.36 102.54 77.67 101.61 74 103.29 71.15 104.98 68.31 108.65 67.36 111.5 69.04L109.9 70.5 117.8 72.3 116 64.8 114.3 66.4C111.11 64.03 106.8 63.82 103.39 65.87 99.99 67.92 98.16 71.83 98.77 75.76 99.37 79.69 102.3 82.86 106.16 83.79 110.03 84.72 114.07 83.22 116.4 80Z" stroke="#C4C4C4" stroke-width="2" stroke-miterlimit="10" fill="#C4C4C4"/><g fill="#666666" font-family="Yu Gothic UI" font-size="17"><text x="87.5" y="32">情報管理シス...</text></g><g fill="#666666" font-family="Yu Gothic UI" font-size="17"><text x="157.5" y="80">https://example.com/member/search</text></g><rect x="130" y="254" width="551" height="270" fill="#FFFFFF"/><path d="M130 254 681 254 681 524 130 524 130 254" stroke="#000000" stroke-linecap="square" stroke-miterlimit="10" fill="none"/><path d="M130 281 209 281 300 281 366 281 445 281 524 281 580 281 681 281" stroke="#000000" stroke-miterlimit="10" fill="none"/><path d="M130 308 209 308 300 308 366 308 445 308 524 308 580 308 681 308" stroke="#000000" stroke-miterlimit="10" fill="none"/><path d="M130 335 209 335 300 335 366 335 445 335 524 335 580 335 681 335" stroke="#000000" stroke-miterlimit="10" fill="none"/><path d="M130 362 209 362 300 362 366 362 445 362 524 362 580 362 681 362" stroke="#000000" stroke-miterlimit="10" fill="none"/><path d="M130 389 209 389 300 389 366 389 445 389 524 389 580 389 681 389" stroke="#000000" stroke-miterlimit="10" fill="none"/><path d="M130 416 209 416 300 416 366 416 445 416 524 416 580 416 681 416" stroke="#000000" stroke-miterlimit="10" fill="none"/><path d="M130 443 209 443 300 443 366 443 445 443 524 443 580 443 681 443" stroke="#000000" stroke-miterlimit="10" fill="none"/><path d="M130 470 209 470 300 470 366 470 445 470 524 470 580 470 681 470" stroke="#000000" stroke-miterlimit="10" fill="none"/><path d="M130 497 209 497 300 497 366 497 445 497 524 497 580 497 681 497" stroke="#000000" stroke-miterlimit="10" fill="none"/><path d="M209 254 209 281 209 308 209 335 209 362 209 389 209 416 209 443 209 470 209 497 209 524" stroke="#000000" stroke-miterlimit="10" fill="none"/><path d="M300 254 300 281 300 308 300 335 300 362 300 389 300 416 300 443 300 470 300 497 300 524" stroke="#000000" stroke-miterlimit="10" fill="none"/><path d="M366 254 366 281 366 308 366 335 366 362 366 389 366 416 366 443 366 470 366 497 366 524" stroke="#000000" stroke-miterlimit="10" fill="none"/><path d="M445 254 445 281 445 308 445 335 445 362 445 389 445 416 445 443 445 470 445 497 445 524" stroke="#000000" stroke-miterlimit="10" fill="none"/><path d="M524 254 524 281 524 308 524 335 524 362 524 389 524 416 524 443 524 470 524 497 524 524" stroke="#000000" stroke-miterlimit="10" fill="none"/><path d="M580 254 580 281 580 308 580 335 580 362 580 389 580 416 580 443 580 470 580 497 580 524" stroke="#000000" stroke-miterlimit="10" fill="none"/><rect x="130" y="254" width="79" height="27" fill="#DAE8FC"/><path d="" stroke="#6C8EBF" stroke-linecap="square" stroke-miterlimit="10" fill="none"/><g font-family="Helvetica" font-weight="700" font-size="12" text-anchor="middle" clip-path="url(#mx-clip-130-254-79-27-0)"><text x="169" y="272">加入者番号</text></g><rect x="209" y="254" width="91" height="27" fill="#DAE8FC"/><path d="" stroke="#6C8EBF" stroke-linecap="square" stroke-miterlimit="10" fill="none"/><g font-family="Helvetica" font-weight="700" font-size="12" text-anchor="middle" clip-path="url(#mx-clip-209-254-91-27-0)"><text x="254" y="272">メールアドレス</text></g><rect x="300" y="254" width="66" height="27" fill="#DAE8FC"/><path d="" stroke="#6C8EBF" stroke-linecap="square" stroke-miterlimit="10" fill="none"/><g font-family="Helvetica" font-weight="700" font-size="12" text-anchor="middle" clip-path="url(#mx-clip-300-254-66-27-0)"><text x="332.5" y="272">氏名</text></g><rect x="366" y="254" width="79" height="27" fill="#DAE8FC"/><path d="" stroke="#6C8EBF" stroke-linecap="square" stroke-miterlimit="10" fill="none"/><g font-family="Helvetica" font-weight="700" font-size="12" text-anchor="middle" clip-path="url(#mx-clip-366-254-79-27-0)"><text x="405" y="272">住所</text></g><rect x="445" y="254" width="79" height="27" fill="#DAE8FC"/><path d="" stroke="#6C8EBF" stroke-linecap="square" stroke-miterlimit="10" fill="none"/><g font-family="Helvetica" font-weight="700" font-size="12" text-anchor="middle" clip-path="url(#mx-clip-445-254-79-27-0)"><text x="484" y="272">加入日</text></g><rect x="524" y="254" width="56" height="27" fill="#DAE8FC"/><path d="" stroke="#6C8EBF" stroke-linecap="square" stroke-miterlimit="10" fill="none"/><g font-family="Helvetica" font-weight="700" font-size="12" text-anchor="middle" clip-path="url(#mx-clip-524-254-56-27-0)"><text x="551.5" y="272">解約日</text></g><rect x="580" y="254" width="101" height="27" fill="#DAE8FC"/><path d="" stroke="#6C8EBF" stroke-linecap="square" stroke-miterlimit="10" fill="none"/><g font-family="Helvetica" font-weight="700" font-size="12" text-anchor="middle" clip-path="url(#mx-clip-580-254-101-27-0)"><text x="630" y="272">決済方法</text></g><path d="" stroke="#000000" stroke-linecap="square" stroke-miterlimit="10" fill="none"/><g fill="#1100FF" font-family="Helvetica" font-weight="700" font-size="12" text-anchor="middle" clip-path="url(#mx-clip-130-281-79-27-0)" text-decoration="underline"><text x="169" y="299">0</text></g><path d="" stroke="#000000" stroke-linecap="square" stroke-miterlimit="10" fill="none"/><g font-family="Helvetica" font-weight="700" font-size="12" text-anchor="middle" clip-path="url(#mx-clip-209-281-91-27-0)"><text x="254" y="299">giken-taro@s...</text></g><path d="" stroke="#000000" stroke-linecap="square" stroke-miterlimit="10" fill="none"/><g font-family="Helvetica" font-weight="700" font-size="12" text-anchor="middle" clip-path="url(#mx-clip-300-281-66-27-0)"><text x="332.5" y="299">テスト 太郎</text></g><path d="" stroke="#000000" stroke-linecap="square" stroke-miterlimit="10" fill="none"/><g font-family="Helvetica" font-weight="700" font-size="12" text-anchor="middle" clip-path="url(#mx-clip-366-281-79-27-0)"><text x="405" y="299">東京都...</text></g><path d="" stroke="#000000" stroke-linecap="square" stroke-miterlimit="10" fill="none"/><g font-family="Helvetica" font-weight="700" font-size="12" text-anchor="middle" clip-path="url(#mx-clip-445-281-79-27-0)"><text x="484" y="299">2023/01/01</text></g><path d="" stroke="#000000" stroke-linecap="square" stroke-miterlimit="10" fill="none"/><path d="" stroke="#000000" stroke-linecap="square" stroke-miterlimit="10" fill="none"/><g font-family="Helvetica" font-weight="700" font-size="12" text-anchor="middle" clip-path="url(#mx-clip-580-281-101-27-0)"><text x="630" y="299">クレジット支払い</text></g><path d="" stroke="#000000" stroke-linecap="square" stroke-miterlimit="10" fill="none"/><path d="" stroke="#000000" stroke-linecap="square" stroke-miterlimit="10" fill="none"/><path d="" stroke="#000000" stroke-linecap="square" stroke-miterlimit="10" fill="none"/><path d="" stroke="#000000" stroke-linecap="square" stroke-miterlimit="10" fill="none"/><path d="" stroke="#000000" stroke-linecap="square" stroke-miterlimit="10" fill="none"/><path d="" stroke="#000000" stroke-linecap="square" stroke-miterlimit="10" fill="none"/><path d="" stroke="#000000" stroke-linecap="square" stroke-miterlimit="10" fill="none"/><path d="" stroke="#000000" stroke-linecap="square" stroke-miterlimit="10" fill="none"/><path d="" stroke="#000000" stroke-linecap="square" stroke-miterlimit="10" fill="none"/><path d="" stroke="#000000" stroke-linecap="square" stroke-miterlimit="10" fill="none"/><path d="" stroke="#000000" stroke-linecap="square" stroke-miterlimit="10" fill="none"/><path d="" stroke="#000000" stroke-linecap="square" stroke-miterlimit="10" fill="none"/><path d="" stroke="#000000" stroke-linecap="square" stroke-miterlimit="10" fill="none"/><path d="" stroke="#000000" stroke-linecap="square" stroke-miterlimit="10" fill="none"/><path d="" stroke="#000000" stroke-linecap="square" stroke-miterlimit="10" fill="none"/><path d="" stroke="#000000" stroke-linecap="square" stroke-miterlimit="10" fill="none"/><path d="" stroke="#000000" stroke-linecap="square" stroke-miterlimit="10" fill="none"/><path d="" stroke="#000000" stroke-linecap="square" stroke-miterlimit="10" fill="none"/><path d="" stroke="#000000" stroke-linecap="square" stroke-miterlimit="10" fill="none"/><path d="" stroke="#000000" stroke-linecap="square" stroke-miterlimit="10" fill="none"/><path d="" stroke="#000000" stroke-linecap="square" stroke-miterlimit="10" fill="none"/><path d="" stroke="#000000" stroke-linecap="square" stroke-miterlimit="10" fill="none"/><path d="" stroke="#000000" stroke-linecap="square" stroke-miterlimit="10" fill="none"/><path d="" stroke="#000000" stroke-linecap="square" stroke-miterlimit="10" fill="none"/><path d="" stroke="#000000" stroke-linecap="square" stroke-miterlimit="10" fill="none"/><path d="" stroke="#000000" stroke-linecap="square" stroke-miterlimit="10" fill="none"/><path d="" stroke="#000000" stroke-linecap="square" stroke-miterlimit="10" fill="none"/><path d="" stroke="#000000" stroke-linecap="square" stroke-miterlimit="10" fill="none"/><path d="" stroke="#000000" stroke-linecap="square" stroke-miterlimit="10" fill="none"/><path d="" stroke="#000000" stroke-linecap="square" stroke-miterlimit="10" fill="none"/><path d="" stroke="#000000" stroke-linecap="square" stroke-miterlimit="10" fill="none"/><path d="" stroke="#000000" stroke-linecap="square" stroke-miterlimit="10" fill="none"/><path d="" stroke="#000000" stroke-linecap="square" stroke-miterlimit="10" fill="none"/><path d="" stroke="#000000" stroke-linecap="square" stroke-miterlimit="10" fill="none"/><path d="" stroke="#000000" stroke-linecap="square" stroke-miterlimit="10" fill="none"/><path d="" stroke="#000000" stroke-linecap="square" stroke-miterlimit="10" fill="none"/><path d="" stroke="#000000" stroke-linecap="square" stroke-miterlimit="10" fill="none"/><path d="" stroke="#000000" stroke-linecap="square" stroke-miterlimit="10" fill="none"/><path d="" stroke="#000000" stroke-linecap="square" stroke-miterlimit="10" fill="none"/><path d="" stroke="#000000" stroke-linecap="square" stroke-miterlimit="10" fill="none"/><path d="" stroke="#000000" stroke-linecap="square" stroke-miterlimit="10" fill="none"/><path d="" stroke="#000000" stroke-linecap="square" stroke-miterlimit="10" fill="none"/><path d="" stroke="#000000" stroke-linecap="square" stroke-miterlimit="10" fill="none"/><path d="" stroke="#000000" stroke-linecap="square" stroke-miterlimit="10" fill="none"/><path d="" stroke="#000000" stroke-linecap="square" stroke-miterlimit="10" fill="none"/><path d="" stroke="#000000" stroke-linecap="square" stroke-miterlimit="10" fill="none"/><path d="" stroke="#000000" stroke-linecap="square" stroke-miterlimit="10" fill="none"/><path d="" stroke="#000000" stroke-linecap="square" stroke-miterlimit="10" fill="none"/><path d="" stroke="#000000" stroke-linecap="square" stroke-miterlimit="10" fill="none"/><path d="" stroke="#000000" stroke-linecap="square" stroke-miterlimit="10" fill="none"/><path d="" stroke="#000000" stroke-linecap="square" stroke-miterlimit="10" fill="none"/><path d="" stroke="#000000" stroke-linecap="square" stroke-miterlimit="10" fill="none"/><path d="" stroke="#000000" stroke-linecap="square" stroke-miterlimit="10" fill="none"/><path d="" stroke="#000000" stroke-linecap="square" stroke-miterlimit="10" fill="none"/><path d="" stroke="#000000" stroke-linecap="square" stroke-miterlimit="10" fill="none"/><path d="" stroke="#000000" stroke-linecap="square" stroke-miterlimit="10" fill="none"/><path d="M136 220C136 214.48 140.48 210 146 210L186 210C191.52 210 196 214.48 196 220L196 232C196 237.52 191.52 242 186 242L146 242C140.48 242 136 237.52 136 232Z" stroke="#666666" stroke-miterlimit="10" fill="#E6E6E6"/><g fill="#666666" font-family="Arial,Helvetica" font-weight="700" font-size="17" text-anchor="middle"></g><g font-family="Yu Gothic UI" font-size="12" text-anchor="middle"><text x="165.5" y="230.5">戻る</text></g><path d="M388 502C401.333 486 408 469.667 408 453 408 436.333 403 418 393 398 383 378 388 359.333 408 342" stroke="#000000" stroke-miterlimit="10" fill="none"/><path d="M0 205.5 70 205.5 136 220" stroke="#FF8000" stroke-miterlimit="10" fill="none"/><g fill="#666666" font-family="Arial,Helvetica" font-size="17" text-anchor="middle"></g><g fill="#FF8000" font-family="Helvetica" font-size="17"><text x="1.5" y="202.5">①</text></g><path d="M805 237.5 735 237.5 665 252" stroke="#FF8000" stroke-miterlimit="10" fill="none"/><g fill="#666666" font-family="Arial,Helvetica" font-size="17" text-anchor="middle"></g><g fill="#FF8000" font-family="Helvetica" font-size="17" text-anchor="end"><text x="802.5" y="234.5">②</text></g><rect x="26" y="110" width="750" height="50" stroke="#666666" fill="#F5F5F5"/><rect x="26" y="160" width="750" height="30" stroke="#666666" fill="#F5F5F5"/><g fill="#666666" font-family="Yu Gothic UI" font-size="12" text-anchor="middle"><text x="400.5" y="177.5">タイトル</text></g><rect x="41" y="120" width="130" height="30" stroke="#666666" fill="#F5F5F5"/><g fill="#666666" font-family="Yu Gothic UI" font-size="12" text-anchor="middle"><text x="105.5" y="139.5">ロゴ</text></g><rect x="696" y="120" width="69" height="30" stroke="#666666" fill="#F5F5F5"/><g fill="#666666" font-family="Yu Gothic UI" font-size="12" text-anchor="middle"><text x="730" y="139.5">ログアウト</text></g><rect x="186" y="120" width="500" height="30" stroke="#666666" fill="#F5F5F5"/><g fill="#666666" font-family="Yu Gothic UI" font-size="12" text-anchor="middle"><text x="435.5" y="139.5">機能へのリンク</text></g></g></svg>