<svg width="751" height="561" viewBox="-0.5 -0.5 751 561" xmlns="http://www.w3.org/2000/svg" xmlns:xlink="http://www.w3.org/1999/xlink" overflow="hidden"><defs></defs><g><path d="M0 0 750 0 750 560 0 560Z" stroke="#666666" stroke-miterlimit="10" fill="#FFFFFF"/><ellipse cx="685" cy="15" rx="10" ry="10" stroke="#666666" fill="none"/><ellipse cx="710" cy="15" rx="10" ry="10" stroke="#666666" fill="none"/><ellipse cx="735" cy="15" rx="10" ry="10" stroke="#008CFF" fill="none"/><path d="M0 40 30 40 30 15C30 12.24 32.24 10 35 10L170 10C172.76 10 175 12.24 175 15L175 40 750 40" stroke="#C4C4C4" stroke-miterlimit="10" fill="none"/><path d="M0 110 750 110" stroke="#C4C4C4" stroke-miterlimit="10" fill="none"/><path d="M100 60C100 57.24 102.24 55 105 55L735 55C737.76 55 740 57.24 740 60L740 85C740 87.76 737.76 90 735 90L105 90C102.24 90 100 87.76 100 85Z" stroke="#C4C4C4" stroke-miterlimit="10" fill="none"/><g fill="#666666" font-family="Arial,Helvetica" font-size="17"></g><g fill="#666666" font-family="Arial,Helvetica" font-size="17"></g><path d="M37 17 48 17 52 21 52 35 37 35Z" stroke="#C4C4C4" stroke-miterlimit="10" fill="none"/><path d="M48 17 48 21 52 22" stroke="#C4C4C4" stroke-width="0.5" stroke-miterlimit="10" fill="none"/><path d="M107 64 118 64 122 68 122 82 107 82Z" stroke="#C4C4C4" stroke-width="2" stroke-miterlimit="10" fill="none"/><path d="M118 64 118 68 122 69" stroke="#C4C4C4" stroke-width="0.5" stroke-miterlimit="10" fill="none"/><path d="M12 74 22 64 22 70 32 70 32 78 22 78 22 84Z" stroke="#C4C4C4" stroke-width="2" stroke-miterlimit="10" fill="#C4C4C4"/><path d="M62 74 52 64 52 70 42 70 42 78 52 78 52 84Z" stroke="#C4C4C4" stroke-width="2" stroke-miterlimit="10" fill="#C4C4C4"/><path d="M87.6 77.3C85.9 80.13 82.22 81.06 79.38 79.36 76.54 77.67 75.61 74 77.29 71.15 78.98 68.31 82.65 67.36 85.5 69.04L83.9 70.5 91.8 72.3 90 64.8 88.3 66.4C85.11 64.03 80.8 63.82 77.39 65.87 73.99 67.92 72.16 71.83 72.77 75.76 73.37 79.69 76.3 82.86 80.16 83.79 84.03 84.72 88.07 83.22 90.4 80Z" stroke="#C4C4C4" stroke-width="2" stroke-miterlimit="10" fill="#C4C4C4"/><g fill="#666666" font-family="Yu Gothic UI" font-size="17"><text x="61.5" y="32">情報管理シス...</text></g><g fill="#666666" font-family="Yu Gothic UI" font-size="17"><text x="131.5" y="80">https://example.com/</text></g><rect x="0" y="110" width="750" height="50" stroke="#6C8EBF" fill="#DAE8FC"/><rect x="0" y="160" width="750" height="30" stroke="#82B366" fill="#D5E8D4"/><g font-family="Yu Gothic UI" font-size="12" text-anchor="middle"><text x="374.5" y="177.5">タイトル</text></g><rect x="15" y="120" width="85" height="30" stroke="#D79B00" fill="#FFE6CC"/><g font-family="Yu Gothic UI" font-size="12" text-anchor="middle"><text x="57" y="139.5">ロゴ</text></g><rect x="20" y="200" width="720" height="350" stroke="#000000" stroke-dasharray="12 12" fill="#FFFFFF"/><g font-family="Yu Gothic UI" font-size="12" text-anchor="middle"><text x="379.5" y="379.5">機能のボディ</text></g><rect x="650" y="120" width="89" height="30" stroke="#10739E" fill="#B1DDF0"/><g font-family="Yu Gothic UI" font-size="12" text-anchor="middle"><text x="694" y="139.5">ログアウト</text></g><rect x="110" y="120" width="520" height="30" stroke="#B46504" fill="#FAD7AC"/><g font-family="Yu Gothic UI" font-size="12" text-anchor="middle"><text x="369.5" y="139.5">機能メニュー</text></g></g></svg>