<svg width="838" height="731" viewBox="-0.5 -0.5 838 731" xmlns="http://www.w3.org/2000/svg" xmlns:xlink="http://www.w3.org/1999/xlink" overflow="hidden"><defs><linearGradient x1="0%" y1="0%" x2="0%" y2="100%" id="mx-gradient-ddeeff-1-aaddff-1-s-0"><stop offset="0" stop-color="#DDEEFF"/><stop offset="1" stop-color="#AADDFF"/></linearGradient></defs><g><path d="M0 0 750 0 750 730 0 730Z" stroke="#666666" stroke-miterlimit="10" fill="#FFFFFF"/><ellipse cx="685" cy="15" rx="10" ry="10" stroke="#666666" fill="none"/><ellipse cx="710" cy="15" rx="10" ry="10" stroke="#666666" fill="none"/><ellipse cx="735" cy="15" rx="10" ry="10" stroke="#008CFF" fill="none"/><path d="M0 40 30 40 30 15C30 12.24 32.24 10 35 10L170 10C172.76 10 175 12.24 175 15L175 40 750 40" stroke="#C4C4C4" stroke-miterlimit="10" fill="none"/><path d="M0 110 750 110" stroke="#C4C4C4" stroke-miterlimit="10" fill="none"/><path d="M100 60C100 57.24 102.24 55 105 55L735 55C737.76 55 740 57.24 740 60L740 85C740 87.76 737.76 90 735 90L105 90C102.24 90 100 87.76 100 85Z" stroke="#C4C4C4" stroke-miterlimit="10" fill="none"/><g fill="#666666" font-family="Arial,Helvetica" font-size="17"></g><g fill="#666666" font-family="Arial,Helvetica" font-size="17"></g><path d="M37 17 48 17 52 21 52 35 37 35Z" stroke="#C4C4C4" stroke-miterlimit="10" fill="none"/><path d="M48 17 48 21 52 22" stroke="#C4C4C4" stroke-width="0.5" stroke-miterlimit="10" fill="none"/><path d="M107 64 118 64 122 68 122 82 107 82Z" stroke="#C4C4C4" stroke-width="2" stroke-miterlimit="10" fill="none"/><path d="M118 64 118 68 122 69" stroke="#C4C4C4" stroke-width="0.5" stroke-miterlimit="10" fill="none"/><path d="M12 74 22 64 22 70 32 70 32 78 22 78 22 84Z" stroke="#C4C4C4" stroke-width="2" stroke-miterlimit="10" fill="#C4C4C4"/><path d="M62 74 52 64 52 70 42 70 42 78 52 78 52 84Z" stroke="#C4C4C4" stroke-width="2" stroke-miterlimit="10" fill="#C4C4C4"/><path d="M87.6 77.3C85.9 80.13 82.22 81.06 79.38 79.36 76.54 77.67 75.61 74 77.29 71.15 78.98 68.31 82.65 67.36 85.5 69.04L83.9 70.5 91.8 72.3 90 64.8 88.3 66.4C85.11 64.03 80.8 63.82 77.39 65.87 73.99 67.92 72.16 71.83 72.77 75.76 73.37 79.69 76.3 82.86 80.16 83.79 84.03 84.72 88.07 83.22 90.4 80Z" stroke="#C4C4C4" stroke-width="2" stroke-miterlimit="10" fill="#C4C4C4"/><g fill="#666666" font-family="Yu Gothic UI" font-size="17"><text x="61.5" y="32">情報管理シス...</text></g><g fill="#666666" font-family="Yu Gothic UI" font-size="17"><text x="131.5" y="80">https://example.com/member/search</text></g><rect x="300" y="293" width="240" height="30" stroke="#666666" fill="#FFFFFF"/><g fill="#666666" font-family="Arial,Helvetica" font-size="17"></g><g fill="#666666" font-family="Yu Gothic UI" font-size="17"><text x="305.5" y="313.5">技研 太郎</text></g><rect x="180" y="293" width="90" height="30" fill="none"/><g font-family="Yu Gothic UI" font-size="14" text-anchor="end"><text x="267.5" y="313.5">*氏名</text></g><rect x="300" y="200" width="240" height="30" fill="#FFFFFF"/><g fill="#666666" font-family="Arial,Helvetica" font-size="17"></g><g fill="#666666" font-family="Yu Gothic UI" font-size="17"><text x="305.5" y="220.5">00001</text></g><rect x="180" y="200" width="90" height="30" fill="none"/><g font-family="Yu Gothic UI" font-size="14" text-anchor="end"><text x="267.5" y="220.5">加入者ID</text></g><path d="M300 557C300 551.48 304.48 547 310 547L390 547C395.52 547 400 551.48 400 557L400 577C400 582.52 395.52 587 390 587L310 587C304.48 587 300 582.52 300 577Z" stroke="#666666" stroke-miterlimit="10" fill="#F5F5F5"/><g fill="#666666" font-family="Arial,Helvetica" font-weight="700" font-size="17" text-anchor="middle"></g><g fill="#333333" font-family="Yu Gothic UI" font-size="15" text-anchor="middle"><text x="349.5" y="573">保存</text></g><path d="M420 557C420 551.48 424.48 547 430 547L510 547C515.52 547 520 551.48 520 557L520 577C520 582.52 515.52 587 510 587L430 587C424.48 587 420 582.52 420 577Z" stroke="#666666" stroke-miterlimit="10" fill="#F5F5F5"/><g fill="#666666" font-family="Arial,Helvetica" font-weight="700" font-size="17" text-anchor="middle"></g><g fill="#333333" font-family="Yu Gothic UI" font-size="15" text-anchor="middle"><text x="469.5" y="573">キャンセル</text></g><rect x="300" y="343" width="240" height="30" stroke="#666666" fill="#FFFFFF"/><g fill="#666666" font-family="Arial,Helvetica" font-size="17"></g><g fill="#666666" font-family="Yu Gothic UI" font-size="17"><text x="305.5" y="363.5">東京都千代田区1-1-1</text></g><rect x="180" y="343" width="90" height="30" fill="none"/><g font-family="Yu Gothic UI" font-size="14" text-anchor="end"><text x="267.5" y="363.5">*住所</text></g><rect x="300" y="393" width="240" height="30" stroke="#666666" fill="#FFFFFF"/><g fill="#666666" font-family="Arial,Helvetica" font-size="17"></g><g fill="#666666" font-family="Yu Gothic UI" font-size="17"><text x="305.5" y="413.5">2023/01/01</text></g><rect x="180" y="393" width="90" height="30" fill="none"/><g font-family="Yu Gothic UI" font-size="14" text-anchor="end"><text x="267.5" y="413.5">*加入日</text></g><rect x="300" y="443" width="240" height="30" stroke="#666666" fill="#FFFFFF"/><g fill="#666666" font-family="Arial,Helvetica" font-size="17"></g><rect x="180" y="443" width="90" height="30" fill="none"/><g font-family="Yu Gothic UI" font-size="14" text-anchor="end"><text x="267.5" y="463.5">解約日</text></g><rect x="180" y="493" width="90" height="30" fill="none"/><g font-family="Yu Gothic UI" font-size="14" text-anchor="end"><text x="267.5" y="513.5">*決済方法</text></g><rect x="300" y="493" rx="5" ry="5" width="240" height="30" stroke="#999999" fill="#FFFFFF"/><path d="M510 493 535 493C537.76 493 540 495.24 540 498L540 518C540 520.76 537.76 523 535 523L510 523Z" stroke="#999999" stroke-miterlimit="10" fill="url(#mx-gradient-ddeeff-1-aaddff-1-s-0)"/><path d="M518 503 525 513 532 503" fill="#FFFFFF"/><g fill="#666666" font-family="Arial,Helvetica" font-size="17"></g><g fill="#666666" font-family="Yu Gothic UI" font-size="17"><text x="304.5" y="515">クレジット</text></g><rect x="300" y="246" width="240" height="30" stroke="#666666" fill="#FFFFFF"/><g fill="#666666" font-family="Arial,Helvetica" font-size="17"></g><g fill="#666666" font-family="Yu Gothic UI" font-size="17"><text x="305.5" y="266.5">giken-taro@s-giken.com</text></g><rect x="179" y="246" width="90" height="30" fill="none"/><g font-family="Yu Gothic UI" font-size="14" text-anchor="end"><text x="266.5" y="266.5">*メールアドレス</text></g><rect x="0" y="110" width="750" height="50" stroke="#666666" fill="#F5F5F5"/><rect x="0" y="160" width="750" height="30" stroke="#666666" fill="#F5F5F5"/><g fill="#666666" font-family="Yu Gothic UI" font-size="12" text-anchor="middle"><text x="374.5" y="177.5">タイトル</text></g><rect x="15" y="120" width="130" height="30" stroke="#666666" fill="#F5F5F5"/><g fill="#666666" font-family="Yu Gothic UI" font-size="12" text-anchor="middle"><text x="79.5" y="139.5">ロゴ</text></g><rect x="670" y="120" width="69" height="30" stroke="#666666" fill="#F5F5F5"/><g fill="#666666" font-family="Yu Gothic UI" font-size="12" text-anchor="middle"><text x="704" y="139.5">ログアウト</text></g><rect x="160" y="120" width="500" height="30" stroke="#666666" fill="#F5F5F5"/><g fill="#666666" font-family="Yu Gothic UI" font-size="12" text-anchor="middle"><text x="409.5" y="139.5">機能へのリンク</text></g><path d="M837 205.5 767 205.5 537 260" stroke="#FF8000" stroke-miterlimit="10" fill="none"/><g fill="#666666" font-family="Arial,Helvetica" font-size="17" text-anchor="middle"></g><g fill="#FF8000" font-family="Helvetica" font-size="17" text-anchor="end"><text x="834.5" y="202.5">②</text></g><path d="M837 169.5 767 169.5 357 214" stroke="#FF8000" stroke-miterlimit="10" fill="none"/><g fill="#666666" font-family="Arial,Helvetica" font-size="17" text-anchor="middle"></g><g fill="#FF8000" font-family="Helvetica" font-size="17" text-anchor="end"><text x="834.5" y="166.5">①</text></g><path d="M837 244.5 767 244.5 537 299" stroke="#FF8000" stroke-miterlimit="10" fill="none"/><g fill="#666666" font-family="Arial,Helvetica" font-size="17" text-anchor="middle"></g><g fill="#FF8000" font-family="Helvetica" font-size="17" text-anchor="end"><text x="834.5" y="241.5">③</text></g><path d="M837 305.5 767 305.5 537 360" stroke="#FF8000" stroke-miterlimit="10" fill="none"/><g fill="#666666" font-family="Arial,Helvetica" font-size="17" text-anchor="middle"></g><g fill="#FF8000" font-family="Helvetica" font-size="17" text-anchor="end"><text x="834.5" y="302.5">④</text></g><path d="M837 355.5 767 355.5 537 410" stroke="#FF8000" stroke-miterlimit="10" fill="none"/><g fill="#666666" font-family="Arial,Helvetica" font-size="17" text-anchor="middle"></g><g fill="#FF8000" font-family="Helvetica" font-size="17" text-anchor="end"><text x="834.5" y="352.5">⑤</text></g><path d="M837 523.5 767 523.5 387 558" stroke="#FF8000" stroke-miterlimit="10" fill="none"/><g fill="#666666" font-family="Arial,Helvetica" font-size="17" text-anchor="middle"></g><g fill="#FF8000" font-family="Helvetica" font-size="17" text-anchor="end"><text x="834.5" y="520.5">⑧</text></g><path d="M837 554.5 767 554.5 507 579" stroke="#FF8000" stroke-miterlimit="10" fill="none"/><g fill="#666666" font-family="Arial,Helvetica" font-size="17" text-anchor="middle"></g><g fill="#FF8000" font-family="Helvetica" font-size="17" text-anchor="end"><text x="834.5" y="551.5">⑨</text></g><path d="M837 401.5 767 401.5 537 456" stroke="#FF8000" stroke-miterlimit="10" fill="none"/><g fill="#666666" font-family="Arial,Helvetica" font-size="17" text-anchor="middle"></g><g fill="#FF8000" font-family="Helvetica" font-size="17" text-anchor="end"><text x="834.5" y="398.5">⑥</text></g><path d="M837 453.5 767 453.5 537 508" stroke="#FF8000" stroke-miterlimit="10" fill="none"/><g fill="#666666" font-family="Arial,Helvetica" font-size="17" text-anchor="middle"></g><g fill="#FF8000" font-family="Helvetica" font-size="17" text-anchor="end"><text x="834.5" y="450.5">⑦</text></g></g></svg>