<svg width="576" height="85.44" viewBox="0 0 432 64.08" xmlns="http://www.w3.org/2000/svg" xmlns:xlink="http://www.w3.org/1999/xlink" id="svg395" overflow="hidden"><defs id="defs183"><clipPath id="clip-0"><path d="M0.75 40 105.75 40 105.75 42 0.75 42Z" id="path156"/></clipPath><clipPath id="clip-1"><path d="M0.75 41 105.75 41 105.75 42 0.75 42Z" id="path159"/></clipPath><clipPath id="clip-2"><path d="M105 40 105.75 40 105.75 42 105 42Z" id="path162"/></clipPath><clipPath id="clip-3"><path d="M0.75 40 2 40 2 42 0.75 42Z" id="path165"/></clipPath><clipPath id="clip-4"><path d="M176 0 258 0 258 62.25 176 62.25Z" id="path168"/></clipPath><clipPath id="clip-5"><path d="M325.5 40 430.5 40 430.5 42 325.5 42Z" id="path171"/></clipPath><clipPath id="clip-6"><path d="M325.5 41 430.5 41 430.5 42 325.5 42Z" id="path174"/></clipPath><clipPath id="clip-7"><path d="M429 40 430.5 40 430.5 42 429 42Z" id="path177"/></clipPath><clipPath id="clip-8"><path d="M325.5 40 327 40 327 42 325.5 42Z" id="path180"/></clipPath><g id="g154"><g id="glyph-0-0"></g><g id="glyph-0-1"><path d="M5.4375-5.375 6.875-5.375 6.875-4.76562 5.4375-4.76562 5.4375-4.09375C5.4375-2.61328 5.11719-1.53125 4.48438-0.84375 3.98438-0.289063 3.17188 0.117188 2.04688 0.390625L1.67188-0.125C2.82812-0.363281 3.63281-0.78125 4.09375-1.375 4.53906-1.96875 4.76562-2.84766 4.76562-4.01562L4.76562-4.76562 2.5-4.76562 2.5-2.39062 1.82812-2.39062 1.82812-4.76562 0.453125-4.76562 0.453125-5.375 1.82812-5.375 1.82812-7.15625 2.5-7.15625 2.5-5.375 4.76562-5.375 4.76562-7.17188 5.4375-7.17188Z" id="path3"/></g><g id="glyph-0-2"><path d="M0.4375-3.6875 5.32812-3.6875 5.32812-3.03125 0.4375-3.03125Z" id="path6"/></g><g id="glyph-0-3"><path d="M1.75-3.17188 1.75-1.25C1.75-0.820313 1.87891-0.585938 2.14062-0.546875 2.45312-0.484375 2.89062-0.453125 3.45312-0.453125 4.05469-0.453125 4.71875-0.488281 5.4375-0.5625L5.4375 0.125C4.64453 0.164063 3.92578 0.1875 3.28125 0.1875 2.5625 0.1875 2.03516 0.140625 1.70312 0.046875 1.27344-0.046875 1.0625-0.410156 1.0625-1.04688L1.0625-6.89062 1.75-6.89062 1.75-3.8125C2.96875-4.375 3.9375-5.00781 4.65625-5.71875L5.125-5.17188C4.21875-4.39062 3.09375-3.72266 1.75-3.17188ZM4.1875-7.39062 4.64062-7.57812C4.81641-7.27344 5.03906-6.76953 5.3125-6.0625L4.82812-5.85938C4.60938-6.50391 4.39453-7.01562 4.1875-7.39062ZM5.20312-7.6875 5.65625-7.85938C5.88281-7.47266 6.09766-6.97656 6.29688-6.375L5.82812-6.1875C5.62891-6.78125 5.42188-7.28125 5.20312-7.6875Z" id="path9"/></g><g id="glyph-0-4"><path d="M3.98438-2.57812C3.19141-1.36719 2.11719-0.421875 0.765625 0.265625L0.375-0.25C1.625-0.90625 2.60156-1.75 3.3125-2.78125 3.91406-3.66406 4.35156-4.74219 4.625-6.01562L0.84375-6.01562 0.84375-6.625 5.51562-6.625C5.25391-5.28906 4.85938-4.14062 4.32812-3.17188 5.14062-2.19141 5.83594-1.1875 6.42188-0.15625L5.76562 0.265625C5.28516-0.710938 4.69141-1.66016 3.98438-2.57812Z" id="path12"/></g><g id="glyph-0-5"><path d="M7.23438 0.5625C7.23438 0.601563 7.21094 0.625 7.17188 0.625L6.76562 0.625C6.72266 0.625 6.70312 0.601563 6.70312 0.5625L6.70312 0.1875 2.76562 0.1875 2.76562 0.5625C2.76562 0.601563 2.73828 0.625 2.6875 0.625L2.29688 0.625C2.24219 0.625 2.21875 0.601563 2.21875 0.5625L2.23438-0.5 2.23438-2.85938 2.21875-3.92188C2.21875-3.97266 2.24219-4 2.29688-4L3.54688-3.98438 5.42188-3.98438 6.59375-4C6.63281-4 6.65625-3.97266 6.65625-3.92188L6.64062-3.32812 6.64062-2.9375 6.65625-2.32812C6.65625-2.28516 6.63281-2.26562 6.59375-2.26562L5.42188-2.28125 2.76562-2.28125 2.76562-1.59375 5.875-1.59375 7.17188-1.625C7.21094-1.625 7.23438-1.59766 7.23438-1.54688L7.21875-0.84375 7.21875-0.125ZM6.70312-0.234375 6.70312-1.17188 2.76562-1.17188 2.76562-0.234375ZM6.125-2.71875 6.125-3.54688 2.76562-3.54688 2.76562-2.71875ZM8.14062-3.53125C8.14062-3.47656 8.11328-3.45312 8.0625-3.45312L7.65625-3.45312C7.61328-3.45312 7.59375-3.47656 7.59375-3.53125L7.59375-4.54688 1.4375-4.54688 1.4375-3.53125C1.4375-3.47656 1.41406-3.45312 1.375-3.45312L0.96875-3.45312C0.914063-3.45312 0.890625-3.47656 0.890625-3.53125L0.90625-4.32812 0.90625-4.5625 0.890625-4.9375C0.890625-4.97656 0.914063-5 0.96875-5L2.21875-4.98438 4.15625-4.98438C4.15625-5.26562 4.13281-5.49219 4.09375-5.67188 4.3125-5.67188 4.5-5.64844 4.65625-5.60938 4.72656-5.60938 4.76562-5.58594 4.76562-5.54688 4.76562-5.51562 4.75-5.46094 4.71875-5.39062 4.69531-5.32812 4.6875-5.19141 4.6875-4.98438L6.8125-4.98438 8.0625-5C8.11328-5 8.14062-4.97656 8.14062-4.9375L8.125-4.59375 8.125-4.32812ZM4.46875-6.34375C4.46875-6.30078 4.44531-6.28125 4.40625-6.28125L3.4375-6.29688 3.10938-6.29688C3.22266-6.10938 3.33594-5.86328 3.45312-5.5625 3.46094-5.55078 3.46875-5.53906 3.46875-5.53125 3.46875-5.50781 3.4375-5.48828 3.375-5.46875L3.09375-5.375C3.05078-5.36328 3.02344-5.35938 3.01562-5.35938 2.98438-5.35938 2.96094-5.37891 2.95312-5.42188 2.84766-5.75391 2.72656-6.04688 2.59375-6.29688L1.78125-6.29688C1.57031-5.99219 1.32031-5.70312 1.03125-5.42188 0.96875-5.36719 0.925781-5.34375 0.90625-5.34375 0.875-5.34375 0.828125-5.36719 0.765625-5.42188 0.671875-5.51562 0.578125-5.57812 0.484375-5.60938 1.01562-6.05469 1.41406-6.57031 1.6875-7.15625 1.75-7.25781 1.78516-7.38281 1.79688-7.53125 1.96094-7.5 2.12891-7.45703 2.29688-7.40625 2.35938-7.39453 2.39062-7.36719 2.39062-7.32812 2.39062-7.28516 2.36719-7.25 2.32812-7.21875 2.28516-7.17578 2.23828-7.09766 2.1875-6.98438 2.16406-6.95312 2.14062-6.90625 2.10938-6.84375 2.07812-6.78906 2.05469-6.75 2.04688-6.71875L3.4375-6.71875 4.40625-6.73438C4.44531-6.73438 4.46875-6.71094 4.46875-6.67188ZM8.42188-6.34375C8.42188-6.30078 8.39453-6.28125 8.34375-6.28125L7.23438-6.29688 6.60938-6.29688C6.72266-6.10938 6.84766-5.86328 6.98438-5.5625 6.99219-5.55078 7-5.53906 7-5.53125 7-5.5 6.96875-5.47266 6.90625-5.45312L6.64062-5.39062C6.60938-5.37891 6.58203-5.375 6.5625-5.375 6.53906-5.375 6.51953-5.39062 6.5-5.42188 6.375-5.77344 6.24219-6.06641 6.10938-6.29688L5.25-6.29688C5.17578-6.16016 5.0625-5.98438 4.90625-5.76562 4.85156-5.70312 4.81641-5.67188 4.79688-5.67188 4.76562-5.67188 4.71094-5.69531 4.64062-5.75 4.55469-5.80078 4.45703-5.84375 4.34375-5.875 4.66406-6.26953 4.91406-6.69531 5.09375-7.15625 5.13281-7.25 5.16406-7.37891 5.1875-7.54688 5.375-7.51562 5.53516-7.47656 5.67188-7.4375 5.74219-7.41406 5.78125-7.38281 5.78125-7.34375 5.78125-7.3125 5.75781-7.27344 5.71875-7.23438 5.6875-7.20312 5.64062-7.11719 5.57812-6.98438 5.52344-6.84766 5.48828-6.75781 5.46875-6.71875L7.23438-6.71875 8.34375-6.73438C8.39453-6.73438 8.42188-6.71094 8.42188-6.67188Z" id="path15"/></g><g id="glyph-0-6"><path d="M8.65625 0.109375C8.65625 0.160156 8.63281 0.1875 8.59375 0.1875L7.32812 0.15625 4.03125 0.15625 2.75 0.1875C2.69531 0.1875 2.67188 0.160156 2.67188 0.109375L2.67188-0.296875C2.67188-0.335938 2.69531-0.359375 2.75-0.359375L4.03125-0.34375 5.5625-0.34375 5.5625-1.51562 4.875-1.51562 3.6875-1.5C3.64453-1.5 3.625-1.51953 3.625-1.5625L3.625-1.95312C3.625-2.00391 3.64453-2.03125 3.6875-2.03125L4.875-2.01562 5.5625-2.01562 5.5625-3.03125 4.875-3.03125 3.6875-3.01562C3.63281-3.01562 3.60938-3.03516 3.60938-3.07812L3.625-4.0625 3.625-5.89062 3.60938-6.85938C3.60938-6.91016 3.63281-6.9375 3.6875-6.9375L4.875-6.90625 6.875-6.90625 8.04688-6.9375C8.09766-6.9375 8.125-6.91016 8.125-6.85938L8.10938-5.89062 8.10938-4.0625 8.125-3.07812C8.125-3.03516 8.09766-3.01562 8.04688-3.01562L6.875-3.03125 6.09375-3.03125 6.09375-2.01562 6.92188-2.01562 8.10938-2.03125C8.14844-2.03125 8.17188-2.00391 8.17188-1.95312L8.17188-1.5625C8.17188-1.51953 8.14844-1.5 8.10938-1.5L6.92188-1.51562 6.09375-1.51562 6.09375-0.34375 7.32812-0.34375 8.59375-0.359375C8.63281-0.359375 8.65625-0.335938 8.65625-0.296875ZM7.57812-3.5 7.57812-4.76562 6.09375-4.76562 6.09375-3.5ZM7.57812-5.21875 7.57812-6.45312 6.09375-6.45312 6.09375-5.21875ZM5.5625-3.5 5.5625-4.76562 4.14062-4.76562 4.14062-3.5ZM5.5625-5.21875 5.5625-6.45312 4.14062-6.45312 4.14062-5.21875ZM3.35938-2.42188C3.34766-2.32812 3.34375-2.21094 3.34375-2.07812 3.34375-2.03516 3.34375-2.00391 3.34375-1.98438 3.34375-1.92188 3.29688-1.85938 3.20312-1.79688 2.61719-1.47266 1.94531-1.16016 1.1875-0.859375 1.00781-0.796875 0.898438-0.75 0.859375-0.71875 0.816406-0.675781 0.78125-0.65625 0.75-0.65625 0.707031-0.65625 0.675781-0.6875 0.65625-0.75 0.59375-0.894531 0.539063-1.06641 0.5-1.26562 0.726563-1.29688 1.00391-1.36719 1.32812-1.48438L1.70312-1.625 1.70312-3.875 1.5625-3.875 0.765625-3.85938C0.710938-3.85938 0.6875-3.88281 0.6875-3.9375L0.6875-4.3125C0.6875-4.35156 0.710938-4.375 0.765625-4.375L1.5625-4.35938 1.70312-4.35938 1.70312-6.28125 1.5-6.28125 0.625-6.26562C0.582031-6.26562 0.5625-6.28906 0.5625-6.34375L0.5625-6.73438C0.5625-6.77344 0.582031-6.79688 0.625-6.79688L1.5-6.78125 2.42188-6.78125 3.28125-6.79688C3.33203-6.79688 3.35938-6.77344 3.35938-6.73438L3.35938-6.34375C3.35938-6.28906 3.33203-6.26562 3.28125-6.26562L2.42188-6.28125 2.23438-6.28125 2.23438-4.35938 2.34375-4.35938 3.15625-4.375C3.19531-4.375 3.21875-4.35156 3.21875-4.3125L3.21875-3.9375C3.21875-3.88281 3.19531-3.85938 3.15625-3.85938L2.34375-3.875 2.23438-3.875 2.23438-1.85938C2.60938-2.01562 2.98438-2.20312 3.35938-2.42188Z" id="path18"/></g><g id="glyph-0-7"><path d="M0.625-6.70312 6.48438-6.70312C6.37891-5.89062 6.19531-5.22266 5.9375-4.70312 5.6875-4.20312 5.32812-3.75 4.85938-3.34375L4.3125-3.78125C4.70703-4.10156 5.02344-4.48438 5.26562-4.92188 5.48438-5.30469 5.61328-5.69531 5.65625-6.09375L0.625-6.09375ZM0.890625-0.203125C1.67188-0.566406 2.21094-1.01562 2.51562-1.54688 2.83594-2.11719 3-2.91406 3-3.9375L3-5.35938 3.70312-5.35938 3.70312-3.92188C3.70312-2.67969 3.45703-1.71875 2.96875-1.03125 2.625-0.519531 2.07812-0.0703125 1.32812 0.3125Z" id="path21"/></g><g id="glyph-0-8"><path d="M5.48438-5.9375C5.41016-4.30078 5.11328-3.03125 4.59375-2.125 3.96875-1 2.875-0.164063 1.3125 0.375L0.9375-0.15625C2.30078-0.644531 3.27344-1.34375 3.85938-2.25 4.44141-3.15625 4.73438-4.38281 4.73438-5.9375L0.546875-5.9375 0.546875-6.54688 4.85938-6.54688C4.81641-6.64062 4.79688-6.75391 4.79688-6.89062 4.79688-7.19141 4.90625-7.44141 5.125-7.64062 5.3125-7.81641 5.53516-7.90625 5.79688-7.90625 6.09766-7.90625 6.34766-7.79688 6.54688-7.57812 6.71094-7.37891 6.79688-7.14844 6.79688-6.89062 6.79688-6.59766 6.6875-6.34766 6.46875-6.14062 6.28125-5.97266 6.05469-5.89062 5.79688-5.89062 5.67969-5.89062 5.57812-5.90625 5.48438-5.9375ZM5.79688-7.51562C5.60938-7.51562 5.45312-7.44531 5.32812-7.3125 5.22266-7.19531 5.17188-7.05469 5.17188-6.89062 5.17188-6.70312 5.23828-6.54688 5.375-6.42188 5.48828-6.31641 5.62891-6.26562 5.79688-6.26562 5.98438-6.26562 6.14062-6.33203 6.26562-6.46875 6.36719-6.59375 6.42188-6.73438 6.42188-6.89062 6.42188-7.07812 6.35156-7.23438 6.21875-7.35938 6.10156-7.46094 5.96094-7.51562 5.79688-7.51562Z" id="path24"/></g><g id="glyph-0-9"><path d="M1.875-6.92188 1.875-2.51562 1.17188-2.51562 1.17188-6.92188ZM1.625-0.171875C2.70703-0.398438 3.44531-0.789063 3.84375-1.34375 4.22656-1.85156 4.42188-2.63281 4.42188-3.6875L4.42188-6.96875 5.125-6.96875 5.125-3.59375C5.125-2.30078 4.83203-1.34766 4.25-0.734375 3.76953-0.222656 3 0.144531 1.9375 0.375Z" id="path27"/></g><g id="glyph-0-10"><path d="M2.23438-5.79688 6.46875-5.79688 6.46875-5.1875 4.71875-5.1875C4.70703-3.38281 4.46875-2.07031 4-1.25 3.60156-0.5625 2.92969-0.015625 1.98438 0.390625L1.5-0.046875C2.15625-0.335938 2.64844-0.660156 2.98438-1.01562 3.34766-1.39844 3.61328-1.91406 3.78125-2.5625 3.9375-3.19531 4.01953-4.07031 4.03125-5.1875L2.07812-5.1875C1.80469-4.34375 1.41406-3.59375 0.90625-2.9375L0.328125-3.25C1.10938-4.20703 1.61328-5.53516 1.84375-7.23438L2.51562-7.14062C2.44141-6.67188 2.34766-6.22266 2.23438-5.79688Z" id="path30"/></g><g id="glyph-0-11"><path d="M0.625-4.32812 0.921875-4.875C1.98438-4.45703 2.69141-4.14844 3.04688-3.95312L2.70312-3.34375C2.21094-3.65625 1.51953-3.98438 0.625-4.32812ZM1.42188-6.25 1.76562-6.78125C2.64844-6.4375 3.33203-6.11328 3.8125-5.8125L3.45312-5.21875C2.96094-5.55078 2.28516-5.89453 1.42188-6.25ZM6.14062-5.65625 6.76562-5.3125C6.59766-4.61328 6.35156-3.9375 6.03125-3.28125 5.73828-2.69531 5.42188-2.21875 5.07812-1.84375 4.19141-0.875 3.00391-0.234375 1.51562 0.078125L1.14062-0.484375C2.54688-0.734375 3.6875-1.33203 4.5625-2.28125 5.28125-3.08203 5.80469-4.20703 6.14062-5.65625Z" id="path33"/></g><g id="glyph-0-12"><path d="M4.03125-3.03125 4.03125-4.75 0.921875-4.75 0.921875-5.32812 4.70312-5.32812 4.70312 0.1875 0.890625 0.1875 0.890625-0.390625 4.03125-0.390625 4.03125-2.45312 1.0625-2.45312 1.0625-3.03125Z" id="path36"/></g><g id="glyph-0-13"><path d="M1.03125-6.40625C1.875-5.94531 2.57812-5.5 3.14062-5.0625L2.6875-4.46875C2.14453-4.9375 1.45703-5.40625 0.625-5.875ZM5.5625-5.95312 6.23438-5.64062C5.97266-4.09766 5.41406-2.85156 4.5625-1.90625 3.6875-0.925781 2.48828-0.234375 0.96875 0.171875L0.65625-0.4375C3.47656-1.13281 5.11328-2.97266 5.5625-5.95312Z" id="path39"/></g><g id="glyph-0-14"><path d="M5.21875 0 4.1875 0 1.75-2.89062C1.65625-2.99219 1.59766-3.06641 1.57812-3.10938L1.5625-3.10938 1.5625 0 0.828125 0 0.828125-6.29688 1.5625-6.29688 1.5625-3.34375 1.57812-3.34375C1.61719-3.40625 1.67578-3.47656 1.75-3.5625L4.10938-6.29688 5.01562-6.29688 2.32812-3.28125Z" id="path42"/></g><g id="glyph-0-15"><path d="M5.70312 0 4.89062 0 4.21875-1.76562 1.54688-1.76562 0.921875 0 0.09375 0 2.51562-6.29688 3.28125-6.29688ZM3.98438-2.4375 2.98438-5.10938C2.95312-5.20312 2.92188-5.34375 2.89062-5.53125L2.875-5.53125C2.84375-5.35156 2.80469-5.21094 2.76562-5.10938L1.79688-2.4375Z" id="path45"/></g><g id="glyph-0-16"><path d="M1.5625-2.375 1.5625 0 0.828125 0 0.828125-6.29688 2.5625-6.29688C3.22656-6.29688 3.75-6.12891 4.125-5.79688 4.5-5.47266 4.6875-5.01562 4.6875-4.42188 4.6875-3.82812 4.47656-3.33594 4.0625-2.95312 3.65625-2.56641 3.09766-2.375 2.39062-2.375ZM1.5625-5.64062 1.5625-3.04688 2.34375-3.04688C2.85156-3.04688 3.23828-3.16016 3.5-3.39062 3.76953-3.62891 3.90625-3.96094 3.90625-4.39062 3.90625-5.22266 3.41406-5.64062 2.4375-5.64062Z" id="path48"/></g><g id="glyph-0-17"><path d="M5.04688-7.14062 5.5-7.32812C5.67578-7.02344 5.89844-6.51953 6.17188-5.8125L5.6875-5.60938C5.46875-6.25391 5.25391-6.76562 5.04688-7.14062ZM0.3125-0.171875C0.863281-0.960938 1.28516-1.92188 1.57812-3.04688 1.82812-4.00391 2.00781-5.17578 2.125-6.5625L2.84375-6.5C2.6875-4.88281 2.44141-3.52344 2.10938-2.42188 1.80469-1.42188 1.41016-0.5625 0.921875 0.15625ZM6.04688-7.45312 6.48438-7.60938C6.71094-7.23438 6.92578-6.74219 7.125-6.14062L6.65625-5.95312C6.46875-6.54688 6.26562-7.04688 6.04688-7.45312ZM4.15625-6.51562 4.84375-6.57812C5.13281-4.03516 5.75781-1.91406 6.71875-0.21875L6.04688 0.15625C5.07812-1.70703 4.44531-3.92969 4.15625-6.51562Z" id="path51"/></g><g id="glyph-0-18"><path d="M0.53125-4.875 1.10938-5.125C1.35938-4.63281 1.60938-3.98438 1.85938-3.17188L1.26562-2.9375C1.08594-3.59375 0.84375-4.23828 0.53125-4.875ZM2.23438-5.26562 2.79688-5.5C3.03516-4.97656 3.25391-4.33594 3.45312-3.57812L2.875-3.32812C2.69531-4.08594 2.48438-4.73438 2.23438-5.26562ZM1.53125 0C2.61328-0.414063 3.41406-1.07812 3.9375-1.98438 4.38281-2.74219 4.64453-3.84766 4.71875-5.29688L5.39062-5.15625C5.26562-3.64453 4.96094-2.47266 4.48438-1.64062 4.20312-1.14844 3.84375-0.734375 3.40625-0.390625 3.01953-0.078125 2.52344 0.203125 1.92188 0.453125Z" id="path54"/></g><g id="glyph-0-19"><path d="M3.98438-4.21875 6.28125-4.21875 6.28125-3.625 3.98438-3.625C3.96094-2.41406 3.72656-1.50391 3.28125-0.890625 2.92578-0.410156 2.33203 0.0078125 1.5 0.375L1.0625-0.125C1.92578-0.476563 2.51562-0.929688 2.82812-1.48438 3.12891-1.99219 3.28125-2.70703 3.28125-3.625L0.5-3.625 0.5-4.21875 3.28125-4.21875 3.28125-5.84375C2.55078-5.70703 1.82812-5.60156 1.10938-5.53125L0.859375-6.10938C2.52344-6.25391 4.03516-6.55469 5.39062-7.01562L5.71875-6.45312C5.16406-6.27344 4.58594-6.11719 3.98438-5.98438Z" id="path57"/></g><g id="glyph-0-20"><path d="M8.71875-0.359375C8.64453-0.253906 8.59375-0.117188 8.5625 0.046875 8.53906 0.140625 8.51953 0.195313 8.5 0.21875 8.47656 0.226563 8.42578 0.238281 8.34375 0.25 7.90625 0.28125 7.28906 0.296875 6.5 0.296875 5.09375 0.296875 4.00391-0.0625 3.23438-0.78125 3.00391-0.988281 2.81641-1.20312 2.67188-1.42188 2.24219-0.742188 1.66406-0.113281 0.9375 0.46875 0.863281 0.519531 0.816406 0.546875 0.796875 0.546875 0.773438 0.546875 0.738281 0.503906 0.6875 0.421875 0.601563 0.296875 0.507813 0.203125 0.40625 0.140625 1.22656-0.441406 1.87891-1.12891 2.35938-1.92188 2.04688-2.51562 1.8125-3.26562 1.65625-4.17188 1.45703-3.72266 1.19141-3.25391 0.859375-2.76562 0.816406-2.69141 0.785156-2.65625 0.765625-2.65625 0.742188-2.65625 0.710938-2.69141 0.671875-2.76562 0.585938-2.89062 0.5-2.99219 0.40625-3.07812 0.851563-3.67188 1.20703-4.33203 1.46875-5.0625 1.64453-5.55078 1.79688-6.125 1.92188-6.78125 1.96094-7.01953 1.98438-7.22266 1.98438-7.39062 1.98438-7.42188 1.98438-7.44531 1.98438-7.46875 2.17969-7.4375 2.35938-7.39844 2.51562-7.35938 2.58594-7.33594 2.625-7.30078 2.625-7.25 2.625-7.21875 2.60938-7.17578 2.57812-7.125 2.52344-7.05078 2.47656-6.92188 2.4375-6.73438 2.36328-6.39062 2.29688-6.09766 2.23438-5.85938L3.28125-5.85938C3.42578-5.85938 3.51953-5.86719 3.5625-5.89062 3.625-5.92188 3.66406-5.9375 3.6875-5.9375 3.72656-5.9375 3.80469-5.87891 3.92188-5.76562 4.03516-5.66016 4.09375-5.58594 4.09375-5.54688 4.09375-5.50391 4.07812-5.46094 4.04688-5.42188 4.00391-5.37891 3.97266-5.25781 3.95312-5.0625 3.75391-3.80078 3.41406-2.73438 2.9375-1.85938 3.08203-1.64062 3.24219-1.44531 3.42188-1.28125 3.85938-0.875 4.36719-0.59375 4.95312-0.4375 5.39062-0.320313 5.94141-0.265625 6.60938-0.265625 7.39844-0.265625 8.10156-0.296875 8.71875-0.359375ZM3.45312-5.375 2.10938-5.375 1.96875-4.95312C2.125-3.85938 2.34766-3.00781 2.64062-2.40625 3.06641-3.25 3.33594-4.23828 3.45312-5.375ZM8.59375-2.92188C8.57031-2.41016 8.53516-2.05078 8.48438-1.84375 8.45312-1.69531 8.39453-1.58594 8.3125-1.51562 8.16406-1.39062 7.9375-1.32812 7.625-1.32812 7.26953-1.32812 7.03906-1.35938 6.9375-1.42188 6.76953-1.50391 6.6875-1.71875 6.6875-2.0625L6.6875-6.375 5.5-6.375C5.50781-4.90625 5.44141-3.84375 5.29688-3.1875 5.14062-2.48828 4.84375-1.88281 4.40625-1.375 4.35156-1.3125 4.31641-1.28125 4.29688-1.28125 4.26562-1.28125 4.22266-1.30469 4.17188-1.35938 4.05469-1.46094 3.94141-1.53516 3.82812-1.57812 4.32812-2.08594 4.64844-2.72656 4.79688-3.5 4.91016-4.08203 4.96875-5 4.96875-6.25L4.95312-6.79688C4.95312-6.84766 4.97656-6.875 5.03125-6.875L5.75-6.85938 6.42188-6.85938 7.15625-6.875C7.20703-6.875 7.23438-6.84766 7.23438-6.79688L7.21875-5.59375 7.21875-2.20312C7.21875-2.00391 7.23828-1.89062 7.28125-1.85938 7.34375-1.82812 7.45312-1.8125 7.60938-1.8125 7.78516-1.8125 7.91016-1.85938 7.98438-1.95312 8.06641-2.06641 8.11328-2.53125 8.125-3.34375 8.21875-3.28125 8.33594-3.21875 8.48438-3.15625 8.56641-3.125 8.60938-3.07812 8.60938-3.01562 8.60938-3.00391 8.60156-2.97266 8.59375-2.92188Z" id="path60"/></g><g id="glyph-0-21"><path d="M0.828125 0 0.828125-6.29688 2.625-6.29688C3.16406-6.29688 3.59375-6.16016 3.90625-5.89062 4.22656-5.62891 4.39062-5.28516 4.39062-4.85938 4.39062-4.50391 4.28906-4.19141 4.09375-3.92188 3.90625-3.66016 3.64453-3.47266 3.3125-3.35938L3.3125-3.34375C3.72656-3.30078 4.0625-3.14453 4.3125-2.875 4.57031-2.60156 4.70312-2.25 4.70312-1.8125 4.70312-1.26953 4.50781-0.832031 4.125-0.5 3.73828-0.164063 3.25 0 2.65625 0ZM1.5625-5.64062 1.5625-3.59375 2.32812-3.59375C2.72266-3.59375 3.03516-3.69141 3.26562-3.89062 3.50391-4.08594 3.625-4.36328 3.625-4.71875 3.625-5.33203 3.21875-5.64062 2.40625-5.64062ZM1.5625-2.9375 1.5625-0.671875 2.5625-0.671875C3-0.671875 3.33594-0.769531 3.57812-0.96875 3.81641-1.17578 3.9375-1.45703 3.9375-1.8125 3.9375-2.5625 3.42578-2.9375 2.40625-2.9375Z" id="path63"/></g><g id="glyph-0-22"><path d="M4.54688-5.64062 2.73438-5.64062 2.73438 0 2 0 2-5.64062 0.1875-5.64062 0.1875-6.29688 4.54688-6.29688Z" id="path66"/></g><g id="glyph-1-0"></g><g id="glyph-1-1"><path d="M4.98438-4.92188 6.3125-4.92188 6.3125-4.375 4.98438-4.375 4.98438-3.75C4.98438-2.39453 4.69141-1.40625 4.10938-0.78125 3.64844-0.269531 2.90625 0.109375 1.875 0.359375L1.53125-0.109375C2.59375-0.335938 3.33203-0.722656 3.75-1.26562 4.15625-1.80469 4.35938-2.60938 4.35938-3.67188L4.35938-4.375 2.29688-4.375 2.29688-2.1875 1.67188-2.1875 1.67188-4.375 0.40625-4.375 0.40625-4.92188 1.67188-4.92188 1.67188-6.5625 2.29688-6.5625 2.29688-4.92188 4.35938-4.92188 4.35938-6.57812 4.98438-6.57812Z" id="path70"/></g><g id="glyph-1-2"><path d="M0.40625-3.39062 4.89062-3.39062 4.89062-2.76562 0.40625-2.76562Z" id="path73"/></g><g id="glyph-1-3"><path d="M1.60938-2.90625 1.60938-1.14062C1.60938-0.753906 1.72266-0.539063 1.95312-0.5 2.24219-0.4375 2.64453-0.40625 3.15625-0.40625 3.70703-0.40625 4.31641-0.441406 4.98438-0.515625L4.98438 0.109375C4.25391 0.148438 3.59375 0.171875 3 0.171875 2.34375 0.171875 1.86328 0.128906 1.5625 0.046875 1.16406-0.0351563 0.96875-0.367188 0.96875-0.953125L0.96875-6.32812 1.60938-6.32812 1.60938-3.48438C2.72266-4.00391 3.61328-4.58594 4.28125-5.23438L4.70312-4.73438C3.86719-4.02344 2.83594-3.41406 1.60938-2.90625ZM3.84375-6.78125 4.26562-6.9375C4.42188-6.66406 4.625-6.20312 4.875-5.54688L4.42188-5.375C4.22266-5.95703 4.03125-6.42578 3.84375-6.78125ZM4.76562-7.04688 5.1875-7.20312C5.39453-6.84766 5.58594-6.39453 5.76562-5.84375L5.34375-5.67188C5.16406-6.22266 4.97266-6.67969 4.76562-7.04688Z" id="path76"/></g><g id="glyph-1-4"><path d="M3.64062-2.35938C2.92188-1.25391 1.94141-0.382813 0.703125 0.25L0.34375-0.234375C1.48828-0.828125 2.38281-1.59766 3.03125-2.54688 3.58203-3.35938 3.98438-4.34766 4.23438-5.51562L0.78125-5.51562 0.78125-6.07812 5.0625-6.07812C4.8125-4.84766 4.44531-3.78906 3.96875-2.90625 4.71875-2.00781 5.35938-1.08594 5.89062-0.140625L5.28125 0.25C4.84375-0.644531 4.29688-1.51562 3.64062-2.35938Z" id="path79"/></g><g id="glyph-1-5"><path d="M6.64062 0.515625C6.64062 0.554688 6.61328 0.578125 6.5625 0.578125L6.20312 0.578125C6.16016 0.578125 6.14062 0.554688 6.14062 0.515625L6.14062 0.171875 2.53125 0.171875 2.53125 0.515625C2.53125 0.554688 2.50781 0.578125 2.46875 0.578125L2.10938 0.578125C2.05469 0.578125 2.03125 0.554688 2.03125 0.515625L2.04688-0.453125 2.04688-2.60938 2.03125-3.59375C2.03125-3.63281 2.05469-3.65625 2.10938-3.65625L3.25-3.64062 4.96875-3.64062 6.04688-3.65625C6.08594-3.65625 6.10938-3.63281 6.10938-3.59375L6.09375-3.04688 6.09375-2.6875 6.10938-2.14062C6.10938-2.09766 6.08594-2.07812 6.04688-2.07812L4.96875-2.09375 2.53125-2.09375 2.53125-1.46875 5.39062-1.46875 6.5625-1.48438C6.61328-1.48438 6.64062-1.46094 6.64062-1.42188L6.625-0.78125 6.625-0.109375ZM6.14062-0.21875 6.14062-1.07812 2.53125-1.07812 2.53125-0.21875ZM5.60938-2.48438 5.60938-3.25 2.53125-3.25 2.53125-2.48438ZM7.45312-3.23438C7.45312-3.17969 7.42969-3.15625 7.39062-3.15625L7.01562-3.15625C6.97266-3.15625 6.95312-3.17969 6.95312-3.23438L6.95312-4.15625 1.32812-4.15625 1.32812-3.23438C1.32812-3.17969 1.30078-3.15625 1.25-3.15625L0.875-3.15625C0.832031-3.15625 0.8125-3.17969 0.8125-3.23438L0.828125-3.96875 0.828125-4.17188 0.8125-4.53125C0.8125-4.57031 0.832031-4.59375 0.875-4.59375L2.03125-4.57812 3.8125-4.57812C3.8125-4.82812 3.78906-5.03125 3.75-5.1875 3.95703-5.1875 4.13281-5.17188 4.28125-5.14062 4.34375-5.14062 4.375-5.11719 4.375-5.07812 4.375-5.04688 4.35938-5 4.32812-4.9375 4.30469-4.88281 4.29688-4.76562 4.29688-4.57812L6.23438-4.57812 7.39062-4.59375C7.42969-4.59375 7.45312-4.57031 7.45312-4.53125L7.4375-4.20312 7.4375-3.96875ZM4.09375-5.8125C4.09375-5.76953 4.07031-5.75 4.03125-5.75L3.14062-5.76562 2.85938-5.76562C2.95312-5.59766 3.05469-5.375 3.17188-5.09375 3.17188-5.08203 3.17188-5.07812 3.17188-5.07812 3.17188-5.04688 3.14453-5.01953 3.09375-5L2.84375-4.92188C2.80078-4.91016 2.77344-4.90625 2.76562-4.90625 2.73438-4.90625 2.71094-4.92578 2.70312-4.96875 2.60938-5.26953 2.5-5.53516 2.375-5.76562L1.625-5.76562C1.4375-5.48438 1.20703-5.21875 0.9375-4.96875 0.882813-4.92578 0.847656-4.90625 0.828125-4.90625 0.804688-4.90625 0.765625-4.92578 0.703125-4.96875 0.617188-5.05078 0.53125-5.10938 0.4375-5.14062 0.925781-5.54688 1.29688-6.01953 1.54688-6.5625 1.59766-6.65625 1.63281-6.76562 1.65625-6.89062 1.80078-6.86719 1.95312-6.83594 2.10938-6.79688 2.16016-6.77344 2.1875-6.75 2.1875-6.71875 2.1875-6.6875 2.17188-6.64844 2.14062-6.60938 2.09766-6.57812 2.05078-6.50781 2-6.40625 1.98828-6.375 1.96875-6.33203 1.9375-6.28125 1.90625-6.22656 1.88281-6.1875 1.875-6.15625L3.14062-6.15625 4.03125-6.17188C4.07031-6.17188 4.09375-6.14844 4.09375-6.10938ZM7.71875-5.8125C7.71875-5.76953 7.69531-5.75 7.65625-5.75L6.625-5.76562 6.0625-5.76562C6.16406-5.59766 6.28125-5.375 6.40625-5.09375 6.40625-5.08203 6.40625-5.07031 6.40625-5.0625 6.40625-5.03906 6.37891-5.01953 6.32812-5L6.09375-4.9375C6.0625-4.92578 6.03516-4.92188 6.01562-4.92188 5.99219-4.92188 5.97266-4.9375 5.95312-4.96875 5.83594-5.28906 5.71875-5.55469 5.59375-5.76562L4.8125-5.76562C4.75-5.64844 4.64453-5.48828 4.5-5.28125 4.44531-5.21875 4.41016-5.1875 4.39062-5.1875 4.36719-5.1875 4.32812-5.21094 4.26562-5.26562 4.17969-5.31641 4.08594-5.35156 3.98438-5.375 4.28516-5.75 4.51562-6.14453 4.67188-6.5625 4.70312-6.64453 4.73438-6.75781 4.76562-6.90625 4.92188-6.88281 5.06641-6.85156 5.20312-6.8125 5.27344-6.80078 5.3125-6.77344 5.3125-6.73438 5.3125-6.70312 5.28516-6.66406 5.23438-6.625 5.21094-6.60156 5.17188-6.53125 5.10938-6.40625 5.05469-6.28125 5.02344-6.19531 5.01562-6.15625L6.625-6.15625 7.65625-6.17188C7.69531-6.17188 7.71875-6.14844 7.71875-6.10938Z" id="path82"/></g><g id="glyph-1-6"><path d="M7.9375 0.09375C7.9375 0.144531 7.92188 0.171875 7.89062 0.171875L6.71875 0.15625 3.6875 0.15625 2.51562 0.171875C2.47266 0.171875 2.45312 0.144531 2.45312 0.09375L2.45312-0.265625C2.45312-0.304688 2.47266-0.328125 2.51562-0.328125L3.6875-0.3125 5.09375-0.3125 5.09375-1.39062 4.46875-1.39062 3.39062-1.375C3.33594-1.375 3.3125-1.39453 3.3125-1.4375L3.3125-1.79688C3.3125-1.83594 3.33594-1.85938 3.39062-1.85938L4.46875-1.84375 5.09375-1.84375 5.09375-2.78125 4.46875-2.78125 3.39062-2.76562C3.33594-2.76562 3.3125-2.78125 3.3125-2.8125L3.32812-3.73438 3.32812-5.39062 3.3125-6.28125C3.3125-6.33203 3.33594-6.35938 3.39062-6.35938L4.46875-6.34375 6.29688-6.34375 7.375-6.35938C7.41406-6.35938 7.4375-6.33203 7.4375-6.28125L7.42188-5.39062 7.42188-3.73438 7.4375-2.8125C7.4375-2.78125 7.41406-2.76562 7.375-2.76562L6.29688-2.78125 5.57812-2.78125 5.57812-1.84375 6.34375-1.84375 7.42188-1.85938C7.47266-1.85938 7.5-1.83594 7.5-1.79688L7.5-1.4375C7.5-1.39453 7.47266-1.375 7.42188-1.375L6.34375-1.39062 5.57812-1.39062 5.57812-0.3125 6.71875-0.3125 7.89062-0.328125C7.92188-0.328125 7.9375-0.304688 7.9375-0.265625ZM6.95312-3.20312 6.95312-4.375 5.57812-4.375 5.57812-3.20312ZM6.95312-4.78125 6.95312-5.90625 5.57812-5.90625 5.57812-4.78125ZM5.09375-3.20312 5.09375-4.375 3.79688-4.375 3.79688-3.20312ZM5.09375-4.78125 5.09375-5.90625 3.79688-5.90625 3.79688-4.78125ZM3.07812-2.21875C3.06641-2.13281 3.0625-2.03125 3.0625-1.90625 3.0625-1.86328 3.0625-1.83594 3.0625-1.82812 3.0625-1.76562 3.01953-1.70312 2.9375-1.64062 2.39453-1.34766 1.78125-1.06641 1.09375-0.796875 0.925781-0.734375 0.828125-0.6875 0.796875-0.65625 0.742188-0.625 0.707031-0.609375 0.6875-0.609375 0.644531-0.609375 0.613281-0.632813 0.59375-0.6875 0.539063-0.820313 0.492188-0.976563 0.453125-1.15625 0.671875-1.1875 0.925781-1.25391 1.21875-1.35938L1.5625-1.5 1.5625-3.5625 1.4375-3.5625 0.703125-3.53125C0.660156-3.53125 0.640625-3.55469 0.640625-3.60938L0.640625-3.95312C0.640625-3.99219 0.660156-4.01562 0.703125-4.01562L1.4375-4 1.5625-4 1.5625-5.76562 1.375-5.76562 0.578125-5.75C0.535156-5.75 0.515625-5.76953 0.515625-5.8125L0.515625-6.17188C0.515625-6.21094 0.535156-6.23438 0.578125-6.23438L1.375-6.21875 2.21875-6.21875 3.01562-6.23438C3.05469-6.23438 3.07812-6.21094 3.07812-6.17188L3.07812-5.8125C3.07812-5.76953 3.05469-5.75 3.01562-5.75L2.21875-5.76562 2.04688-5.76562 2.04688-4 2.14062-4 2.89062-4.01562C2.92188-4.01562 2.9375-3.99219 2.9375-3.95312L2.9375-3.60938C2.9375-3.55469 2.92188-3.53125 2.89062-3.53125L2.14062-3.5625 2.04688-3.5625 2.04688-1.70312C2.39062-1.84766 2.73438-2.01953 3.07812-2.21875Z" id="path85"/></g><g id="glyph-1-7"><path d="M3-3.84375 0.46875-3.84375 0.46875-4.375 5.70312-4.375 5.70312-3.84375 3.64062-3.84375C3.62891-3.17578 3.60156-2.67188 3.5625-2.32812 3.51953-2.02344 3.45312-1.76562 3.35938-1.54688 3.03516-0.742188 2.37891-0.109375 1.39062 0.359375L0.96875-0.109375C1.875-0.484375 2.47266-1.03516 2.76562-1.76562 2.91016-2.11719 2.98828-2.8125 3-3.84375ZM4.54688-6.79688 4.96875-6.95312C5.17578-6.59766 5.37891-6.13281 5.57812-5.5625L5.125-5.375C4.96875-5.90625 4.77344-6.37891 4.54688-6.79688ZM0.953125-6.17188 4.48438-6.17188 4.48438-5.64062 0.953125-5.64062ZM5.46875-7.0625 5.875-7.21875C6.09375-6.86328 6.28906-6.41016 6.46875-5.85938L6.03125-5.6875C5.86328-6.23828 5.67578-6.69531 5.46875-7.0625Z" id="path88"/></g><g id="glyph-1-8"><path d="M3.8125-2.39062C3.3125-2.81641 2.74219-3.20312 2.10938-3.54688L2.45312-3.98438C3.22266-3.57812 3.78516-3.23438 4.14062-2.95312 4.45312-3.60938 4.67578-4.39844 4.8125-5.32812L2.51562-5.32812C2.09766-4.30469 1.54688-3.48828 0.859375-2.875L0.375-3.20312C1.33203-4.11719 1.97266-5.27344 2.29688-6.67188L2.92188-6.51562C2.87891-6.33594 2.81641-6.125 2.73438-5.875L5.59375-5.875C5.3125-4.05078 4.81641-2.66016 4.10938-1.70312 3.47266-0.835938 2.55078-0.148438 1.34375 0.359375L0.953125-0.09375C2.22266-0.625 3.17578-1.39062 3.8125-2.39062Z" id="path91"/></g><g id="glyph-1-9"><path d="M4.45312-6.17188 4.875-6.34375C5.03125-6.0625 5.23438-5.59766 5.48438-4.95312L5.04688-4.76562C4.84766-5.35938 4.64844-5.82812 4.45312-6.17188ZM5.375-6.46875 5.78125-6.60938C6-6.26562 6.19531-5.8125 6.375-5.25L5.95312-5.07812C5.77344-5.62891 5.58203-6.09375 5.375-6.46875ZM0.40625-1.8125C1.10156-3.11328 1.6875-4.28516 2.15625-5.32812 2.28125-5.59766 2.45312-5.73438 2.67188-5.73438 2.91016-5.73438 3.10938-5.625 3.26562-5.40625 3.64062-4.84375 4.19531-4.01953 4.9375-2.9375 5.64453-1.90625 6.16016-1.14844 6.48438-0.671875L5.95312-0.25C5.20312-1.34375 4.17969-2.89062 2.89062-4.89062 2.85938-4.94141 2.81641-4.96875 2.76562-4.96875 2.70312-4.96875 2.65625-4.92969 2.625-4.85938 2.14453-3.83594 1.59375-2.71875 0.96875-1.5Z" id="path94"/></g><g id="glyph-1-10"><path d="M4.78125 0 3.82812 0 1.60938-2.64062C1.52344-2.74219 1.47266-2.8125 1.45312-2.84375L1.4375-2.84375 1.4375 0 0.75 0 0.75-5.78125 1.4375-5.78125 1.4375-3.0625 1.45312-3.0625C1.48438-3.125 1.53516-3.19141 1.60938-3.26562L3.76562-5.78125 4.60938-5.78125 2.125-3Z" id="path97"/></g><g id="glyph-1-11"><path d="M3.42188 1.20312 0 1.20312 0 0.71875 3.42188 0.71875Z" id="path100"/></g><g id="glyph-1-12"><path d="M0.484375-0.234375 0.484375-1.03125C0.578125-0.945313 0.6875-0.875 0.8125-0.8125 0.9375-0.75 1.07031-0.691406 1.21875-0.640625 1.36328-0.597656 1.50391-0.566406 1.64062-0.546875 1.78516-0.523438 1.91406-0.515625 2.03125-0.515625 2.44531-0.515625 2.75781-0.585938 2.96875-0.734375 3.17578-0.890625 3.28125-1.11328 3.28125-1.40625 3.28125-1.5625 3.24219-1.69531 3.17188-1.8125 3.10938-1.92578 3.01562-2.03125 2.89062-2.125 2.77344-2.22656 2.63281-2.32031 2.46875-2.40625 2.30078-2.48828 2.11719-2.58203 1.92188-2.6875 1.72266-2.78906 1.53516-2.89453 1.35938-3 1.19141-3.10156 1.03906-3.21875 0.90625-3.34375 0.78125-3.46875 0.679688-3.60938 0.609375-3.76562 0.535156-3.92969 0.5-4.11719 0.5-4.32812 0.5-4.58594 0.554688-4.81641 0.671875-5.01562 0.785156-5.21094 0.9375-5.375 1.125-5.5 1.3125-5.625 1.52344-5.71875 1.76562-5.78125 2.00391-5.84375 2.25-5.875 2.5-5.875 3.07031-5.875 3.48828-5.80469 3.75-5.67188L3.75-4.90625C3.40625-5.14453 2.96875-5.26562 2.4375-5.26562 2.28906-5.26562 2.14062-5.25 1.98438-5.21875 1.83594-5.1875 1.70703-5.13281 1.59375-5.0625 1.47656-4.98828 1.38281-4.89453 1.3125-4.78125 1.23828-4.67578 1.20312-4.54688 1.20312-4.39062 1.20312-4.24219 1.22656-4.11328 1.28125-4 1.34375-3.89453 1.42578-3.79688 1.53125-3.70312 1.63281-3.61719 1.76562-3.53516 1.92188-3.45312 2.07812-3.36719 2.25391-3.28125 2.45312-3.1875 2.66016-3.08203 2.85938-2.97266 3.04688-2.85938 3.23438-2.74219 3.39453-2.61719 3.53125-2.48438 3.67578-2.34766 3.78516-2.19531 3.85938-2.03125 3.94141-1.86328 3.98438-1.67188 3.98438-1.45312 3.98438-1.17188 3.92578-0.929688 3.8125-0.734375 3.70703-0.535156 3.55469-0.375 3.35938-0.25 3.17188-0.125 2.95312-0.0351563 2.70312 0.015625 2.46094 0.0664063 2.20703 0.09375 1.9375 0.09375 1.84375 0.09375 1.72656 0.0820313 1.59375 0.0625 1.45703 0.0507813 1.31641 0.03125 1.17188 0 1.03516-0.0195313 0.90625-0.0507813 0.78125-0.09375 0.65625-0.132813 0.554688-0.179688 0.484375-0.234375Z" id="path103"/></g><g id="glyph-1-13"><path d="M4.90625 0 4.09375 0 3.125-1.625C3.03906-1.76953 2.95703-1.89453 2.875-2 2.78906-2.10156 2.70312-2.1875 2.60938-2.25 2.52344-2.32031 2.42969-2.375 2.32812-2.40625 2.22266-2.4375 2.10938-2.45312 1.98438-2.45312L1.4375-2.45312 1.4375 0 0.75 0 0.75-5.78125 2.48438-5.78125C2.73438-5.78125 2.96094-5.75 3.17188-5.6875 3.39062-5.625 3.57812-5.52344 3.73438-5.39062 3.89062-5.26562 4.00781-5.10156 4.09375-4.90625 4.1875-4.71875 4.23438-4.49219 4.23438-4.23438 4.23438-4.03516 4.20312-3.85156 4.14062-3.6875 4.08594-3.51953 4.00391-3.36719 3.89062-3.23438 3.77344-3.09766 3.64062-2.98438 3.48438-2.89062 3.32812-2.80469 3.14844-2.73828 2.95312-2.6875L2.95312-2.67188C3.05469-2.62891 3.14062-2.57812 3.20312-2.51562 3.27344-2.46094 3.34375-2.39844 3.40625-2.32812 3.47656-2.25391 3.54688-2.16406 3.60938-2.0625 3.67188-1.96875 3.73828-1.85938 3.8125-1.73438ZM1.4375-5.17188 1.4375-3.0625 2.35938-3.0625C2.52344-3.0625 2.67578-3.08594 2.8125-3.14062 2.95703-3.19141 3.08203-3.26562 3.1875-3.35938 3.30078-3.46094 3.38281-3.58203 3.4375-3.71875 3.5-3.85156 3.53125-4.00781 3.53125-4.1875 3.53125-4.48828 3.42578-4.72656 3.21875-4.90625 3.01953-5.08203 2.73438-5.17188 2.35938-5.17188Z" id="path106"/></g><g id="glyph-1-14"><path d="M5.04688-5.78125 2.90625 0 2.17188 0 0.078125-5.78125 0.828125-5.78125 2.42188-1.20312C2.47266-1.04688 2.51562-0.875 2.54688-0.6875L2.5625-0.6875C2.58203-0.84375 2.625-1.01562 2.6875-1.20312L4.32812-5.78125Z" id="path109"/></g><g id="glyph-1-15"><path d="M6.64062 0 5.96875 0 5.96875-3.875C5.96875-4.17578 5.98828-4.55078 6.03125-5L6.01562-5C5.95312-4.73828 5.89453-4.55078 5.84375-4.4375L3.875 0 3.53125 0 1.5625-4.40625C1.50781-4.53125 1.45312-4.72656 1.39062-5L1.375-5C1.39453-4.76953 1.40625-4.39453 1.40625-3.875L1.40625 0 0.75 0 0.75-5.78125 1.65625-5.78125 3.42188-1.75C3.55469-1.4375 3.64453-1.20703 3.6875-1.0625L3.71875-1.0625C3.83203-1.375 3.92188-1.60938 3.98438-1.76562L5.79688-5.78125 6.64062-5.78125Z" id="path112"/></g><g id="glyph-1-16"><path d="M5.23438 0 4.48438 0 3.875-1.625 1.42188-1.625 0.84375 0 0.09375 0 2.29688-5.78125 3-5.78125ZM3.64062-2.23438 2.73438-4.6875C2.70312-4.76953 2.67578-4.89844 2.65625-5.07812L2.64062-5.07812C2.60938-4.91016 2.57812-4.78125 2.54688-4.6875L1.64062-2.23438Z" id="path115"/></g><g id="glyph-1-17"><path d="M5.42188 0 4.57812 0 1.60938-4.60938C1.53516-4.72266 1.47266-4.84375 1.42188-4.96875L1.40625-4.96875C1.42578-4.84375 1.4375-4.57812 1.4375-4.17188L1.4375 0 0.75 0 0.75-5.78125 1.64062-5.78125 4.53125-1.25C4.64453-1.0625 4.72266-0.929688 4.76562-0.859375L4.78125-0.859375C4.75-1.02344 4.73438-1.30469 4.73438-1.70312L4.73438-5.78125 5.42188-5.78125Z" id="path118"/></g><g id="glyph-1-18"><path d="M7.03125-3.14062 7.01562-2.17188 7.01562-0.1875C7.01562 0.09375 6.95703 0.273438 6.84375 0.359375 6.70703 0.460938 6.46875 0.515625 6.125 0.515625 6.08203 0.515625 6.05078 0.515625 6.03125 0.515625 5.94531 0.515625 5.89453 0.503906 5.875 0.484375 5.86328 0.472656 5.84375 0.425781 5.8125 0.34375 5.78125 0.226563 5.72266 0.125 5.64062 0.03125 5.82812 0.0390625 6.01562 0.046875 6.20312 0.046875 6.35938 0.046875 6.45703 0.0195313 6.5-0.03125 6.53125-0.0703125 6.54688-0.144531 6.54688-0.25L6.54688-0.84375 3.85938-0.84375 3.85938-0.53125 3.875 0.515625C3.875 0.554688 3.84766 0.578125 3.79688 0.578125L3.4375 0.578125C3.39453 0.578125 3.375 0.554688 3.375 0.515625L3.39062-0.515625 3.39062-2.21875 3.375-3.14062C3.375-3.17969 3.39453-3.20312 3.4375-3.20312L4.57812-3.1875 6-3.1875 6.96875-3.20312C7.00781-3.20312 7.03125-3.17969 7.03125-3.14062ZM6.54688-1.23438 6.54688-1.8125 3.85938-1.8125 3.85938-1.23438ZM6.54688-2.20312 6.54688-2.79688 3.85938-2.79688 3.85938-2.20312ZM7.78125-3.73438C7.78125-3.69141 7.76562-3.67188 7.73438-3.67188L6.60938-3.6875 4.09375-3.6875 2.96875-3.67188C2.92578-3.67188 2.90625-3.69141 2.90625-3.73438L2.90625-4.03125C2.90625-4.07031 2.92578-4.09375 2.96875-4.09375L4.09375-4.07812 4.9375-4.07812 4.9375-4.67188 4.375-4.67188 3.39062-4.64062C3.33594-4.64062 3.3125-4.66406 3.3125-4.71875L3.3125-4.98438C3.3125-5.02344 3.33594-5.04688 3.39062-5.04688L4.375-5.03125 4.9375-5.03125 4.9375-5.59375 4.23438-5.59375 3.1875-5.57812C3.14453-5.57812 3.125-5.59766 3.125-5.64062L3.125-5.92188C3.125-5.96094 3.14453-5.98438 3.1875-5.98438L4.23438-5.96875 4.9375-5.96875C4.9375-6.34375 4.91406-6.64453 4.875-6.875 5.11328-6.875 5.28906-6.86328 5.40625-6.84375 5.46875-6.83203 5.5-6.80469 5.5-6.76562 5.5-6.73438 5.48438-6.67969 5.45312-6.60938 5.42188-6.52344 5.40625-6.3125 5.40625-5.96875L6.35938-5.96875 7.42188-5.98438C7.46094-5.98438 7.48438-5.96094 7.48438-5.92188L7.48438-5.64062C7.48438-5.59766 7.46094-5.57812 7.42188-5.57812L6.35938-5.59375 5.40625-5.59375 5.40625-5.03125 6.125-5.03125 7.10938-5.04688C7.14844-5.04688 7.17188-5.02344 7.17188-4.98438L7.17188-4.71875C7.17188-4.66406 7.14844-4.64062 7.10938-4.64062L6.125-4.67188 5.40625-4.67188 5.40625-4.07812 6.60938-4.07812 7.73438-4.09375C7.76562-4.09375 7.78125-4.07031 7.78125-4.03125ZM2.0625-6.71875C2.0625-6.70703 2.05078-6.66016 2.03125-6.57812 1.98828-6.46094 1.96875-6.17578 1.96875-5.71875L1.96875-0.9375 1.98438 0.515625C1.98438 0.554688 1.96094 0.578125 1.92188 0.578125L1.53125 0.578125C1.48828 0.578125 1.46875 0.554688 1.46875 0.515625L1.48438-0.921875 1.48438-5.70312C1.48438-6.21094 1.45703-6.59375 1.40625-6.84375 1.61328-6.83203 1.79688-6.81641 1.95312-6.79688 2.02344-6.78516 2.0625-6.75781 2.0625-6.71875ZM1.14062-4.89062C1.08594-4.20312 0.972656-3.64062 0.796875-3.20312 0.785156-3.17188 0.769531-3.15625 0.75-3.15625 0.738281-3.15625 0.710938-3.16406 0.671875-3.1875L0.46875-3.26562C0.394531-3.29688 0.359375-3.31641 0.359375-3.32812 0.359375-3.34766 0.363281-3.375 0.375-3.40625 0.5625-3.83203 0.671875-4.36328 0.703125-5 0.703125-5.03125 0.71875-5.04688 0.75-5.04688 0.757813-5.04688 0.785156-5.03906 0.828125-5.03125L1.04688-4.98438C1.10938-4.96094 1.14062-4.94141 1.14062-4.92188 1.14062-4.92188 1.14062-4.91406 1.14062-4.90625 1.14062-4.89453 1.14062-4.89062 1.14062-4.89062ZM2.875-4.04688C2.875-4.02344 2.875-4.01562 2.875-4.01562 2.875-3.98438 2.84375-3.95703 2.78125-3.9375L2.59375-3.875C2.53906-3.85156 2.50781-3.84375 2.5-3.84375 2.46875-3.84375 2.45312-3.85938 2.45312-3.89062 2.39062-4.28516 2.28906-4.66406 2.15625-5.03125 2.14453-5.05078 2.14062-5.06641 2.14062-5.07812 2.14062-5.09766 2.17578-5.11719 2.25-5.14062L2.4375-5.20312C2.45703-5.20312 2.47656-5.20312 2.5-5.20312 2.51953-5.20312 2.53516-5.19141 2.54688-5.17188 2.67969-4.81641 2.78906-4.44141 2.875-4.04688Z" id="path121"/></g><g id="glyph-1-19"><path d="M7.95312 0.125C7.85938 0.21875 7.78516 0.320313 7.73438 0.4375 7.69141 0.507813 7.65625 0.546875 7.625 0.546875 7.61328 0.546875 7.58203 0.53125 7.53125 0.5 7.03125 0.125 6.60938-0.265625 6.26562-0.671875 6.00391-0.285156 5.70312 0.078125 5.35938 0.421875 5.30469 0.472656 5.26953 0.5 5.25 0.5 5.22656 0.5 5.19531 0.460938 5.15625 0.390625 5.08203 0.285156 5.00391 0.195313 4.92188 0.125 5.33594-0.25 5.6875-0.644531 5.96875-1.0625 5.53906-1.67578 5.22266-2.4375 5.01562-3.34375L4.78125-3.34375 4.78125-1.17188 4.79688 0.515625C4.79688 0.554688 4.77344 0.578125 4.73438 0.578125L4.375 0.578125C4.32031 0.578125 4.29688 0.554688 4.29688 0.515625L4.3125-1.125 4.3125-4.65625 4.29688-6.34375C4.29688-6.38281 4.32031-6.40625 4.375-6.40625L5.375-6.39062 6.5625-6.39062 7.5-6.40625C7.55078-6.40625 7.57812-6.37891 7.57812-6.32812 7.55469-6.14062 7.53906-5.99219 7.53125-5.89062 7.48828-5.36719 7.4375-5.01953 7.375-4.84375 7.32031-4.66406 7.22266-4.53906 7.07812-4.46875 6.96094-4.40625 6.80469-4.375 6.60938-4.375 6.50391-4.375 6.32031-4.37891 6.0625-4.39062 5.98828-4.39062 5.94531-4.39844 5.9375-4.42188 5.91406-4.42969 5.89844-4.46875 5.89062-4.53125 5.86719-4.65625 5.83594-4.75781 5.79688-4.84375 6.07812-4.8125 6.32812-4.79688 6.54688-4.79688 6.67969-4.79688 6.78125-4.82031 6.84375-4.875 6.89453-4.92578 6.9375-5.01562 6.96875-5.14062 7.01953-5.32812 7.05078-5.59766 7.0625-5.95312L4.78125-5.95312 4.78125-3.76562 6.78125-3.76562C6.86328-3.76562 6.92969-3.77344 6.98438-3.79688 7.02344-3.81641 7.05469-3.82812 7.07812-3.82812 7.11719-3.82812 7.19141-3.77344 7.29688-3.67188 7.39844-3.57812 7.45312-3.50781 7.45312-3.46875 7.45312-3.42578 7.4375-3.39453 7.40625-3.375 7.35156-3.33203 7.30469-3.22266 7.26562-3.04688 7.04688-2.25391 6.79688-1.60156 6.51562-1.09375 6.85938-0.675781 7.33594-0.269531 7.95312 0.125ZM6.85938-3.34375 5.4375-3.34375C5.63281-2.59375 5.89453-1.97656 6.21875-1.5 6.45703-1.96875 6.67188-2.58203 6.85938-3.34375ZM4.07812-2.40625C4.07812-2.36328 4.05469-2.34375 4.01562-2.34375L3-2.35938 2.59375-2.35938 2.59375-1.42188 2.95312-1.42188 3.89062-1.4375C3.92969-1.4375 3.95312-1.41406 3.95312-1.375L3.95312-1.0625C3.95312-1.01953 3.92969-1 3.89062-1L2.95312-1.01562 2.59375-1.01562 2.59375 0.53125C2.59375 0.570313 2.57031 0.59375 2.53125 0.59375L2.15625 0.59375C2.11328 0.59375 2.09375 0.570313 2.09375 0.53125L2.10938-0.34375 2.10938-1.01562 1.67188-1.01562 0.734375-1C0.691406-1 0.671875-1.01953 0.671875-1.0625L0.671875-1.375C0.671875-1.41406 0.691406-1.4375 0.734375-1.4375L1.67188-1.42188 2.10938-1.42188 2.10938-2.35938 1.54688-2.35938 0.53125-2.34375C0.5-2.34375 0.484375-2.36328 0.484375-2.40625L0.484375-2.70312C0.484375-2.74219 0.5-2.76562 0.53125-2.76562L1.54688-2.75 2.64062-2.75C2.75391-2.97656 2.875-3.28125 3-3.65625 3.03125-3.75 3.05469-3.86328 3.07812-4 3.22266-3.97656 3.36719-3.9375 3.51562-3.875 3.56641-3.85156 3.59375-3.82812 3.59375-3.79688 3.59375-3.76562 3.57812-3.73828 3.54688-3.71875 3.50391-3.67578 3.46875-3.61719 3.4375-3.54688 3.30078-3.25391 3.17578-2.98828 3.0625-2.75L4.01562-2.76562C4.05469-2.76562 4.07812-2.74219 4.07812-2.70312ZM4.0625-4.17188C4.0625-4.12891 4.03906-4.10938 4-4.10938L3-4.125 1.54688-4.125 0.546875-4.10938C0.503906-4.10938 0.484375-4.12891 0.484375-4.17188L0.484375-4.48438C0.484375-4.52344 0.503906-4.54688 0.546875-4.54688L1.54688-4.53125 2.10938-4.53125 2.10938-5.39062 1.73438-5.39062 0.8125-5.375C0.769531-5.375 0.75-5.39844 0.75-5.45312L0.75-5.76562C0.75-5.79688 0.769531-5.8125 0.8125-5.8125L1.73438-5.79688 2.10938-5.79688 2.10938-6.01562C2.10938-6.37891 2.08594-6.65625 2.04688-6.84375 2.26562-6.84375 2.44141-6.82812 2.57812-6.79688 2.64844-6.78516 2.6875-6.76562 2.6875-6.73438 2.6875-6.71094 2.67188-6.66016 2.64062-6.57812 2.60938-6.52344 2.59375-6.36719 2.59375-6.10938L2.59375-5.79688 2.875-5.79688 3.79688-5.8125C3.83594-5.8125 3.85938-5.79688 3.85938-5.76562L3.85938-5.45312C3.85938-5.39844 3.83594-5.375 3.79688-5.375L2.875-5.39062 2.59375-5.39062 2.59375-4.53125 3-4.53125 4-4.54688C4.03906-4.54688 4.0625-4.52344 4.0625-4.48438ZM1.875-3.0625C1.875-3.05078 1.875-3.03906 1.875-3.03125 1.875-3.00781 1.84375-2.98438 1.78125-2.95312L1.59375-2.89062C1.55078-2.87891 1.51953-2.875 1.5-2.875 1.47656-2.875 1.46094-2.89062 1.45312-2.92188 1.37891-3.19141 1.27344-3.47656 1.14062-3.78125 1.12891-3.80078 1.125-3.81641 1.125-3.82812 1.125-3.84766 1.14844-3.86719 1.20312-3.89062L1.40625-3.95312C1.4375-3.96094 1.45703-3.96875 1.46875-3.96875 1.48828-3.96875 1.50781-3.95312 1.53125-3.92188 1.65625-3.67188 1.76953-3.38281 1.875-3.0625Z" id="path124"/></g><g id="glyph-1-20"><path d="M6.23438-1.53125C6.23438-1.48828 6.20703-1.46875 6.15625-1.46875L5.07812-1.48438 3.17188-1.48438 2.09375-1.46875C2.03906-1.46875 2.01562-1.48828 2.01562-1.53125L2.03125-2.10938 2.03125-2.625 2.01562-3.20312C2.01562-3.24219 2.03906-3.26562 2.09375-3.26562L3.17188-3.25 5.07812-3.25 6.15625-3.26562C6.20703-3.26562 6.23438-3.24219 6.23438-3.20312L6.21875-2.625 6.21875-2.10938ZM5.71875-1.875 5.71875-2.84375 2.53125-2.84375 2.53125-1.875ZM7.90625-3.53125C7.82031-3.44531 7.75391-3.34766 7.70312-3.23438 7.64844-3.14844 7.61328-3.10938 7.59375-3.10938 7.57031-3.10938 7.53125-3.125 7.46875-3.15625 6.60156-3.53906 5.89844-3.96094 5.35938-4.42188 4.82812-4.87891 4.39844-5.39844 4.07812-5.98438 3.67188-5.31641 3.20312-4.75781 2.67188-4.3125 2.17188-3.88281 1.53906-3.48438 0.78125-3.10938 0.71875-3.07812 0.675781-3.0625 0.65625-3.0625 0.625-3.0625 0.582031-3.10938 0.53125-3.20312 0.488281-3.28516 0.421875-3.36719 0.328125-3.45312 1.06641-3.77344 1.69141-4.13281 2.20312-4.53125 1.89844-4.84375 1.58203-5.11719 1.25-5.35938 1.22656-5.36719 1.21875-5.37891 1.21875-5.39062 1.21875-5.41016 1.23438-5.4375 1.26562-5.46875L1.46875-5.64062C1.48828-5.67188 1.50781-5.6875 1.53125-5.6875 1.53906-5.6875 1.55469-5.67969 1.57812-5.67188 1.89844-5.44141 2.22656-5.16016 2.5625-4.82812 2.94531-5.17969 3.29688-5.60156 3.60938-6.09375L2.42188-6.09375 1.57812-6.07812C1.52344-6.07812 1.5-6.09766 1.5-6.14062L1.5-6.46875C1.5-6.50781 1.52344-6.53125 1.57812-6.53125L2.42188-6.51562 3.5625-6.51562 4.23438-6.53125C4.27344-6.53125 4.3125-6.5 4.34375-6.4375 4.4375-6.21875 4.53516-6.03125 4.64062-5.875 4.73438-5.72656 4.85156-5.56641 5-5.39062 5.26953-5.62891 5.49219-5.86328 5.67188-6.09375 5.76562-6.20703 5.82812-6.3125 5.85938-6.40625 6.01562-6.33203 6.14844-6.25 6.26562-6.15625 6.31641-6.125 6.34375-6.09375 6.34375-6.0625 6.34375-6.01953 6.3125-5.98828 6.25-5.96875 6.17578-5.9375 6.09375-5.86719 6-5.76562 5.76953-5.52344 5.53516-5.29688 5.29688-5.07812 5.48438-4.89844 5.6875-4.72656 5.90625-4.5625 6.15625-4.76953 6.42188-5.02344 6.70312-5.32812 6.79688-5.44141 6.86719-5.55078 6.92188-5.65625 7.09766-5.55078 7.22656-5.46094 7.3125-5.39062 7.36328-5.34766 7.39062-5.31641 7.39062-5.29688 7.37891-5.24219 7.34375-5.20703 7.28125-5.1875 7.20703-5.15625 7.125-5.09766 7.03125-5.01562 6.78906-4.77344 6.53516-4.54688 6.26562-4.32812 6.72266-4.03516 7.26953-3.76953 7.90625-3.53125ZM7.71875 0.265625C7.71875 0.304688 7.69531 0.328125 7.65625 0.328125L6.5625 0.3125 1.70312 0.3125 0.625 0.328125C0.570313 0.328125 0.546875 0.304688 0.546875 0.265625L0.546875-0.09375C0.546875-0.132813 0.570313-0.15625 0.625-0.15625L1.70312-0.140625 4.67188-0.140625C4.80469-0.367188 4.9375-0.609375 5.0625-0.859375 5.14453-1.01562 5.19531-1.17188 5.21875-1.32812 5.40625-1.26562 5.56641-1.19531 5.70312-1.125 5.75391-1.10156 5.78125-1.07812 5.78125-1.04688 5.78125-1.01562 5.75391-0.976563 5.70312-0.9375 5.64844-0.894531 5.59375-0.820313 5.53125-0.71875 5.33203-0.382813 5.21875-0.191406 5.1875-0.140625L6.5625-0.140625 7.65625-0.15625C7.69531-0.15625 7.71875-0.132813 7.71875-0.09375ZM5.39062-3.92188C5.39062-3.87891 5.375-3.85938 5.34375-3.85938L4.51562-3.875 3.65625-3.875 2.84375-3.85938C2.80078-3.85938 2.78125-3.87891 2.78125-3.92188L2.78125-4.23438C2.78125-4.28516 2.80078-4.3125 2.84375-4.3125L3.65625-4.29688 4.51562-4.29688 5.34375-4.3125C5.375-4.3125 5.39062-4.28516 5.39062-4.23438ZM3.42188-0.484375C3.42969-0.453125 3.4375-0.4375 3.4375-0.4375 3.4375-0.414063 3.40625-0.390625 3.34375-0.359375L3.125-0.25C3.07031-0.226563 3.03906-0.21875 3.03125-0.21875 3.00781-0.21875 2.99219-0.234375 2.98438-0.265625 2.85938-0.585938 2.72266-0.847656 2.57812-1.04688 2.56641-1.06641 2.5625-1.08203 2.5625-1.09375 2.5625-1.10156 2.59375-1.125 2.65625-1.15625L2.85938-1.25C2.89844-1.26953 2.92969-1.28125 2.95312-1.28125 2.96094-1.28125 2.97656-1.26562 3-1.23438 3.17578-0.984375 3.31641-0.734375 3.42188-0.484375Z" id="path127"/></g><g id="glyph-1-21"><path d="M8.04688-0.3125C7.96094-0.25 7.87891-0.148438 7.79688-0.015625 7.76562 0.0546875 7.73828 0.09375 7.71875 0.09375 7.69531 0.09375 7.66016 0.0703125 7.60938 0.03125 6.70312-0.6875 6.08594-1.62891 5.76562-2.79688L5.76562-2.23438C5.76562-1.78516 5.76953-1.30469 5.78125-0.796875 5.78906-0.453125 5.79688-0.222656 5.79688-0.109375 5.79688 0.0664063 5.78125 0.195313 5.75 0.28125 5.71875 0.363281 5.66406 0.429688 5.59375 0.484375 5.46875 0.566406 5.19531 0.613281 4.78125 0.625 4.69531 0.625 4.64453 0.617188 4.625 0.609375 4.60156 0.585938 4.58594 0.539063 4.57812 0.46875 4.53516 0.320313 4.47656 0.203125 4.40625 0.109375 4.58203 0.128906 4.75781 0.140625 4.9375 0.140625 5.11328 0.140625 5.22266 0.113281 5.26562 0.0625 5.31641 0.03125 5.34375-0.046875 5.34375-0.171875L5.34375-1.3125C4.94531-0.988281 4.50781-0.675781 4.03125-0.375 3.875-0.289063 3.78516-0.226563 3.76562-0.1875 3.73438-0.144531 3.70312-0.125 3.67188-0.125 3.64062-0.125 3.61328-0.140625 3.59375-0.171875 3.5-0.296875 3.41406-0.429688 3.34375-0.578125 3.53125-0.648438 3.67578-0.71875 3.78125-0.78125 4.32031-1.08203 4.84375-1.4375 5.34375-1.84375L5.34375-3.57812 4.625-3.57812 3.51562-3.5625C3.47266-3.5625 3.45312-3.58203 3.45312-3.625L3.45312-3.95312C3.45312-3.99219 3.47266-4.01562 3.51562-4.01562L4.625-4 6.35938-4 6.40625-4.79688 5.01562-4.79688 4.17188-4.78125C4.11719-4.78125 4.09375-4.80078 4.09375-4.84375L4.09375-5.17188C4.09375-5.21094 4.11719-5.23438 4.17188-5.23438L5.01562-5.21875 6.4375-5.21875 6.5-5.95312 4.84375-5.95312 3.92188-5.9375C3.87891-5.9375 3.85938-5.95703 3.85938-6L3.85938-6.34375C3.85938-6.38281 3.87891-6.40625 3.92188-6.40625L4.84375-6.39062 6-6.39062 6.92188-6.40625C6.97266-6.40625 7-6.37891 7-6.32812 6.98828-6.24219 6.97656-6.14062 6.96875-6.01562 6.95703-5.86719 6.94531-5.78516 6.9375-5.76562L6.8125-4 7.84375-4.01562C7.88281-4.01562 7.90625-3.99219 7.90625-3.95312L7.90625-3.625C7.90625-3.58203 7.88281-3.5625 7.84375-3.5625L6.71875-3.57812 5.8125-3.57812C5.95703-3.02344 6.14844-2.52344 6.39062-2.07812 6.64844-2.33594 6.88281-2.61328 7.09375-2.90625 7.1875-3.03906 7.25-3.14844 7.28125-3.23438 7.41406-3.16016 7.53516-3.07812 7.64062-2.98438 7.67969-2.94141 7.70312-2.90625 7.70312-2.875 7.70312-2.84375 7.67188-2.80469 7.60938-2.76562 7.52344-2.71094 7.44141-2.63281 7.35938-2.53125 7.14062-2.25 6.88281-1.97656 6.59375-1.71875 6.96875-1.15625 7.45312-0.6875 8.04688-0.3125ZM3.5-2.90625C3.5-2.86328 3.47266-2.84375 3.42188-2.84375L2.5625-2.85938 2.375-2.85938 2.375-0.578125C2.75-0.710938 3.08203-0.84375 3.375-0.96875 3.34375-0.851563 3.32812-0.75 3.32812-0.65625 3.32812-0.570313 3.31641-0.519531 3.29688-0.5 3.27344-0.476563 3.23438-0.457031 3.17188-0.4375 2.60938-0.21875 1.95703-0.00390625 1.21875 0.203125 1.0625 0.242188 0.957031 0.285156 0.90625 0.328125 0.863281 0.359375 0.828125 0.375 0.796875 0.375 0.742188 0.375 0.710938 0.351563 0.703125 0.3125 0.660156 0.21875 0.609375 0.0664063 0.546875-0.140625 0.753906-0.160156 0.960938-0.195313 1.17188-0.25 1.55469-0.34375 1.80469-0.40625 1.92188-0.4375L1.92188-2.85938 1.59375-2.85938 0.734375-2.84375C0.691406-2.84375 0.671875-2.86328 0.671875-2.90625L0.671875-3.23438C0.671875-3.27344 0.691406-3.29688 0.734375-3.29688L1.59375-3.28125 1.92188-3.28125 1.92188-4.17188 1.85938-4.17188 1.17188-4.15625C1.11719-4.15625 1.09375-4.17969 1.09375-4.23438L1.09375-4.53125C1.09375-4.57031 1.11719-4.59375 1.17188-4.59375L1.85938-4.57812 2.5-4.57812 3.1875-4.59375C3.23828-4.59375 3.26562-4.57031 3.26562-4.53125L3.26562-4.23438C3.26562-4.17969 3.23828-4.15625 3.1875-4.15625L2.5-4.17188 2.375-4.17188 2.375-3.28125 2.5625-3.28125 3.42188-3.29688C3.47266-3.29688 3.5-3.27344 3.5-3.23438ZM3.625-5.26562C3.53906-5.20312 3.47266-5.11328 3.42188-5 3.37891-4.92578 3.34766-4.89062 3.32812-4.89062 3.31641-4.89062 3.27344-4.91406 3.20312-4.96875 2.82812-5.32031 2.50781-5.69141 2.25-6.07812 1.92578-5.54688 1.44141-4.99219 0.796875-4.42188 0.734375-4.37891 0.691406-4.35938 0.671875-4.35938 0.640625-4.35938 0.609375-4.39453 0.578125-4.46875 0.535156-4.59375 0.472656-4.6875 0.390625-4.75 1.04688-5.23828 1.53516-5.77344 1.85938-6.35938 1.95312-6.51562 2.00781-6.66016 2.03125-6.79688 2.21875-6.75391 2.375-6.70703 2.5-6.65625 2.5625-6.64453 2.59375-6.625 2.59375-6.59375 2.59375-6.55078 2.56641-6.51562 2.51562-6.48438L2.45312-6.4375C2.78516-5.97656 3.17578-5.58594 3.625-5.26562ZM1.53125-1.07812C1.53125-1.05469 1.53125-1.03906 1.53125-1.03125 1.53125-1.00781 1.5-0.984375 1.4375-0.953125L1.25-0.875C1.20703-0.863281 1.17969-0.859375 1.17188-0.859375 1.14062-0.859375 1.125-0.875 1.125-0.90625 1.07031-1.35156 0.976563-1.78125 0.84375-2.1875 0.832031-2.20703 0.828125-2.22266 0.828125-2.23438 0.828125-2.25391 0.863281-2.27344 0.9375-2.29688L1.10938-2.375C1.14844-2.38281 1.17578-2.39062 1.1875-2.39062 1.19531-2.39062 1.21094-2.375 1.23438-2.34375 1.36719-1.94531 1.46875-1.52344 1.53125-1.07812ZM3.51562-2.26562C3.51562-2.23438 3.49219-2.19531 3.45312-2.15625 3.39844-2.11328 3.35938-2.03516 3.32812-1.92188 3.23438-1.64062 3.14453-1.39844 3.0625-1.20312 3.03125-1.12891 3.00391-1.09375 2.98438-1.09375 2.97266-1.09375 2.94141-1.10156 2.89062-1.125 2.80469-1.15625 2.72266-1.17969 2.64062-1.20312 2.76562-1.48438 2.86719-1.80469 2.95312-2.17188 2.98438-2.27344 3-2.37891 3-2.48438 3.16406-2.44141 3.3125-2.39453 3.4375-2.34375 3.48828-2.3125 3.51562-2.28516 3.51562-2.26562ZM4.8125-2.1875C4.82031-2.16406 4.82812-2.14844 4.82812-2.14062 4.82812-2.12891 4.80078-2.10156 4.75-2.0625L4.59375-1.92188C4.53125-1.89062 4.5-1.875 4.5-1.875 4.47656-1.875 4.46094-1.89062 4.45312-1.92188 4.27344-2.31641 4.06641-2.64453 3.82812-2.90625 3.80469-2.92578 3.79688-2.94141 3.79688-2.95312 3.79688-2.97266 3.82031-3 3.875-3.03125L4.04688-3.14062C4.07812-3.17188 4.10156-3.1875 4.125-3.1875 4.13281-3.1875 4.15625-3.17188 4.1875-3.14062 4.41406-2.86719 4.625-2.55078 4.8125-2.1875Z" id="path130"/></g><g id="glyph-1-22"><path d="M7.70312-0.125C7.70312 0.101563 7.64453 0.265625 7.53125 0.359375 7.41406 0.441406 7.25 0.484375 7.03125 0.484375 6.94531 0.484375 6.89453 0.472656 6.875 0.453125 6.85156 0.441406 6.83594 0.394531 6.82812 0.3125 6.80469 0.21875 6.76953 0.132813 6.71875 0.0625 6.83203 0.0703125 6.94141 0.078125 7.04688 0.078125 7.14062 0.078125 7.19531 0.0546875 7.21875 0.015625 7.23828-0.0234375 7.25-0.113281 7.25-0.25L7.25-1.23438 6.60938-1.23438 6.60938-0.625 6.625 0.25C6.625 0.289063 6.59766 0.3125 6.54688 0.3125L6.25 0.3125C6.20703 0.3125 6.1875 0.289063 6.1875 0.25L6.20312-0.625 6.20312-1.23438 5.57812-1.23438 5.57812-0.625 5.59375 0.25C5.59375 0.289063 5.56641 0.3125 5.51562 0.3125L5.21875 0.3125C5.17578 0.3125 5.15625 0.289063 5.15625 0.25L5.17188-0.625 5.17188-1.23438 4.54688-1.23438 4.54688-0.390625 4.5625 0.5C4.5625 0.539063 4.53906 0.5625 4.5 0.5625L4.1875 0.5625C4.13281 0.5625 4.10938 0.539063 4.10938 0.5L4.125-0.390625 4.125-2.125 4.10938-3.03125C4.10938-3.07031 4.13281-3.09375 4.1875-3.09375L5.1875-3.07812 6.64062-3.07812 7.64062-3.09375C7.67969-3.09375 7.70312-3.07031 7.70312-3.03125L7.6875-2.07812 7.6875-1.17188ZM7.25-1.60938 7.25-2.6875 6.60938-2.6875 6.60938-1.60938ZM6.20312-1.60938 6.20312-2.6875 5.57812-2.6875 5.57812-1.60938ZM5.17188-1.60938 5.17188-2.6875 4.54688-2.6875 4.54688-1.60938ZM7.45312-3.79688C7.45312-3.75391 7.42969-3.73438 7.39062-3.73438L6.32812-3.75 4-3.75C3.96875-2.875 3.90625-2.19141 3.8125-1.70312 3.6875-1.01562 3.46875-0.382813 3.15625 0.1875 3.11328 0.257813 3.08203 0.296875 3.0625 0.296875 3.03906 0.296875 3.00391 0.269531 2.95312 0.21875 2.86719 0.144531 2.78125 0.0859375 2.6875 0.046875 3.03125-0.472656 3.26953-1.11719 3.40625-1.89062 3.50781-2.54688 3.5625-3.20312 3.5625-3.85938L3.54688-5.34375C3.54688-5.38281 3.56641-5.40625 3.60938-5.40625L4.67188-5.39062 6.32812-5.39062 7.39062-5.40625C7.42969-5.40625 7.45312-5.38281 7.45312-5.34375L7.4375-4.82812 7.4375-4.32812ZM6.96875-4.17188 6.96875-4.96875 4.01562-4.96875 4.01562-4.42188C4.01562-4.37891 4.00781-4.29688 4-4.17188ZM3.23438-2.67188C3.23438-2.64844 3.23438-2.63281 3.23438-2.625 3.23438-2.59375 3.20312-2.57031 3.14062-2.5625L2.96875-2.51562C2.92578-2.49219 2.89453-2.48438 2.875-2.48438 2.85156-2.48438 2.83594-2.50391 2.82812-2.54688 2.77344-2.75391 2.73828-2.88281 2.71875-2.9375L2.07812-2.875 2.07812-0.65625 2.09375 0.546875C2.09375 0.585938 2.06641 0.609375 2.01562 0.609375L1.65625 0.609375C1.61328 0.609375 1.59375 0.585938 1.59375 0.546875L1.60938-0.65625 1.60938-2.82812C1.31641-2.80469 1.09375-2.78906 0.9375-2.78125 0.78125-2.78125 0.671875-2.75781 0.609375-2.71875 0.578125-2.69531 0.546875-2.6875 0.515625-2.6875 0.484375-2.6875 0.457031-2.72266 0.4375-2.79688 0.394531-3.00391 0.367188-3.14844 0.359375-3.23438 0.472656-3.22266 0.640625-3.21875 0.859375-3.21875L0.90625-3.21875C1.14453-3.53125 1.35938-3.82812 1.54688-4.10938 1.24219-4.48438 0.878906-4.875 0.453125-5.28125 0.421875-5.30078 0.40625-5.31641 0.40625-5.32812 0.40625-5.34766 0.425781-5.37891 0.46875-5.42188L0.609375-5.59375C0.648438-5.63281 0.675781-5.65625 0.6875-5.65625 0.695313-5.65625 0.710938-5.64453 0.734375-5.625L0.984375-5.39062C1.14062-5.62891 1.31641-5.95703 1.51562-6.375 1.61719-6.57031 1.67969-6.73438 1.70312-6.85938 1.89062-6.79688 2.03125-6.73438 2.125-6.67188 2.1875-6.64062 2.21875-6.60938 2.21875-6.57812 2.21875-6.54688 2.19531-6.51562 2.15625-6.48438 2.11328-6.45312 2.06641-6.39062 2.01562-6.29688 1.69141-5.73438 1.44531-5.32812 1.28125-5.07812 1.42578-4.92969 1.60156-4.73828 1.8125-4.5 1.90625-4.64453 2.09766-4.97266 2.39062-5.48438 2.51562-5.70312 2.59375-5.875 2.625-6 2.78125-5.9375 2.92188-5.86719 3.04688-5.79688 3.09766-5.75391 3.125-5.71875 3.125-5.6875 3.125-5.65625 3.09766-5.61719 3.04688-5.57812 2.98438-5.53516 2.89453-5.42188 2.78125-5.23438 2.30078-4.47266 1.84766-3.80469 1.42188-3.23438 1.85938-3.25391 2.25391-3.28125 2.60938-3.3125 2.54688-3.48828 2.47266-3.67188 2.39062-3.85938 2.37891-3.87891 2.375-3.89453 2.375-3.90625 2.375-3.92578 2.40625-3.94531 2.46875-3.96875L2.64062-4.03125C2.67188-4.03906 2.69531-4.04688 2.71875-4.04688 2.73828-4.04688 2.75391-4.03125 2.76562-4 2.95312-3.58203 3.10938-3.14062 3.23438-2.67188ZM7.76562-6.0625C7.76562-6.01953 7.75-6 7.71875-6L6.57812-6.01562 4.34375-6.01562 3.21875-6C3.17578-6 3.15625-6.01953 3.15625-6.0625L3.15625-6.40625C3.15625-6.44531 3.17578-6.46875 3.21875-6.46875L4.34375-6.45312 6.57812-6.45312 7.71875-6.46875C7.75-6.46875 7.76562-6.44531 7.76562-6.40625ZM1.23438-2.03125C1.23438-2.00781 1.22266-1.97266 1.20312-1.92188 1.17969-1.89062 1.16016-1.79688 1.14062-1.64062 1.06641-1.04688 0.953125-0.535156 0.796875-0.109375 0.765625-0.0234375 0.734375 0.015625 0.703125 0.015625 0.679688 0.015625 0.632813-0.0078125 0.5625-0.0625 0.46875-0.113281 0.390625-0.148438 0.328125-0.171875 0.515625-0.617188 0.640625-1.13281 0.703125-1.71875 0.710938-1.80078 0.71875-1.89062 0.71875-1.98438 0.71875-2.04688 0.71875-2.11328 0.71875-2.1875 0.90625-2.15625 1.03906-2.12891 1.125-2.10938 1.19531-2.09766 1.23438-2.07031 1.23438-2.03125ZM3.03125-1.17188C3.03125-1.14062 3.03125-1.125 3.03125-1.125 3.03125-1.08203 3-1.05469 2.9375-1.04688L2.78125-1.01562C2.72656-1.00391 2.69531-1 2.6875-1 2.65625-1 2.64062-1.02344 2.64062-1.07812 2.60938-1.42969 2.53906-1.78516 2.4375-2.14062 2.42578-2.14844 2.42188-2.16016 2.42188-2.17188 2.42188-2.20312 2.45703-2.22656 2.53125-2.25L2.67188-2.28125C2.71094-2.28125 2.73828-2.28125 2.75-2.28125 2.76953-2.28125 2.78516-2.26562 2.79688-2.23438 2.92188-1.87891 3-1.52344 3.03125-1.17188Z" id="path133"/></g><g id="glyph-1-23"><path d="M7.26562-2.54688C7.26562-2.50391 7.23828-2.48438 7.1875-2.48438L6.03125-2.5 2.76562-2.5 1.57812-2.48438C1.53516-2.48438 1.51562-2.50391 1.51562-2.54688L1.53125-3.45312 1.53125-4.4375C1.53125-4.625 1.53516-4.86719 1.54688-5.17188 1.30469-4.91016 1.0625-4.66406 0.8125-4.4375 0.75-4.38281 0.707031-4.35938 0.6875-4.35938 0.664063-4.35938 0.628906-4.39062 0.578125-4.45312 0.515625-4.56641 0.441406-4.65625 0.359375-4.71875 1.02344-5.15625 1.55469-5.71094 1.95312-6.39062 2.06641-6.58594 2.14062-6.75391 2.17188-6.89062 2.35938-6.83594 2.51953-6.78516 2.65625-6.73438 2.70703-6.71094 2.73438-6.67969 2.73438-6.64062 2.73438-6.60938 2.70312-6.57812 2.64062-6.54688 2.60938-6.51562 2.53125-6.41406 2.40625-6.25 2.30078-6.08203 2.22266-5.96875 2.17188-5.90625L4-5.90625C4.11328-6.0625 4.21094-6.23828 4.29688-6.4375 4.36719-6.59375 4.42188-6.73828 4.45312-6.875 4.56641-6.85156 4.72266-6.80469 4.92188-6.73438 4.97266-6.70312 5-6.67188 5-6.64062 5-6.60938 4.97266-6.57812 4.92188-6.54688 4.89844-6.52344 4.85156-6.45312 4.78125-6.32812 4.67578-6.16016 4.58594-6.01953 4.51562-5.90625L5.98438-5.90625 7.125-5.9375C7.16406-5.9375 7.1875-5.91406 7.1875-5.875L7.1875-5.57812C7.1875-5.52344 7.16406-5.5 7.125-5.5L5.98438-5.51562 4.4375-5.51562 4.4375-4.90625 5.59375-4.90625 6.73438-4.92188C6.78516-4.92188 6.8125-4.89844 6.8125-4.85938L6.8125-4.57812C6.8125-4.52344 6.78516-4.5 6.73438-4.5L5.59375-4.53125 4.4375-4.53125 4.4375-3.90625 5.59375-3.90625 6.73438-3.92188C6.78516-3.92188 6.8125-3.89844 6.8125-3.85938L6.8125-3.5625C6.8125-3.51953 6.78516-3.5 6.73438-3.5L5.59375-3.51562 4.4375-3.51562 4.4375-2.89062 6.03125-2.89062 7.1875-2.90625C7.23828-2.90625 7.26562-2.88281 7.26562-2.84375ZM3.98438-2.89062 3.98438-3.51562 2-3.51562 2-2.89062ZM3.98438-3.90625 3.98438-4.53125 2-4.53125 2-3.90625ZM3.98438-4.90625 3.98438-5.51562 2-5.51562 2-4.90625ZM7.84375-0.0625C7.75781 0.0195313 7.6875 0.125 7.625 0.25 7.58203 0.34375 7.53906 0.390625 7.5 0.390625 7.47656 0.390625 7.44141 0.378906 7.39062 0.359375 6.10938 0.015625 5.08594-0.523438 4.32812-1.26562 4.32812-0.773438 4.33594-0.3125 4.35938 0.125 4.36719 0.394531 4.375 0.535156 4.375 0.546875 4.375 0.585938 4.35156 0.609375 4.3125 0.609375L3.90625 0.609375C3.86328 0.609375 3.84375 0.585938 3.84375 0.546875 3.84375 0.515625 3.84375 0.421875 3.84375 0.265625 3.86328-0.234375 3.87891-0.742188 3.89062-1.26562 3.21094-0.585938 2.21094-0.0546875 0.890625 0.328125 0.828125 0.347656 0.785156 0.359375 0.765625 0.359375 0.722656 0.359375 0.679688 0.3125 0.640625 0.21875 0.585938 0.101563 0.523438 0.0078125 0.453125-0.0625 1.67969-0.363281 2.67969-0.8125 3.45312-1.40625L1.8125-1.40625 0.71875-1.39062C0.675781-1.39062 0.65625-1.41016 0.65625-1.45312L0.65625-1.78125C0.65625-1.82031 0.675781-1.84375 0.71875-1.84375L1.8125-1.82812 3.875-1.82812C3.875-2.08594 3.85938-2.27344 3.82812-2.39062 4.06641-2.37891 4.23438-2.36328 4.32812-2.34375 4.39062-2.33203 4.42188-2.3125 4.42188-2.28125 4.42188-2.25781 4.40625-2.22266 4.375-2.17188 4.35156-2.14062 4.34375-2.02344 4.34375-1.82812L6.5-1.82812 7.59375-1.84375C7.63281-1.84375 7.65625-1.82031 7.65625-1.78125L7.65625-1.45312C7.65625-1.41016 7.63281-1.39062 7.59375-1.39062L6.5-1.40625 4.73438-1.40625C5.20312-1.05078 5.69141-0.769531 6.20312-0.5625 6.67188-0.363281 7.21875-0.195313 7.84375-0.0625Z" id="path136"/></g><g id="glyph-1-24"><path d="M0.921875-1.48438C1.25391-1.22266 1.57812-0.921875 1.89062-0.578125 2.19141-0.253906 2.42188 0.0351563 2.57812 0.296875L2.03125 0.6875C1.65625 0.0390625 1.12891-0.550781 0.453125-1.09375Z" id="path139"/></g><g id="glyph-1-25"><path d="M4.42188-4.3125 4.40625-3.17188 4.40625-1.32812 4.42188-0.21875C4.42188 0.0507813 4.35938 0.234375 4.23438 0.328125 4.10938 0.421875 3.78516 0.46875 3.26562 0.46875 3.17969 0.46875 3.12891 0.457031 3.10938 0.4375 3.08594 0.425781 3.07031 0.382813 3.0625 0.3125 3.03125 0.1875 2.97656 0.0703125 2.90625-0.03125 3.14453-0.0195313 3.36719-0.015625 3.57812-0.015625 3.73438-0.015625 3.83203-0.0351563 3.875-0.078125 3.91406-0.109375 3.9375-0.179688 3.9375-0.296875L3.9375-1.375 1.40625-1.375 1.40625-0.609375 1.42188 0.46875C1.42188 0.507813 1.39844 0.53125 1.35938 0.53125L1 0.53125C0.945313 0.53125 0.921875 0.507813 0.921875 0.46875L0.9375-0.609375 0.9375-3.23438 0.921875-4.3125C0.921875-4.35156 0.945313-4.375 1-4.375L1.98438-4.35938 2.40625-4.35938 2.40625-5.64062C2.40625-6.16016 2.38281-6.53125 2.34375-6.75 2.55078-6.73828 2.72656-6.72266 2.875-6.70312 2.94531-6.69141 2.98438-6.66406 2.98438-6.625 2.98438-6.59375 2.96094-6.53516 2.92188-6.45312 2.89844-6.39062 2.89062-6.11719 2.89062-5.64062L2.89062-4.35938 3.35938-4.35938 4.35938-4.375C4.39844-4.375 4.42188-4.35156 4.42188-4.3125ZM3.9375-1.78125 3.9375-2.6875 1.40625-2.6875 1.40625-1.78125ZM3.9375-3.09375 3.9375-3.9375 1.40625-3.9375 1.40625-3.09375ZM7.5625-6.5625C7.5625-6.53125 7.53906-6.47266 7.5-6.39062 7.46875-6.31641 7.45312-6.08203 7.45312-5.6875L7.45312-1.625 7.46875-0.375C7.46875-0.0625 7.39062 0.148438 7.23438 0.265625 7.12891 0.335938 7.00391 0.382813 6.85938 0.40625 6.71094 0.414063 6.46875 0.421875 6.125 0.421875 6.03906 0.421875 5.98828 0.414063 5.96875 0.40625 5.94531 0.382813 5.92578 0.332031 5.90625 0.25 5.86328 0.101563 5.80469-0.015625 5.73438-0.109375 5.97266-0.0859375 6.24219-0.078125 6.54688-0.078125 6.71094-0.078125 6.82031-0.109375 6.875-0.171875 6.9375-0.222656 6.96875-0.328125 6.96875-0.484375L6.96875-5.67188C6.96875-6.12891 6.94531-6.46094 6.90625-6.67188 7.10156-6.66016 7.28516-6.64453 7.45312-6.625 7.52344-6.61328 7.5625-6.59375 7.5625-6.5625ZM5.90625-5.96875C5.90625-5.95703 5.89453-5.91016 5.875-5.82812 5.85156-5.76562 5.84375-5.48438 5.84375-4.98438L5.84375-2.73438 5.85938-1.65625C5.85938-1.61328 5.83203-1.59375 5.78125-1.59375L5.40625-1.59375C5.36328-1.59375 5.34375-1.61328 5.34375-1.65625L5.35938-2.73438 5.35938-4.96875C5.35938-5.51953 5.33594-5.89453 5.29688-6.09375 5.48438-6.08203 5.66016-6.0625 5.82812-6.03125 5.87891-6.03125 5.90625-6.00781 5.90625-5.96875ZM4.57812-6.125C4.57812-6.09375 4.5625-6.0625 4.53125-6.03125 4.48828-6 4.45312-5.94531 4.42188-5.875 4.24219-5.45703 4.0625-5.09375 3.875-4.78125 3.82031-4.70703 3.78516-4.67188 3.76562-4.67188 3.75391-4.67188 3.71094-4.6875 3.64062-4.71875 3.55469-4.76953 3.46875-4.8125 3.375-4.84375 3.625-5.19531 3.82812-5.58594 3.98438-6.01562 4.02344-6.11719 4.05469-6.23828 4.07812-6.375 4.25391-6.3125 4.39453-6.25391 4.5-6.20312 4.55078-6.17969 4.57812-6.15625 4.57812-6.125ZM1.82812-4.96875C1.83594-4.95703 1.84375-4.94531 1.84375-4.9375 1.84375-4.91406 1.8125-4.89062 1.75-4.85938L1.53125-4.76562C1.48828-4.74219 1.46094-4.73438 1.45312-4.73438 1.42969-4.73438 1.41406-4.75 1.40625-4.78125 1.20703-5.28906 0.988281-5.72266 0.75-6.07812 0.726563-6.09766 0.71875-6.11328 0.71875-6.125 0.71875-6.13281 0.75-6.15625 0.8125-6.1875L1.01562-6.29688C1.05469-6.31641 1.08203-6.32812 1.09375-6.32812 1.10156-6.32812 1.11719-6.3125 1.14062-6.28125 1.42188-5.89453 1.64844-5.45703 1.82812-4.96875Z" id="path142"/></g><g id="glyph-1-26"><path d="M3.07812-6.20312C3.07812-6.16016 3.05469-6.125 3.01562-6.09375 2.96094-6.03906 2.91406-5.95312 2.875-5.82812 2.61328-5.17188 2.35156-4.59375 2.09375-4.09375 2.45703-3.65625 2.69531-3.28516 2.8125-2.98438 2.90625-2.74219 2.95312-2.48828 2.95312-2.21875 2.95312-1.53906 2.59375-1.17969 1.875-1.14062 1.78906-1.14062 1.73828-1.14453 1.71875-1.15625 1.70703-1.17578 1.69141-1.22266 1.67188-1.29688 1.64844-1.42969 1.60938-1.53125 1.54688-1.59375 1.60938-1.58203 1.66016-1.57812 1.70312-1.57812 2.23438-1.57812 2.5-1.80469 2.5-2.26562 2.5-2.51562 2.42578-2.78125 2.28125-3.0625 2.14453-3.3125 1.92188-3.64453 1.60938-4.0625 1.95312-4.73828 2.23828-5.41406 2.46875-6.09375L1.3125-6.09375 1.3125-1.21875 1.32812 0.484375C1.32812 0.523438 1.30469 0.546875 1.26562 0.546875L0.875 0.546875C0.832031 0.546875 0.8125 0.523438 0.8125 0.484375L0.828125-1.20312 0.828125-4.76562 0.8125-6.48438C0.8125-6.52344 0.832031-6.54688 0.875-6.54688L1.48438-6.53125 2.45312-6.53125C2.55469-6.53125 2.61719-6.53516 2.64062-6.54688 2.67969-6.55469 2.71094-6.5625 2.73438-6.5625 2.77344-6.5625 2.84375-6.51562 2.9375-6.42188 3.03125-6.31641 3.07812-6.24219 3.07812-6.20312ZM7.65625-2.4375C7.65625-2.39453 7.63281-2.375 7.59375-2.375L6.48438-2.39062 5.48438-2.39062 5.48438-1.26562 5.5-0.203125C5.5 0.0976563 5.42969 0.300781 5.29688 0.40625 5.17188 0.488281 4.85938 0.53125 4.35938 0.53125 4.32812 0.53125 4.30469 0.53125 4.29688 0.53125 4.24219 0.53125 4.20703 0.519531 4.1875 0.5 4.17578 0.476563 4.16406 0.429688 4.15625 0.359375 4.11328 0.234375 4.05469 0.125 3.98438 0.03125 4.17969 0.0507813 4.39453 0.0625 4.625 0.0625 4.78125 0.0625 4.88281 0.0351563 4.9375-0.015625 4.97656-0.0546875 5-0.132813 5-0.25L5-2.39062 4.35938-2.39062 3.25-2.375C3.20703-2.375 3.1875-2.39453 3.1875-2.4375L3.1875-2.76562C3.1875-2.80469 3.20703-2.82812 3.25-2.82812L4.35938-2.8125 5-2.8125 5-3.82812 4.76562-3.82812 3.875-3.8125C3.83203-3.8125 3.8125-3.83594 3.8125-3.89062L3.8125-4.20312C3.8125-4.25391 3.83203-4.28125 3.875-4.28125L4.76562-4.26562 5.79688-4.26562 6.6875-4.28125C6.72656-4.28125 6.75-4.25391 6.75-4.20312L6.75-3.89062C6.75-3.83594 6.72656-3.8125 6.6875-3.8125L5.79688-3.82812 5.48438-3.82812 5.48438-2.8125 6.48438-2.8125 7.59375-2.82812C7.63281-2.82812 7.65625-2.80469 7.65625-2.76562ZM7.92188-4.21875C7.83594-4.15625 7.75781-4.0625 7.6875-3.9375 7.63281-3.85156 7.59766-3.8125 7.57812-3.8125 7.54688-3.8125 7.50391-3.83203 7.45312-3.875 6.52344-4.50781 5.78906-5.23438 5.25-6.04688 4.69531-5.19141 3.96094-4.44531 3.04688-3.8125 2.97266-3.78125 2.92969-3.76562 2.92188-3.76562 2.89844-3.76562 2.86328-3.80078 2.8125-3.875 2.73828-3.97656 2.65625-4.05469 2.5625-4.10938 3.53125-4.69141 4.28906-5.41406 4.84375-6.28125 4.92578-6.41406 4.99219-6.57031 5.04688-6.75 5.22266-6.71875 5.375-6.6875 5.5-6.65625 5.58203-6.63281 5.625-6.60938 5.625-6.57812 5.625-6.54688 5.60156-6.51562 5.5625-6.48438 5.53125-6.46094 5.50781-6.44141 5.5-6.42188 6.08203-5.52344 6.89062-4.78906 7.92188-4.21875ZM4.25-1.57812C4.25-1.54688 4.22266-1.50781 4.17188-1.46875 4.14844-1.44531 4.125-1.41016 4.09375-1.35938 4.05078-1.28516 4.02344-1.24219 4.01562-1.23438 3.73438-0.773438 3.42188-0.378906 3.07812-0.046875 3.01562 0.015625 2.97266 0.046875 2.95312 0.046875 2.94141 0.046875 2.89844 0.0195313 2.82812-0.03125 2.74219-0.101563 2.64844-0.160156 2.54688-0.203125 2.94141-0.535156 3.26953-0.910156 3.53125-1.32812 3.63281-1.51562 3.70703-1.69141 3.75-1.85938 3.86328-1.81641 4-1.75781 4.15625-1.6875 4.21875-1.64453 4.25-1.60938 4.25-1.57812ZM7.79688-0.3125C7.66016-0.238281 7.5625-0.171875 7.5-0.109375 7.4375-0.046875 7.39844-0.015625 7.39062-0.015625 7.37891-0.015625 7.34375-0.046875 7.28125-0.109375 6.85156-0.578125 6.49219-1.07031 6.20312-1.59375 6.19141-1.61328 6.1875-1.62891 6.1875-1.64062 6.1875-1.67188 6.21875-1.70312 6.28125-1.73438L6.48438-1.82812C6.51562-1.84766 6.53516-1.85938 6.54688-1.85938 6.56641-1.85938 6.58594-1.84375 6.60938-1.8125 6.92969-1.25781 7.32812-0.757813 7.79688-0.3125Z" id="path145"/></g><g id="glyph-1-27"><path d="M7.9375-3.60938C7.9375-3.56641 7.91016-3.54688 7.85938-3.54688L6.78125-3.5625 6.07812-3.5625 6.07812-0.9375 6.09375 0.515625C6.09375 0.554688 6.07031 0.578125 6.03125 0.578125L5.625 0.578125C5.58203 0.578125 5.5625 0.554688 5.5625 0.515625L5.57812-0.9375 5.57812-3.5625 4.9375-3.5625 3.85938-3.54688C3.81641-3.54688 3.79688-3.56641 3.79688-3.60938L3.79688-3.98438C3.79688-4.03516 3.81641-4.0625 3.85938-4.0625L4.9375-4.04688 5.57812-4.04688 5.57812-5.71875C5.57812-6.21875 5.55469-6.59375 5.51562-6.84375 5.69141-6.84375 5.87891-6.83203 6.07812-6.8125 6.14062-6.80078 6.17188-6.77344 6.17188-6.73438 6.17188-6.71094 6.16406-6.6875 6.15625-6.65625 6.14453-6.625 6.14062-6.59766 6.14062-6.57812 6.09766-6.46094 6.07812-6.17969 6.07812-5.73438L6.07812-4.04688 6.78125-4.04688 7.85938-4.0625C7.91016-4.0625 7.9375-4.03516 7.9375-3.98438ZM3.4375 0.375C3.4375 0.414063 3.41406 0.4375 3.375 0.4375L3.01562 0.4375C2.97266 0.4375 2.95312 0.414063 2.95312 0.375L2.95312 0.0625 1.45312 0.0625 1.45312 0.53125C1.45312 0.570313 1.42969 0.59375 1.39062 0.59375L1.03125 0.59375C0.976563 0.59375 0.953125 0.570313 0.953125 0.53125L0.96875-0.671875 0.96875-1.1875 0.953125-1.89062C0.953125-1.94141 0.972656-1.96875 1.01562-1.96875L1.78125-1.95312 2.60938-1.95312 3.375-1.96875C3.41406-1.96875 3.4375-1.94141 3.4375-1.89062L3.42188-1.3125 3.42188-0.78125ZM2.95312-0.34375 2.95312-1.54688 1.45312-1.54688 1.45312-0.34375ZM3.8125-4.90625C3.8125-4.85156 3.79688-4.82812 3.76562-4.82812L2.82812-4.84375 1.48438-4.84375 0.546875-4.82812C0.503906-4.82812 0.484375-4.85156 0.484375-4.90625L0.484375-5.25C0.484375-5.28906 0.503906-5.3125 0.546875-5.3125L1.48438-5.29688 2.82812-5.29688 3.76562-5.3125C3.79688-5.3125 3.8125-5.28906 3.8125-5.25ZM3.51562-6.03125C3.51562-5.98828 3.48828-5.96875 3.4375-5.96875L2.67188-5.98438 1.79688-5.98438 1.01562-5.96875C0.972656-5.96875 0.953125-5.98828 0.953125-6.03125L0.953125-6.35938C0.953125-6.39844 0.972656-6.42188 1.01562-6.42188L1.79688-6.40625 2.67188-6.40625 3.4375-6.42188C3.48828-6.42188 3.51562-6.39844 3.51562-6.35938ZM3.35938-3.78125C3.35938-3.73828 3.33203-3.71875 3.28125-3.71875L2.57812-3.73438 1.8125-3.73438 1.09375-3.71875C1.05078-3.71875 1.03125-3.73828 1.03125-3.78125L1.03125-4.10938C1.03125-4.14844 1.05078-4.17188 1.09375-4.17188L1.8125-4.15625 2.57812-4.15625 3.28125-4.17188C3.33203-4.17188 3.35938-4.14844 3.35938-4.10938ZM3.35938-2.67188C3.35938-2.62891 3.33203-2.60938 3.28125-2.60938L2.57812-2.625 1.8125-2.625 1.09375-2.60938C1.05078-2.60938 1.03125-2.62891 1.03125-2.67188L1.03125-3C1.03125-3.03906 1.05078-3.0625 1.09375-3.0625L1.8125-3.04688 2.57812-3.04688 3.28125-3.0625C3.33203-3.0625 3.35938-3.03906 3.35938-3Z" id="path148"/></g><g id="glyph-1-28"><path d="M8-0.328125C7.92578-0.234375 7.875-0.109375 7.84375 0.046875 7.82031 0.128906 7.80469 0.179688 7.79688 0.203125 7.77344 0.210938 7.72266 0.21875 7.64062 0.21875 7.24219 0.25 6.67969 0.265625 5.95312 0.265625 4.67188 0.265625 3.67578-0.0625 2.96875-0.71875 2.75781-0.90625 2.58594-1.09766 2.45312-1.29688 2.05469-0.671875 1.52344-0.09375 0.859375 0.4375 0.796875 0.476563 0.753906 0.5 0.734375 0.5 0.710938 0.5 0.675781 0.460938 0.625 0.390625 0.550781 0.273438 0.46875 0.1875 0.375 0.125 1.125-0.40625 1.72266-1.03516 2.17188-1.76562 1.87891-2.30469 1.66016-2.98828 1.51562-3.8125 1.32812-3.40625 1.08594-2.97656 0.796875-2.53125 0.742188-2.46875 0.710938-2.4375 0.703125-2.4375 0.679688-2.4375 0.648438-2.46875 0.609375-2.53125 0.535156-2.64453 0.457031-2.73828 0.375-2.8125 0.78125-3.36328 1.10156-3.97266 1.34375-4.64062 1.50781-5.08594 1.64453-5.61328 1.75-6.21875 1.78906-6.4375 1.8125-6.61719 1.8125-6.76562 1.8125-6.79688 1.8125-6.82031 1.8125-6.84375 2-6.8125 2.16406-6.77344 2.3125-6.73438 2.375-6.72266 2.40625-6.69141 2.40625-6.64062 2.40625-6.60938 2.39062-6.57031 2.35938-6.53125 2.30469-6.45703 2.26562-6.33594 2.23438-6.17188 2.17188-5.85938 2.10938-5.59375 2.04688-5.375L3.01562-5.375C3.14062-5.375 3.22266-5.38281 3.26562-5.40625 3.32812-5.42578 3.36328-5.4375 3.375-5.4375 3.41406-5.4375 3.48828-5.38281 3.59375-5.28125 3.69531-5.1875 3.75-5.11719 3.75-5.07812 3.75-5.04688 3.73438-5.00781 3.70312-4.96875 3.67188-4.92578 3.64453-4.81641 3.625-4.64062 3.44531-3.48438 3.14062-2.50391 2.70312-1.70312 2.82812-1.50391 2.97266-1.32812 3.14062-1.17188 3.53516-0.796875 4-0.539063 4.53125-0.40625 4.9375-0.289063 5.44531-0.234375 6.0625-0.234375 6.78125-0.234375 7.42578-0.265625 8-0.328125ZM3.15625-4.92188 1.92188-4.92188 1.8125-4.54688C1.95703-3.53516 2.16016-2.75391 2.42188-2.20312 2.80469-2.97266 3.05078-3.87891 3.15625-4.92188ZM7.89062-2.6875C7.86719-2.20703 7.83203-1.875 7.78125-1.6875 7.75-1.55078 7.69531-1.45312 7.625-1.39062 7.48828-1.27344 7.27344-1.21875 6.98438-1.21875 6.66016-1.21875 6.45312-1.24219 6.35938-1.29688 6.21094-1.37891 6.14062-1.57812 6.14062-1.89062L6.14062-5.84375 5.04688-5.84375C5.04688-4.5 4.97656-3.52344 4.84375-2.92188 4.70703-2.27344 4.44141-1.72266 4.04688-1.26562 3.99219-1.20312 3.95703-1.17188 3.9375-1.17188 3.91406-1.17188 3.875-1.19531 3.8125-1.25 3.71875-1.34375 3.61719-1.41016 3.51562-1.45312 3.97266-1.92188 4.26953-2.50391 4.40625-3.20312 4.50781-3.74219 4.5625-4.58594 4.5625-5.73438L4.54688-6.23438C4.54688-6.27344 4.56641-6.29688 4.60938-6.29688L5.28125-6.28125 5.89062-6.28125 6.5625-6.29688C6.60156-6.29688 6.625-6.27344 6.625-6.23438L6.60938-5.125 6.60938-2.01562C6.60938-1.83594 6.62891-1.73438 6.67188-1.70312 6.72266-1.67188 6.82031-1.65625 6.96875-1.65625 7.13281-1.65625 7.25391-1.70312 7.32812-1.79688 7.39844-1.89844 7.44141-2.32031 7.45312-3.0625 7.53516-3 7.64062-2.94141 7.76562-2.89062 7.84766-2.85938 7.89062-2.81641 7.89062-2.76562 7.89062-2.75391 7.89062-2.72656 7.89062-2.6875Z" id="path151"/></g></g></defs><path d="M11 11 131 11C131.656 11 132.307 11.0625 132.953 11.1927 133.594 11.3177 134.219 11.5104 134.828 11.7604 135.432 12.0104 136.01 12.3229 136.557 12.6875 137.104 13.0521 137.604 13.4635 138.073 13.9271 138.536 14.3906 138.948 14.8958 139.312 15.4427 139.677 15.9896 139.99 16.5677 140.24 17.1719 140.49 17.7813 140.682 18.4063 140.807 19.0469 140.938 19.6927 141 20.3438 141 21L141 61C141 61.6563 140.938 62.3073 140.807 62.9531 140.682 63.5938 140.49 64.2188 140.24 64.8281 139.99 65.4323 139.677 66.0104 139.312 66.5573 138.948 67.1042 138.536 67.6042 138.073 68.0729 137.604 68.5365 137.104 68.9479 136.557 69.3125 136.01 69.6771 135.432 69.9896 134.828 70.2396 134.219 70.4896 133.594 70.6823 132.953 70.8073 132.307 70.9375 131.656 71 131 71L11 71C10.3438 71 9.69271 70.9375 9.04688 70.8073 8.40625 70.6823 7.78125 70.4896 7.17188 70.2396 6.56771 69.9896 5.98958 69.6771 5.44271 69.3125 4.89583 68.9479 4.39062 68.5365 3.92708 68.0729 3.46354 67.6042 3.05208 67.1042 2.6875 66.5573 2.32292 66.0104 2.01042 65.4323 1.76042 64.8281 1.51042 64.2188 1.31771 63.5938 1.19271 62.9531 1.0625 62.3073 1 61.6563 1 61L1 21C1 20.3438 1.0625 19.6927 1.19271 19.0469 1.31771 18.4063 1.51042 17.7813 1.76042 17.1719 2.01042 16.5677 2.32292 15.9896 2.6875 15.4427 3.05208 14.8958 3.46354 14.3906 3.92708 13.9271 4.39062 13.4635 4.89583 13.0521 5.44271 12.6875 5.98958 12.3229 6.56771 12.0104 7.17188 11.7604 7.78125 11.5104 8.40625 11.3177 9.04688 11.1927 9.69271 11.0625 10.3438 11 11 11Z" id="path185" stroke="#000000" fill="#FFFFFF" transform="matrix(0.75 0 0 0.75 0.375 0.375)"/><g id="g189" clip-path="url(#clip-0)"><path d="M0.75 40.5 105.75 40.5 105.75 41.25 0.75 41.25Z" id="path187" fill="#9A9A9A"/></g><g id="g193" clip-path="url(#clip-1)"><path d="M0.75 41.25 105.75 41.25 105.75 42 0.75 42Z" id="path191" fill="#EEEEEE"/></g><g id="g197" clip-path="url(#clip-2)"><path d="M105 41.25 105 42 105.75 42 105.75 40.5" id="path195" fill="#EEEEEE"/></g><g id="g201" clip-path="url(#clip-3)"><path d="M0.75 40.5 0.75 42 1.5 41.25 1.5 40.5" id="path199" fill="#9A9A9A"/></g><g id="g231"><use x="4.94531" y="20.25" width="100%" height="100%" xlink:href="#glyph-0-1" id="use203"></use><use x="12.2886" y="20.25" width="100%" height="100%" xlink:href="#glyph-0-2" id="use205"></use><use x="18.0762" y="20.25" width="100%" height="100%" xlink:href="#glyph-0-3" id="use207"></use><use x="24.4307" y="20.25" width="100%" height="100%" xlink:href="#glyph-0-4" id="use209"></use><use x="31.2686" y="20.25" width="100%" height="100%" xlink:href="#glyph-0-5" id="use211"></use><use x="40.2686" y="20.25" width="100%" height="100%" xlink:href="#glyph-0-6" id="use213"></use><use x="49.2686" y="20.25" width="100%" height="100%" xlink:href="#glyph-0-7" id="use215"></use><use x="56.2515" y="20.25" width="100%" height="100%" xlink:href="#glyph-0-8" id="use217"></use><use x="63.1113" y="20.25" width="100%" height="100%" xlink:href="#glyph-0-9" id="use219"></use><use x="69.4131" y="20.25" width="100%" height="100%" xlink:href="#glyph-0-10" id="use221"></use><use x="76.2905" y="20.25" width="100%" height="100%" xlink:href="#glyph-0-2" id="use223"></use><use x="82.0781" y="20.25" width="100%" height="100%" xlink:href="#glyph-0-11" id="use225"></use><use x="89.2764" y="20.25" width="100%" height="100%" xlink:href="#glyph-0-12" id="use227"></use><use x="94.8223" y="20.25" width="100%" height="100%" xlink:href="#glyph-0-13" id="use229"></use></g><g id="g239"><use x="45.2109" y="33.75" width="100%" height="100%" xlink:href="#glyph-0-14" id="use233"></use><use x="50.4316" y="33.75" width="100%" height="100%" xlink:href="#glyph-0-15" id="use235"></use><use x="56.2368" y="33.75" width="100%" height="100%" xlink:href="#glyph-0-16" id="use237"></use></g><path d="M187.125 6.375C187.125 3.47266 200.559 1.125 217.125 1.125 225.082 1.125 232.711 1.67969 238.336 2.66406 243.969 3.64453 247.125 4.98047 247.125 6.375L247.125 55.875C247.125 58.7773 233.691 61.125 217.125 61.125 200.559 61.125 187.125 58.7773 187.125 55.875Z" id="path241" fill="#FFFFFF"/><g id="g245" clip-path="url(#clip-4)"><path d="M249 8C249 4.13021 266.911 1 289 1 299.609 1 309.781 1.73958 317.281 3.05208 324.792 4.35938 329 6.14062 329 8L329 74C329 77.8698 311.089 81 289 81 266.911 81 249 77.8698 249 74Z" id="path243" stroke="#000000" stroke-miterlimit="10" fill="none" transform="matrix(0.75 0 0 0.75 0.375 0.375)"/></g><path d="M329 8C329 11.8698 311.089 15 289 15 266.911 15 249 11.8698 249 8" id="path247" stroke="#000000" stroke-miterlimit="10" fill="none" transform="matrix(0.75 0 0 0.75 0.375 0.375)"/><g id="g261"><use x="196.43" y="29.25" width="100%" height="100%" xlink:href="#glyph-1-1" id="use249"></use><use x="203.161" y="29.25" width="100%" height="100%" xlink:href="#glyph-1-2" id="use251"></use><use x="208.466" y="29.25" width="100%" height="100%" xlink:href="#glyph-1-3" id="use253"></use><use x="214.291" y="29.25" width="100%" height="100%" xlink:href="#glyph-1-4" id="use255"></use><use x="220.559" y="29.25" width="100%" height="100%" xlink:href="#glyph-1-5" id="use257"></use><use x="228.809" y="29.25" width="100%" height="100%" xlink:href="#glyph-1-6" id="use259"></use></g><g id="g275"><use x="198.551" y="39" width="100%" height="100%" xlink:href="#glyph-1-7" id="use263"></use><use x="205.028" y="39" width="100%" height="100%" xlink:href="#glyph-1-2" id="use265"></use><use x="210.334" y="39" width="100%" height="100%" xlink:href="#glyph-1-8" id="use267"></use><use x="216.521" y="39" width="100%" height="100%" xlink:href="#glyph-1-9" id="use269"></use><use x="223.353" y="39" width="100%" height="100%" xlink:href="#glyph-1-2" id="use271"></use><use x="228.658" y="39" width="100%" height="100%" xlink:href="#glyph-1-4" id="use273"></use></g><g id="g293"><use x="195.973" y="48.75" width="100%" height="100%" xlink:href="#glyph-1-10" id="use277"></use><use x="200.758" y="48.75" width="100%" height="100%" xlink:href="#glyph-1-11" id="use279"></use><use x="204.182" y="48.75" width="100%" height="100%" xlink:href="#glyph-1-12" id="use281"></use><use x="208.565" y="48.75" width="100%" height="100%" xlink:href="#glyph-1-13" id="use283"></use><use x="213.5" y="48.75" width="100%" height="100%" xlink:href="#glyph-1-14" id="use285"></use><use x="218.624" y="48.75" width="100%" height="100%" xlink:href="#glyph-1-15" id="use287"></use><use x="226.032" y="48.75" width="100%" height="100%" xlink:href="#glyph-1-16" id="use289"></use><use x="231.353" y="48.75" width="100%" height="100%" xlink:href="#glyph-1-17" id="use291"></use></g><path d="M444 11 564 11C564.656 11 565.307 11.0625 565.953 11.1927 566.594 11.3177 567.219 11.5104 567.828 11.7604 568.432 12.0104 569.01 12.3229 569.557 12.6875 570.104 13.0521 570.604 13.4635 571.073 13.9271 571.536 14.3906 571.948 14.8958 572.312 15.4427 572.677 15.9896 572.99 16.5677 573.24 17.1719 573.49 17.7813 573.677 18.4063 573.807 19.0469 573.938 19.6927 574 20.3438 574 21L574 61C574 61.6563 573.938 62.3073 573.807 62.9531 573.677 63.5938 573.49 64.2188 573.24 64.8281 572.99 65.4323 572.677 66.0104 572.312 66.5573 571.948 67.1042 571.536 67.6042 571.073 68.0729 570.604 68.5365 570.104 68.9479 569.557 69.3125 569.01 69.6771 568.432 69.9896 567.828 70.2396 567.219 70.4896 566.594 70.6823 565.953 70.8073 565.307 70.9375 564.656 71 564 71L444 71C443.344 71 442.693 70.9375 442.047 70.8073 441.406 70.6823 440.781 70.4896 440.172 70.2396 439.568 69.9896 438.99 69.6771 438.443 69.3125 437.896 68.9479 437.391 68.5365 436.927 68.0729 436.464 67.6042 436.052 67.1042 435.688 66.5573 435.323 66.0104 435.01 65.4323 434.76 64.8281 434.51 64.2188 434.318 63.5938 434.193 62.9531 434.063 62.3073 434 61.6563 434 61L434 21C434 20.3438 434.063 19.6927 434.193 19.0469 434.318 18.4063 434.51 17.7813 434.76 17.1719 435.01 16.5677 435.323 15.9896 435.688 15.4427 436.052 14.8958 436.464 14.3906 436.927 13.9271 437.391 13.4635 437.896 13.0521 438.443 12.6875 438.99 12.3229 439.568 12.0104 440.172 11.7604 440.781 11.5104 441.406 11.3177 442.047 11.1927 442.693 11.0625 443.344 11 444 11Z" id="path295" stroke="#000000" fill="#FFFFFF" transform="matrix(0.75 0 0 0.75 0.375 0.375)"/><g id="g299" clip-path="url(#clip-5)"><path d="M325.5 40.5 430.5 40.5 430.5 41.25 325.5 41.25Z" id="path297" fill="#9A9A9A"/></g><g id="g303" clip-path="url(#clip-6)"><path d="M325.5 41.25 430.5 41.25 430.5 42 325.5 42Z" id="path301" fill="#EEEEEE"/></g><g id="g307" clip-path="url(#clip-7)"><path d="M429.75 41.25 429.75 42 430.5 42 430.5 40.5" id="path305" fill="#EEEEEE"/></g><g id="g311" clip-path="url(#clip-8)"><path d="M325.5 40.5 325.5 42 326.25 41.25 326.25 40.5" id="path309" fill="#9A9A9A"/></g><g id="g335"><use x="336.82" y="20.25" width="100%" height="100%" xlink:href="#glyph-0-1" id="use313"></use><use x="344.164" y="20.25" width="100%" height="100%" xlink:href="#glyph-0-2" id="use315"></use><use x="349.951" y="20.25" width="100%" height="100%" xlink:href="#glyph-0-3" id="use317"></use><use x="356.306" y="20.25" width="100%" height="100%" xlink:href="#glyph-0-4" id="use319"></use><use x="363.144" y="20.25" width="100%" height="100%" xlink:href="#glyph-0-5" id="use321"></use><use x="372.144" y="20.25" width="100%" height="100%" xlink:href="#glyph-0-6" id="use323"></use><use x="381.144" y="20.25" width="100%" height="100%" xlink:href="#glyph-0-17" id="use325"></use><use x="388.434" y="20.25" width="100%" height="100%" xlink:href="#glyph-0-18" id="use327"></use><use x="394.419" y="20.25" width="100%" height="100%" xlink:href="#glyph-0-19" id="use329"></use><use x="401.169" y="20.25" width="100%" height="100%" xlink:href="#glyph-0-20" id="use331"></use><use x="410.169" y="20.25" width="100%" height="100%" xlink:href="#glyph-0-6" id="use333"></use></g><g id="g343"><use x="370.441" y="33.75" width="100%" height="100%" xlink:href="#glyph-0-14" id="use337"></use><use x="375.662" y="33.75" width="100%" height="100%" xlink:href="#glyph-0-21" id="use339"></use><use x="380.821" y="33.75" width="100%" height="100%" xlink:href="#glyph-0-22" id="use341"></use></g><path d="M147.37 41 242.63 41" id="path345" stroke="#000000" stroke-miterlimit="10" fill="none" transform="matrix(0.75 0 0 0.75 0.375 0.375)"/><path d="M142.12 41 149.12 37.5 147.37 41 149.12 44.5Z" id="path347" stroke="#000000" stroke-miterlimit="10" transform="matrix(0.75 0 0 0.75 0.375 0.375)"/><path d="M247.88 41 240.88 44.5 242.63 41 240.88 37.5Z" id="path349" stroke="#000000" stroke-miterlimit="10" transform="matrix(0.75 0 0 0.75 0.375 0.375)"/><path d="M127.5 21 165.75 21 165.75 41.25 127.5 41.25Z" id="path351" fill="#FFFFFF"/><g id="g361"><use x="130.125" y="29.25" width="100%" height="100%" xlink:href="#glyph-1-18" id="use353"></use><use x="138.375" y="29.25" width="100%" height="100%" xlink:href="#glyph-1-19" id="use355"></use><use x="146.625" y="29.25" width="100%" height="100%" xlink:href="#glyph-1-20" id="use357"></use><use x="154.875" y="29.25" width="100%" height="100%" xlink:href="#glyph-1-21" id="use359"></use></g><path d="M127.5 30.75 165.75 30.75 165.75 42 127.5 42Z" id="path363" fill="#FBFBFB"/><g id="g375"><use x="127.383" y="39.75" width="100%" height="100%" xlink:href="#glyph-1-22" id="use365"></use><use x="135.633" y="39.75" width="100%" height="100%" xlink:href="#glyph-1-23" id="use367"></use><use x="143.883" y="39.75" width="100%" height="100%" xlink:href="#glyph-1-24" id="use369"></use><use x="149.361" y="39.75" width="100%" height="100%" xlink:href="#glyph-1-25" id="use371"></use><use x="157.611" y="39.75" width="100%" height="100%" xlink:href="#glyph-1-26" id="use373"></use></g><path d="M335.37 41 427.63 41" id="path377" stroke="#000000" stroke-miterlimit="10" fill="none" transform="matrix(0.75 0 0 0.75 0.375 0.375)"/><path d="M330.12 41 337.12 37.5 335.37 41 337.12 44.5Z" id="path379" stroke="#000000" stroke-miterlimit="10" transform="matrix(0.75 0 0 0.75 0.375 0.375)"/><path d="M432.88 41 425.88 44.5 427.63 41 425.88 37.5Z" id="path381" stroke="#000000" stroke-miterlimit="10" transform="matrix(0.75 0 0 0.75 0.375 0.375)"/><path d="M270.75 26.25 303.75 26.25 303.75 36 270.75 36Z" id="path383" fill="#FFFFFF"/><g id="g393"><use x="270.375" y="34.5" width="100%" height="100%" xlink:href="#glyph-1-23" id="use385"></use><use x="278.625" y="34.5" width="100%" height="100%" xlink:href="#glyph-1-27" id="use387"></use><use x="286.875" y="34.5" width="100%" height="100%" xlink:href="#glyph-1-28" id="use389"></use><use x="295.125" y="34.5" width="100%" height="100%" xlink:href="#glyph-1-6" id="use391"></use></g></svg>