<svg width="819" height="562" viewBox="-0.5 -0.5 819 562" xmlns="http://www.w3.org/2000/svg" xmlns:xlink="http://www.w3.org/1999/xlink" overflow="hidden"><defs></defs><g><path d="M36 0 786 0 786 560 36 560Z" stroke="#666666" stroke-miterlimit="10" fill="#FFFFFF"/><ellipse cx="721" cy="15" rx="10" ry="10" stroke="#666666" fill="none"/><ellipse cx="746" cy="15" rx="10" ry="10" stroke="#666666" fill="none"/><ellipse cx="771" cy="15" rx="10" ry="10" stroke="#008CFF" fill="none"/><path d="M36 40 66 40 66 15C66 12.24 68.24 10 71 10L206 10C208.76 10 211 12.24 211 15L211 40 786 40" stroke="#C4C4C4" stroke-miterlimit="10" fill="none"/><path d="M36 110 786 110" stroke="#C4C4C4" stroke-miterlimit="10" fill="none"/><path d="M136 60C136 57.24 138.24 55 141 55L771 55C773.76 55 776 57.24 776 60L776 85C776 87.76 773.76 90 771 90L141 90C138.24 90 136 87.76 136 85Z" stroke="#C4C4C4" stroke-miterlimit="10" fill="none"/><g fill="#666666" font-family="Arial,Helvetica" font-size="17"></g><g fill="#666666" font-family="Arial,Helvetica" font-size="17"></g><path d="M73 17 84 17 88 21 88 35 73 35Z" stroke="#C4C4C4" stroke-miterlimit="10" fill="none"/><path d="M84 17 84 21 88 22" stroke="#C4C4C4" stroke-width="0.5" stroke-miterlimit="10" fill="none"/><path d="M143 64 154 64 158 68 158 82 143 82Z" stroke="#C4C4C4" stroke-width="2" stroke-miterlimit="10" fill="none"/><path d="M154 64 154 68 158 69" stroke="#C4C4C4" stroke-width="0.5" stroke-miterlimit="10" fill="none"/><path d="M48 74 58 64 58 70 68 70 68 78 58 78 58 84Z" stroke="#C4C4C4" stroke-width="2" stroke-miterlimit="10" fill="#C4C4C4"/><path d="M98 74 88 64 88 70 78 70 78 78 88 78 88 84Z" stroke="#C4C4C4" stroke-width="2" stroke-miterlimit="10" fill="#C4C4C4"/><path d="M123.6 77.3C121.9 80.13 118.22 81.06 115.38 79.36 112.54 77.67 111.61 74 113.29 71.15 114.98 68.31 118.65 67.36 121.5 69.04L119.9 70.5 127.8 72.3 126 64.8 124.3 66.4C121.11 64.03 116.8 63.82 113.39 65.87 109.99 67.92 108.16 71.83 108.77 75.76 109.37 79.69 112.3 82.86 116.16 83.79 120.03 84.72 124.07 83.22 126.4 80Z" stroke="#C4C4C4" stroke-width="2" stroke-miterlimit="10" fill="#C4C4C4"/><rect x="96" y="200" width="620" height="340" stroke="#B3B3B3" stroke-dasharray="12 12" fill="#FFFFFF"/><g fill="#666666" font-family="Yu Gothic UI" font-size="17"><text x="97.5" y="32">情報管理シス...</text></g><g fill="#666666" font-family="Yu Gothic UI" font-size="17"><text x="167.5" y="80">https://example.com/</text></g><rect x="36" y="100" width="750" height="50" stroke="#666666"/><rect x="51" y="110" width="130" height="30" stroke="#D4D4D4" fill="none"/><g fill="#FFFFFF" font-family="Yu Gothic UI" font-size="12" text-anchor="middle"><text x="115.5" y="129.5">ロゴ</text></g><rect x="706" y="110" width="69" height="30" fill="none"/><g fill="#FFFFFF" font-family="Yu Gothic UI" font-size="12" text-anchor="middle"><text x="740" y="129.5">ログアウト</text></g><rect x="196" y="110" width="500" height="30" stroke="#F5F5F5" fill="none"/><g fill="#FFFFFF" font-family="Yu Gothic UI" font-size="12" text-anchor="middle"><text x="445.5" y="129.5">機能へのリンク</text></g><rect x="381" y="330" width="60" height="30" fill="none"/><g fill="#FF8000" font-family="Helvetica" font-size="18" text-anchor="middle"><text x="410.5" y="352.5">⑤</text></g><rect x="126" y="155" width="119" height="30" fill="none"/><g font-family="Meiryo UI" font-size="21"><text x="127.5" y="179">機能タイトル</text></g><path d="M817 85.5 747 85.5 577 120" stroke="#FF8000" stroke-miterlimit="10" fill="none"/><g fill="#666666" font-family="Arial,Helvetica" font-size="17" text-anchor="middle"></g><g fill="#FF8000" font-family="Yu Gothic UI" font-size="17" text-anchor="end"><text x="814.5" y="82.5">②</text></g><path d="M0 95.5 70 95.5 90 120" stroke="#FF8000" stroke-miterlimit="10" fill="none"/><g fill="#666666" font-family="Arial,Helvetica" font-size="17" text-anchor="middle"></g><g fill="#FF8000" font-family="Helvetica" font-size="17"><text x="1.5" y="92.5">①</text></g><path d="M816 155.5 746 155.5 726 140" stroke="#FF8000" stroke-miterlimit="10" fill="none"/><g fill="#666666" font-family="Arial,Helvetica" font-size="17" text-anchor="middle"></g><g fill="#FF8000" font-family="Yu Gothic UI" font-size="17" text-anchor="end"><text x="813.5" y="152.5">③</text></g><path d="M815 195.5 745 195.5 445 180" stroke="#FF8000" stroke-miterlimit="10" fill="none"/><g fill="#666666" font-family="Arial,Helvetica" font-size="17" text-anchor="middle"></g><g fill="#FF8000" font-family="Yu Gothic UI" font-size="17" text-anchor="end"><text x="812.5" y="192.5">④</text></g></g></svg>