<svg width="751" height="201" viewBox="-0.5 -0.5 751 201" xmlns="http://www.w3.org/2000/svg" xmlns:xlink="http://www.w3.org/1999/xlink" overflow="hidden"><defs></defs><g><rect x="0" y="0" rx="10" ry="10" width="750" height="200" stroke="#666666" fill="#FFFFFF"/><rect x="130" y="80" width="240" height="30" stroke="#666666" fill="#FFFFFF"/><g fill="#666666" font-family="Arial,Helvetica" font-size="17"></g><rect x="10" y="80" width="90" height="30" fill="none"/><g font-family="Yu Gothic UI" font-size="14" text-anchor="end"><text x="97.5" y="100.5">条件2</text></g><rect x="130" y="30" width="240" height="30" stroke="#666666" fill="#FFFFFF"/><g fill="#666666" font-family="Arial,Helvetica" font-size="17"></g><rect x="10" y="30" width="90" height="30" fill="none"/><g font-family="Yu Gothic UI" font-size="14" text-anchor="end"><text x="97.5" y="50.5">条件1</text></g><path d="M130 140C130 134.48 134.48 130 140 130L220 130C225.52 130 230 134.48 230 140L230 160C230 165.52 225.52 170 220 170L140 170C134.48 170 130 165.52 130 160Z" stroke="#666666" stroke-miterlimit="10" fill="#F5F5F5"/><g fill="#666666" font-family="Arial,Helvetica" font-weight="700" font-size="17" text-anchor="middle"></g><g fill="#333333" font-family="Yu Gothic UI" font-size="15" text-anchor="middle"><text x="179.5" y="156">検索</text></g><path d="M250 140C250 134.48 254.48 130 260 130L340 130C345.52 130 350 134.48 350 140L350 160C350 165.52 345.52 170 340 170L260 170C254.48 170 250 165.52 250 160Z" stroke="#666666" stroke-miterlimit="10" fill="#F5F5F5"/><g fill="#666666" font-family="Arial,Helvetica" font-weight="700" font-size="17" text-anchor="middle"></g><g fill="#333333" font-family="Yu Gothic UI" font-size="15" text-anchor="middle"><text x="299.5" y="156">新規登録</text></g></g></svg>