<svg width="780" height="561" viewBox="-0.5 -0.5 780 561" xmlns="http://www.w3.org/2000/svg" xmlns:xlink="http://www.w3.org/1999/xlink" overflow="hidden"><defs></defs><g><path d="M0 0 750 0 750 560 0 560Z" stroke="#666666" stroke-miterlimit="10" fill="#FFFFFF"/><ellipse cx="685" cy="15" rx="10" ry="10" stroke="#666666" fill="none"/><ellipse cx="710" cy="15" rx="10" ry="10" stroke="#666666" fill="none"/><ellipse cx="735" cy="15" rx="10" ry="10" stroke="#008CFF" fill="none"/><path d="M0 40 30 40 30 15C30 12.24 32.24 10 35 10L170 10C172.76 10 175 12.24 175 15L175 40 750 40" stroke="#C4C4C4" stroke-miterlimit="10" fill="none"/><path d="M0 110 750 110" stroke="#C4C4C4" stroke-miterlimit="10" fill="none"/><path d="M100 60C100 57.24 102.24 55 105 55L735 55C737.76 55 740 57.24 740 60L740 85C740 87.76 737.76 90 735 90L105 90C102.24 90 100 87.76 100 85Z" stroke="#C4C4C4" stroke-miterlimit="10" fill="none"/><g fill="#666666" font-family="Arial,Helvetica" font-size="17"></g><g fill="#666666" font-family="Arial,Helvetica" font-size="17"></g><path d="M37 17 48 17 52 21 52 35 37 35Z" stroke="#C4C4C4" stroke-miterlimit="10" fill="none"/><path d="M48 17 48 21 52 22" stroke="#C4C4C4" stroke-width="0.5" stroke-miterlimit="10" fill="none"/><path d="M107 64 118 64 122 68 122 82 107 82Z" stroke="#C4C4C4" stroke-width="2" stroke-miterlimit="10" fill="none"/><path d="M118 64 118 68 122 69" stroke="#C4C4C4" stroke-width="0.5" stroke-miterlimit="10" fill="none"/><path d="M12 74 22 64 22 70 32 70 32 78 22 78 22 84Z" stroke="#C4C4C4" stroke-width="2" stroke-miterlimit="10" fill="#C4C4C4"/><path d="M62 74 52 64 52 70 42 70 42 78 52 78 52 84Z" stroke="#C4C4C4" stroke-width="2" stroke-miterlimit="10" fill="#C4C4C4"/><path d="M87.6 77.3C85.9 80.13 82.22 81.06 79.38 79.36 76.54 77.67 75.61 74 77.29 71.15 78.98 68.31 82.65 67.36 85.5 69.04L83.9 70.5 91.8 72.3 90 64.8 88.3 66.4C85.11 64.03 80.8 63.82 77.39 65.87 73.99 67.92 72.16 71.83 72.77 75.76 73.37 79.69 76.3 82.86 80.16 83.79 84.03 84.72 88.07 83.22 90.4 80Z" stroke="#C4C4C4" stroke-width="2" stroke-miterlimit="10" fill="#C4C4C4"/><g fill="#666666" font-family="Yu Gothic UI" font-size="17"><text x="61.5" y="32">情報管理シス...</text></g><g fill="#666666" font-family="Yu Gothic UI" font-size="17"><text x="131.5" y="80">https://example.com/</text></g><rect x="190.5" y="220" width="369" height="20" fill="#FFFFFF"/><g font-family="Yu Gothic UI" font-size="12" text-anchor="middle"><text x="374.5" y="234.5">上のメニューから管理機能を選択してください</text></g><rect x="0" y="100" width="750" height="50" stroke="#666666" fill="#F5F5F5"/><rect x="0" y="150" width="750" height="30" stroke="#666666" fill="#F5F5F5"/><g fill="#666666" font-family="Yu Gothic UI" font-size="12" text-anchor="middle"><text x="374.5" y="167.5">タイトル</text></g><rect x="15" y="110" width="130" height="30" stroke="#666666" fill="#F5F5F5"/><g fill="#666666" font-family="Yu Gothic UI" font-size="12" text-anchor="middle"><text x="79.5" y="129.5">ロゴ</text></g><rect x="670" y="110" width="69" height="30" stroke="#666666" fill="#F5F5F5"/><g fill="#666666" font-family="Yu Gothic UI" font-size="12" text-anchor="middle"><text x="704" y="129.5">ログアウト</text></g><rect x="160" y="110" width="500" height="30" stroke="#666666" fill="#F5F5F5"/><g fill="#666666" font-family="Yu Gothic UI" font-size="12" text-anchor="middle"><text x="409.5" y="129.5">機能へのリンク</text></g><path d="M779 195.5 709 195.5 481 220" stroke="#FF8000" stroke-miterlimit="10" fill="none"/><g fill="#666666" font-family="Arial,Helvetica" font-size="17" text-anchor="middle"></g><g fill="#FF8000" font-family="Yu Gothic UI" font-size="17" text-anchor="end"><text x="776.5" y="192.5">①</text></g></g></svg>