<svg width="570" height="387" viewBox="-0.5 -0.5 570 387" xmlns="http://www.w3.org/2000/svg" xmlns:xlink="http://www.w3.org/1999/xlink" overflow="hidden"><defs><clipPath id="mx-clip-234-30-132-20-0"><rect x="234" y="30" width="132" height="20"/></clipPath><clipPath id="mx-clip-234-50-132-20-0"><rect x="234" y="50" width="132" height="20"/></clipPath><clipPath id="mx-clip-234-70-132-20-0"><rect x="234" y="70" width="132" height="20"/></clipPath><clipPath id="mx-clip-234-90-132-20-0"><rect x="234" y="90" width="132" height="20"/></clipPath><clipPath id="mx-clip-234-110-132-20-0"><rect x="234" y="110" width="132" height="20"/></clipPath><clipPath id="mx-clip-234-130-132-20-0"><rect x="234" y="130" width="132" height="20"/></clipPath><clipPath id="mx-clip-234-150-132-20-0"><rect x="234" y="150" width="132" height="20"/></clipPath><clipPath id="mx-clip-433-30-132-20-0"><rect x="433" y="30" width="132" height="20"/></clipPath><clipPath id="mx-clip-433-50-132-20-0"><rect x="433" y="50" width="132" height="20"/></clipPath><clipPath id="mx-clip-433-70-132-20-0"><rect x="433" y="70" width="132" height="20"/></clipPath><clipPath id="mx-clip-433-90-132-20-0"><rect x="433" y="90" width="132" height="20"/></clipPath><clipPath id="mx-clip-433-289-132-20-0"><rect x="433" y="289" width="132" height="20"/></clipPath><clipPath id="mx-clip-433-309-132-20-0"><rect x="433" y="309" width="132" height="20"/></clipPath><clipPath id="mx-clip-433-329-132-20-0"><rect x="433" y="329" width="132" height="20"/></clipPath><clipPath id="mx-clip-234-278-132-20-0"><rect x="234" y="278" width="132" height="20"/></clipPath><clipPath id="mx-clip-234-298-132-20-0"><rect x="234" y="298" width="132" height="20"/></clipPath><clipPath id="mx-clip-234-318-132-20-0"><rect x="234" y="318" width="132" height="20"/></clipPath><clipPath id="mx-clip-234-338-132-20-0"><rect x="234" y="338" width="132" height="20"/></clipPath><clipPath id="mx-clip-234-358-132-20-0"><rect x="234" y="358" width="132" height="20"/></clipPath><clipPath id="mx-clip-4-309-132-20-0"><rect x="4" y="309" width="132" height="20"/></clipPath><clipPath id="mx-clip-4-329-132-20-0"><rect x="4" y="329" width="132" height="20"/></clipPath></defs><g><path d="M230 30 230 0 370 0 370 30" stroke="#000000" stroke-miterlimit="10" fill="#FFFFFF"/><path d="M230 30 230 178 370 178 370 30" stroke="#000000" stroke-miterlimit="10" fill="none"/><path d="M230 30 370 30" stroke="#000000" stroke-miterlimit="10" fill="none"/><g font-family="Yu Gothic UI" font-size="12" text-anchor="middle"><text x="299.5" y="17.5">加入者</text></g><g font-family="Yu Gothic UI" font-size="12" clip-path="url(#mx-clip-234-30-132-20-0)"><text x="235.5" y="44.5">- 加入者番号</text></g><g font-family="Yu Gothic UI" font-size="12" clip-path="url(#mx-clip-234-50-132-20-0)"><text x="235.5" y="64.5">- メールアドレス</text></g><g font-family="Yu Gothic UI" font-size="12" clip-path="url(#mx-clip-234-70-132-20-0)"><text x="235.5" y="84.5">- 氏名</text></g><g font-family="Yu Gothic UI" font-size="12" clip-path="url(#mx-clip-234-90-132-20-0)"><text x="235.5" y="104.5">- 住所</text></g><g font-family="Yu Gothic UI" font-size="12" clip-path="url(#mx-clip-234-110-132-20-0)"><text x="235.5" y="124.5">- 加入日</text></g><g font-family="Yu Gothic UI" font-size="12" clip-path="url(#mx-clip-234-130-132-20-0)"><text x="235.5" y="144.5">- 解約日</text></g><g font-family="Yu Gothic UI" font-size="12" clip-path="url(#mx-clip-234-150-132-20-0)"><text x="235.5" y="164.5">- 決済方法</text></g><path d="M230 174 370 174" stroke="#000000" stroke-miterlimit="10" fill="none"/><path d="M499 118 499 259" stroke="#000000" stroke-miterlimit="10" fill="none"/><path d="M429 30 429 0 569 0 569 30" stroke="#000000" stroke-miterlimit="10" fill="#FFFFFF"/><path d="M429 30 429 118 569 118 569 30" stroke="#000000" stroke-miterlimit="10" fill="none"/><path d="M429 30 569 30" stroke="#000000" stroke-miterlimit="10" fill="none"/><g font-family="Yu Gothic UI" font-size="12" text-anchor="middle"><text x="498.5" y="17.5">料金</text></g><g font-family="Yu Gothic UI" font-size="12" clip-path="url(#mx-clip-433-30-132-20-0)"><text x="434.5" y="44.5">- 料金名</text></g><g font-family="Yu Gothic UI" font-size="12" clip-path="url(#mx-clip-433-50-132-20-0)"><text x="434.5" y="64.5">- 月額料金</text></g><g font-family="Yu Gothic UI" font-size="12" clip-path="url(#mx-clip-433-70-132-20-0)"><text x="434.5" y="84.5">- 適用開始日</text></g><g font-family="Yu Gothic UI" font-size="12" clip-path="url(#mx-clip-433-90-132-20-0)"><text x="434.5" y="104.5">- 適用終了日</text></g><path d="M429 114 569 114" stroke="#000000" stroke-miterlimit="10" fill="none"/><path d="M429 289 429 259 569 259 569 289" stroke="#000000" stroke-miterlimit="10" fill="#FFFFFF"/><path d="M429 289 429 357 569 357 569 289" stroke="#000000" stroke-miterlimit="10" fill="none"/><path d="M429 289 569 289" stroke="#000000" stroke-miterlimit="10" fill="none"/><g font-family="Yu Gothic UI" font-size="12" text-anchor="middle"><text x="498.5" y="276.5">請求明細データ</text></g><g font-family="Yu Gothic UI" font-size="12" clip-path="url(#mx-clip-433-289-132-20-0)"><text x="434.5" y="303.5">- 請求日</text></g><g font-family="Yu Gothic UI" font-size="12" clip-path="url(#mx-clip-433-309-132-20-0)"><text x="434.5" y="323.5">- 料金名</text></g><g font-family="Yu Gothic UI" font-size="12" clip-path="url(#mx-clip-433-329-132-20-0)"><text x="434.5" y="343.5">- 請求金額</text></g><path d="M429 353 569 353" stroke="#000000" stroke-miterlimit="10" fill="none"/><path d="M230 278 230 248 370 248 370 278" stroke="#000000" stroke-miterlimit="10" fill="#FFFFFF"/><path d="M230 278 230 386 370 386 370 278" stroke="#000000" stroke-miterlimit="10" fill="none"/><path d="M230 278 370 278" stroke="#000000" stroke-miterlimit="10" fill="none"/><g font-family="Yu Gothic UI" font-size="12" text-anchor="middle"><text x="299.5" y="265.5">請求データ</text></g><g font-family="Yu Gothic UI" font-size="12" clip-path="url(#mx-clip-234-278-132-20-0)"><text x="235.5" y="292.5">- 請求日</text></g><g font-family="Yu Gothic UI" font-size="12" clip-path="url(#mx-clip-234-298-132-20-0)"><text x="235.5" y="312.5">- 請求先氏名</text></g><g font-family="Yu Gothic UI" font-size="12" clip-path="url(#mx-clip-234-318-132-20-0)"><text x="235.5" y="332.5">- 請求先住所</text></g><g font-family="Yu Gothic UI" font-size="12" clip-path="url(#mx-clip-234-338-132-20-0)"><text x="235.5" y="352.5">- 決済方法</text></g><g font-family="Yu Gothic UI" font-size="12" clip-path="url(#mx-clip-234-358-132-20-0)"><text x="235.5" y="372.5">- 合計請求金額</text></g><path d="M230 382 370 382" stroke="#000000" stroke-miterlimit="10" fill="none"/><path d="M300 178 300 248" stroke="#000000" stroke-miterlimit="10" fill="none"/><path d="M383.99 308 426.76 308" stroke="#000000" stroke-miterlimit="10" fill="none"/><path d="M370.99 308 377.49 304.18 383.99 308 377.49 311.82Z" stroke="#000000" stroke-miterlimit="10"/><path d="M414.88 314.5 427.88 308 414.88 301.5" stroke="#000000" stroke-miterlimit="10" fill="none"/><g font-family="Yu Gothic UI" font-size="12" text-anchor="middle"><text x="409.5" y="302.5">*</text></g><g font-family="Yu Gothic UI" font-size="12" text-anchor="middle"><text x="315.5" y="192.5">1</text></g><g font-family="Yu Gothic UI" font-size="12" text-anchor="middle"><text x="314.5" y="242.5">*</text></g><g font-family="Yu Gothic UI" font-size="12" text-anchor="middle"><text x="509.5" y="132.5">1</text></g><g font-family="Yu Gothic UI" font-size="12" text-anchor="middle"><text x="514.5" y="252.5">*</text></g><path d="M0 309 0 279 140 279 140 309" stroke="#000000" stroke-miterlimit="10" fill="#FFFFFF"/><path d="M0 309 0 357 140 357 140 309" stroke="#000000" stroke-miterlimit="10" fill="none"/><path d="M0 309 140 309" stroke="#000000" stroke-miterlimit="10" fill="none"/><g font-family="Yu Gothic UI" font-size="12" text-anchor="middle"><text x="69.5" y="296.5">請求データ状況</text></g><g font-family="Yu Gothic UI" font-size="12" clip-path="url(#mx-clip-4-309-132-20-0)"><text x="5.5" y="323.5">- 請求年月</text></g><g font-family="Yu Gothic UI" font-size="12" clip-path="url(#mx-clip-4-329-132-20-0)"><text x="5.5" y="343.5">- 確定</text></g><path d="M0 353 140 353" stroke="#000000" stroke-miterlimit="10" fill="none"/><path d="M140 317.7 230 317.3" stroke="#000000" stroke-miterlimit="10" fill="none"/><g font-family="Yu Gothic UI" font-size="12" text-anchor="middle"><text x="149.5" y="312.5">1</text></g><g font-family="Yu Gothic UI" font-size="12" text-anchor="middle"><text x="219.5" y="312.5">*</text></g></g></svg>