<svg width="642" height="262" viewBox="-0.5 -0.5 642 262" xmlns="http://www.w3.org/2000/svg" xmlns:xlink="http://www.w3.org/1999/xlink" overflow="hidden"><defs></defs><g><path d="M80 60 640 60" stroke="#000000" stroke-miterlimit="10" fill="none"/><rect x="200" y="30" width="320" height="20" stroke="#D79B00" fill="#FFE6CC"/><g font-family="Helvetica" font-size="12" text-anchor="middle"><text x="359.5" y="44.5">対象年月</text></g><rect x="80" y="70" width="110" height="20" stroke="#000000" fill="#FFFFFF"/><g font-family="Helvetica" font-size="12" text-anchor="middle"><text x="134.5" y="84.5">対象外</text></g><rect x="80" y="100" width="170" height="20" stroke="#82B366" fill="#D5E8D4"/><rect x="270" y="130" width="180" height="20" stroke="#82B366" fill="#D5E8D4"/><rect x="460" y="160" width="180" height="20" stroke="#82B366" fill="#D5E8D4"/><rect x="530" y="190" width="110" height="20" stroke="#000000" fill="#FFFFFF"/><g font-family="Helvetica" font-size="12" text-anchor="middle"><text x="584.5" y="204.5">対象外</text></g><rect x="80" y="220" width="560" height="20" stroke="#82B366" fill="#D5E8D4"/><path d="M200 260 200 10" stroke="#000000" stroke-miterlimit="10" fill="none"/><path d="M520 260 520 10" stroke="#000000" stroke-miterlimit="10" fill="none"/><rect x="200" y="0" width="30" height="30" fill="none"/><g font-family="Helvetica" font-size="12" text-anchor="middle"><text x="214.5" y="19.5">1日</text></g><rect x="480" y="0" width="40" height="30" fill="none"/><g font-family="Helvetica" font-size="12" text-anchor="middle"><text x="499.5" y="19.5">末日</text></g><rect x="0" y="65" width="60" height="30" fill="none"/><g font-family="Helvetica" font-size="12" text-anchor="middle"><text x="29.5" y="84.5">パターン1</text></g><rect x="0" y="95" width="60" height="30" stroke="#82B366" fill="#D5E8D4"/><g font-family="Helvetica" font-size="12" text-anchor="middle"><text x="29.5" y="114.5">パターン2</text></g><rect x="0" y="125" width="60" height="30" stroke="#82B366" fill="#D5E8D4"/><g font-family="Helvetica" font-size="12" text-anchor="middle"><text x="29.5" y="144.5">パターン3</text></g><rect x="0" y="155" width="60" height="30" stroke="#82B366" fill="#D5E8D4"/><g font-family="Helvetica" font-size="12" text-anchor="middle"><text x="29.5" y="174.5">パターン4</text></g><rect x="0" y="185" width="60" height="30" fill="none"/><g font-family="Helvetica" font-size="12" text-anchor="middle"><text x="29.5" y="204.5">パターン5</text></g><rect x="0" y="215" width="60" height="30" stroke="#82B366" fill="#D5E8D4"/><g font-family="Helvetica" font-size="12" text-anchor="middle"><text x="29.5" y="234.5">パターン6</text></g></g></svg>