<svg width="996" height="531" viewBox="-0.5 -0.5 996 531" xmlns="http://www.w3.org/2000/svg" xmlns:xlink="http://www.w3.org/1999/xlink" overflow="hidden"><defs></defs><g><rect x="745" y="69" rx="10" ry="10" width="250" height="90" stroke="#000000" fill="#FFFFFF"/><rect x="760" y="49" width="110" height="20" stroke="#000000" fill="#FFFFFF"/><g font-family="Yu Gothic UI" font-size="12"><text x="764.5" y="63.5">ログイン機能</text></g><rect x="0" y="60" rx="10" ry="10" width="625" height="470" stroke="#000000" fill="#FFFFFF"/><rect x="15" y="40" width="110" height="20" stroke="#000000" fill="#FFFFFF"/><g font-family="Yu Gothic UI" font-size="12"><text x="19.5" y="54.5">情報管理機能</text></g><rect x="8" y="174" rx="8.61" ry="8.61" width="287" height="340" stroke="#000000" stroke-dasharray="3 3" fill="none"/><rect x="335" y="174" rx="8.19" ry="8.19" width="273" height="340" stroke="#000000" stroke-dasharray="3 3" fill="none"/><path d="M309.5 30 309.89 53.63" stroke="#000000" stroke-miterlimit="10" fill="none"/><path d="M309.98 58.88 306.37 51.94 309.89 53.63 313.36 51.82Z" stroke="#000000" stroke-miterlimit="10"/><path d="M119 266 119 305.63" stroke="#000000" stroke-miterlimit="10" fill="none"/><path d="M119 310.88 115.5 303.88 119 305.63 122.5 303.88Z" stroke="#000000" stroke-miterlimit="10"/><path d="M295 235.88 383.63 235.99" stroke="#000000" stroke-miterlimit="10" fill="none"/><path d="M388.88 236 381.88 239.49 383.63 235.99 381.89 232.49Z" stroke="#000000" stroke-miterlimit="10"/><rect x="79" y="206" rx="10" ry="10" width="160" height="60" stroke="#000000" fill="#FFFFFF"/><g font-family="Yu Gothic UI" font-size="12" text-anchor="middle"><text x="158.5" y="216.5">加入者検索 :</text><text x="158.5" y="230.5">KAP010V000</text></g><path d="M199 312 199 272.37" stroke="#000000" stroke-miterlimit="10" fill="none"/><path d="M199 267.12 202.5 274.12 199 272.37 195.5 274.12Z" stroke="#000000" stroke-miterlimit="10"/><path d="M119 372 119 416.63" stroke="#000000" stroke-miterlimit="10" fill="none"/><path d="M119 421.88 115.5 414.88 119 416.63 122.5 414.88Z" stroke="#000000" stroke-miterlimit="10"/><rect x="79" y="312" rx="10" ry="10" width="160" height="60" stroke="#000000" fill="#FFFFFF"/><g font-family="Yu Gothic UI" font-size="12" text-anchor="middle"><text x="158.5" y="322.5">加入者一覧</text><text x="158.5" y="336.5">KAP010V010</text></g><path d="M199 423 199 378.37" stroke="#000000" stroke-miterlimit="10" fill="none"/><path d="M199 373.12 202.5 380.12 199 378.37 195.5 380.12Z" stroke="#000000" stroke-miterlimit="10"/><rect x="79" y="423" rx="10" ry="10" width="160" height="60" stroke="#000000" fill="#FFFFFF"/><g font-family="Yu Gothic UI" font-size="12" text-anchor="middle"><text x="158.5" y="433.5">加入者情報編集</text><text x="158.5" y="447.5">KAP010V020</text></g><ellipse cx="309.5" cy="15" rx="15" ry="15" stroke="#000000"/><path d="M263.26 140.37 263.28 150.18C263.293 156.727 259.967 160 253.3 160L169 160C162.333 160 159 163.333 159 170L159 199.63" stroke="#000000" stroke-miterlimit="10" fill="none"/><path d="M263.25 135.12 266.77 142.11 263.26 140.37 259.77 142.12Z" stroke="#000000" stroke-miterlimit="10"/><path d="M159 204.88 155.5 197.88 159 199.63 162.5 197.88Z" stroke="#000000" stroke-miterlimit="10"/><rect x="217" y="74" rx="10" ry="10" width="185" height="60" stroke="#000000" fill="#FFFFFF"/><g font-family="Yu Gothic UI" font-size="12" text-anchor="middle"><text x="309" y="84.5">トップ画面</text><text x="309" y="98.5">KAP000V000</text></g><path d="M430 266 430 305.63" stroke="#000000" stroke-miterlimit="10" fill="none"/><path d="M430 310.88 426.5 303.88 430 305.63 433.5 303.88Z" stroke="#000000" stroke-miterlimit="10"/><rect x="390" y="206" rx="10" ry="10" width="160" height="60" stroke="#000000" fill="#FFFFFF"/><g font-family="Yu Gothic UI" font-size="12" text-anchor="middle"><text x="469.5" y="216.5">料金情報検索</text><text x="469.5" y="230.5">KAP020V000</text></g><path d="M430 372 430 416.63" stroke="#000000" stroke-miterlimit="10" fill="none"/><path d="M430 421.88 426.5 414.88 430 416.63 433.5 414.88Z" stroke="#000000" stroke-miterlimit="10"/><path d="M510 312 510 272.37" stroke="#000000" stroke-miterlimit="10" fill="none"/><path d="M510 267.12 513.5 274.12 510 272.37 506.5 274.12Z" stroke="#000000" stroke-miterlimit="10"/><rect x="390" y="312" rx="10" ry="10" width="160" height="60" stroke="#000000" fill="#FFFFFF"/><g font-family="Yu Gothic UI" font-size="12" text-anchor="middle"><text x="469.5" y="322.5">料金情報一覧</text><text x="469.5" y="336.5">KAP020V010</text></g><path d="M355.76 140.37 355.78 150.18C355.793 156.727 359.133 160 365.8 160L460 160C466.667 160 470 163.333 470 170L470 199.63" stroke="#000000" stroke-miterlimit="10" fill="none"/><path d="M355.75 135.12 359.27 142.11 355.76 140.37 352.27 142.12Z" stroke="#000000" stroke-miterlimit="10"/><path d="M470 204.88 466.5 197.88 470 199.63 473.5 197.88Z" stroke="#000000" stroke-miterlimit="10"/><path d="M510 423 510 378.37" stroke="#000000" stroke-miterlimit="10" fill="none"/><path d="M510 373.12 513.5 380.12 510 378.37 506.5 380.12Z" stroke="#000000" stroke-miterlimit="10"/><rect x="390" y="423" rx="10" ry="10" width="160" height="60" stroke="#000000" fill="#FFFFFF"/><g font-family="Yu Gothic UI" font-size="12" text-anchor="middle"><text x="469.5" y="433.5">料金情報編集</text><text x="469.5" y="447.5">KAP020V020</text></g><rect x="8" y="134" width="130" height="40" fill="none"/><g font-family="Yu Gothic UI" font-size="12"><text x="9.5" y="151.5">加入者情報管理機能</text><text x="9.5" y="165.5">KAP010</text></g><rect x="488" y="134" width="120" height="40" fill="none"/><g font-family="Yu Gothic UI" font-size="12" text-anchor="end"><text x="605.5" y="151.5">料金情報管理機能</text><text x="605.5" y="165.5">KAP020</text></g><rect x="512" y="284" width="40" height="30" fill="none"/><g font-family="Yu Gothic UI" font-size="12"><text x="513.5" y="303.5">戻る</text></g><rect x="512" y="380" width="70" height="30" fill="none"/><g font-family="Yu Gothic UI" font-size="12"><text x="513.5" y="399.5">キャンセル</text></g><rect x="378" y="282" width="50" height="30" fill="none"/><g font-family="Yu Gothic UI" font-size="12" text-anchor="end"><text x="425.5" y="301.5">検索</text></g><rect x="378" y="373" width="50" height="30" fill="none"/><g font-family="Yu Gothic UI" font-size="12" text-anchor="end"><text x="425.5" y="392.5">編集</text></g><rect x="200" y="281" width="40" height="30" fill="none"/><g font-family="Yu Gothic UI" font-size="12"><text x="201.5" y="300.5">戻る</text></g><rect x="200" y="380" width="70" height="30" fill="none"/><g font-family="Yu Gothic UI" font-size="12"><text x="201.5" y="399.5">キャンセル</text></g><rect x="68" y="281" width="50" height="30" fill="none"/><g font-family="Yu Gothic UI" font-size="12" text-anchor="end"><text x="115.5" y="300.5">検索</text></g><rect x="68" y="372" width="50" height="30" fill="none"/><g font-family="Yu Gothic UI" font-size="12" text-anchor="end"><text x="115.5" y="391.5">編集</text></g><path d="M119 266 119 276C119 282.667 115.667 286 109 286L69 286C62.3333 286 59 289.333 59 296L59 386C59 392.667 62.3333 396 69 396L109 396C115.667 396 119 399.333 119 406L119 416.63" stroke="#000000" stroke-miterlimit="10" fill="none"/><path d="M119 421.88 115.5 414.88 119 416.63 122.5 414.88Z" stroke="#000000" stroke-miterlimit="10"/><rect x="5" y="282" width="50" height="30" fill="none"/><g font-family="Yu Gothic UI" font-size="12" text-anchor="end"><text x="52.5" y="301.5">登録</text></g><path d="M430 266 430 276C430 282.667 426.667 286 420 286L380 286C373.333 286 370 289.333 370 296L370 396C370 402.667 373.333 406 380 406L420 406C426.667 406 430 407.773 430 411.32L430 416.63" stroke="#000000" stroke-miterlimit="10" fill="none"/><path d="M430 421.88 426.5 414.88 430 416.63 433.5 414.88Z" stroke="#000000" stroke-miterlimit="10"/><rect x="316" y="284" width="50" height="30" fill="none"/><g font-family="Yu Gothic UI" font-size="12" text-anchor="end"><text x="363.5" y="303.5">登録</text></g><rect x="777.5" y="80" rx="10" ry="10" width="185" height="60" stroke="#000000" fill="#FFFFFF"/><g font-family="Yu Gothic UI" font-size="12" text-anchor="middle"><text x="869.5" y="90.5">ログイン</text><text x="869.5" y="104.5">KAP900V000</text></g><path d="M626.88 102.23 685 80 737.68 98.78" stroke="#000000" stroke-width="3" stroke-miterlimit="10" fill="none"/><path d="M724.19 101.93 740.84 99.9 729.23 87.8" stroke="#000000" stroke-width="3" stroke-miterlimit="10" fill="none"/><g font-family="Yu Gothic UI" font-size="14" text-anchor="middle"><rect x="658" y="50" width="56" height="18" stroke-width="0" fill="#FFFFFF"/><text x="684.64" y="64">未ログイン</text></g><path d="M745 136.5 685 160 629.93 136.69" stroke="#000000" stroke-width="3" stroke-miterlimit="10" fill="none"/><path d="M643.58 134.33 626.84 135.39 637.73 148.14" stroke="#000000" stroke-width="3" stroke-miterlimit="10" fill="none"/><g font-family="Yu Gothic UI" font-size="14" text-anchor="middle"><rect x="651" y="170" width="69" height="18" stroke-width="0" fill="#FFFFFF"/><text x="684.21" y="184.3">ログイン済み</text></g><path d="M336.09 220.92 245.37 220.99" stroke="#000000" stroke-miterlimit="10" fill="none"/><path d="M240.12 221 247.12 217.49 245.37 220.99 247.12 224.49Z" stroke="#000000" stroke-miterlimit="10"/><path d="M430 483 430 493C430 499.667 433.333 503 440 503L500 503C506.667 503 510 500.727 510 496.18L510 489.37" stroke="#000000" stroke-miterlimit="10" fill="none"/><path d="M510 484.12 513.5 491.12 510 489.37 506.5 491.12Z" stroke="#000000" stroke-miterlimit="10"/><rect x="435" y="480" width="70" height="30" fill="none"/><g font-family="Helvetica" font-size="12" text-anchor="middle"><text x="469.5" y="497.5">保存</text></g><path d="M119 483 119 493C119 499.667 122.333 503 129 503L189 503C195.667 503 199 500.727 199 496.18L199 489.37" stroke="#000000" stroke-miterlimit="10" fill="none"/><path d="M199 484.12 202.5 491.12 199 489.37 195.5 491.12Z" stroke="#000000" stroke-miterlimit="10"/><rect x="124" y="480" width="70" height="30" fill="none"/><g font-family="Helvetica" font-size="12" text-anchor="middle"><text x="158.5" y="497.5">保存</text></g></g></svg>