<svg width="807" height="561" viewBox="-0.5 -0.5 807 561" xmlns="http://www.w3.org/2000/svg" xmlns:xlink="http://www.w3.org/1999/xlink" overflow="hidden"><defs><clipPath id="mx-clip-103-244-95-27-0"><rect x="103" y="244" width="95" height="27"/></clipPath><clipPath id="mx-clip-198-244-121-27-0"><rect x="198" y="244" width="121" height="27"/></clipPath><clipPath id="mx-clip-319-244-121-27-0"><rect x="319" y="244" width="121" height="27"/></clipPath><clipPath id="mx-clip-440-244-144-27-0"><rect x="440" y="244" width="144" height="27"/></clipPath><clipPath id="mx-clip-584-244-134-27-0"><rect x="584" y="244" width="134" height="27"/></clipPath><clipPath id="mx-clip-103-271-95-27-0"><rect x="103" y="271" width="95" height="27"/></clipPath><clipPath id="mx-clip-198-271-121-27-0"><rect x="198" y="271" width="121" height="27"/></clipPath><clipPath id="mx-clip-319-271-121-27-0"><rect x="319" y="271" width="121" height="27"/></clipPath><clipPath id="mx-clip-440-271-144-27-0"><rect x="440" y="271" width="144" height="27"/></clipPath></defs><g><path d="M27 0 777 0 777 560 27 560Z" stroke="#666666" stroke-miterlimit="10" fill="#FFFFFF"/><ellipse cx="712" cy="15" rx="10" ry="10" stroke="#666666" fill="none"/><ellipse cx="737" cy="15" rx="10" ry="10" stroke="#666666" fill="none"/><ellipse cx="762" cy="15" rx="10" ry="10" stroke="#008CFF" fill="none"/><path d="M27 40 57 40 57 15C57 12.24 59.24 10 62 10L197 10C199.76 10 202 12.24 202 15L202 40 777 40" stroke="#C4C4C4" stroke-miterlimit="10" fill="none"/><path d="M27 110 777 110" stroke="#C4C4C4" stroke-miterlimit="10" fill="none"/><path d="M127 60C127 57.24 129.24 55 132 55L762 55C764.76 55 767 57.24 767 60L767 85C767 87.76 764.76 90 762 90L132 90C129.24 90 127 87.76 127 85Z" stroke="#C4C4C4" stroke-miterlimit="10" fill="none"/><g fill="#666666" font-family="Arial,Helvetica" font-size="17"></g><g fill="#666666" font-family="Arial,Helvetica" font-size="17"></g><path d="M64 17 75 17 79 21 79 35 64 35Z" stroke="#C4C4C4" stroke-miterlimit="10" fill="none"/><path d="M75 17 75 21 79 22" stroke="#C4C4C4" stroke-width="0.5" stroke-miterlimit="10" fill="none"/><path d="M134 64 145 64 149 68 149 82 134 82Z" stroke="#C4C4C4" stroke-width="2" stroke-miterlimit="10" fill="none"/><path d="M145 64 145 68 149 69" stroke="#C4C4C4" stroke-width="0.5" stroke-miterlimit="10" fill="none"/><path d="M39 74 49 64 49 70 59 70 59 78 49 78 49 84Z" stroke="#C4C4C4" stroke-width="2" stroke-miterlimit="10" fill="#C4C4C4"/><path d="M89 74 79 64 79 70 69 70 69 78 79 78 79 84Z" stroke="#C4C4C4" stroke-width="2" stroke-miterlimit="10" fill="#C4C4C4"/><path d="M114.6 77.3C112.9 80.13 109.22 81.06 106.38 79.36 103.54 77.67 102.61 74 104.29 71.15 105.98 68.31 109.65 67.36 112.5 69.04L110.9 70.5 118.8 72.3 117 64.8 115.3 66.4C112.11 64.03 107.8 63.82 104.39 65.87 100.99 67.92 99.16 71.83 99.77 75.76 100.37 79.69 103.3 82.86 107.16 83.79 111.03 84.72 115.07 83.22 117.4 80Z" stroke="#C4C4C4" stroke-width="2" stroke-miterlimit="10" fill="#C4C4C4"/><g fill="#666666" font-family="Yu Gothic UI" font-size="17"><text x="88.5" y="32">情報管理シス...</text></g><g fill="#666666" font-family="Yu Gothic UI" font-size="17"><text x="158.5" y="80">https://example.com/charge/search</text></g><rect x="102.5" y="244" width="614.5" height="270" fill="#FFFFFF"/><path d="M102.5 244 717 244 717 514 102.5 514 102.5 244" stroke="#000000" stroke-linecap="square" stroke-miterlimit="10" fill="none"/><path d="M102.5 271 197.5 271 318.5 271 439.5 271 583.5 271 717.5 271" stroke="#000000" stroke-miterlimit="10" fill="none"/><path d="M102.5 298 197.5 298 318.5 298 439.5 298 583.5 298 717.5 298" stroke="#000000" stroke-miterlimit="10" fill="none"/><path d="M102.5 325 197.5 325 318.5 325 439.5 325 583.5 325 717.5 325" stroke="#000000" stroke-miterlimit="10" fill="none"/><path d="M102.5 352 197.5 352 318.5 352 439.5 352 583.5 352 717.5 352" stroke="#000000" stroke-miterlimit="10" fill="none"/><path d="M102.5 379 197.5 379 318.5 379 439.5 379 583.5 379 717.5 379" stroke="#000000" stroke-miterlimit="10" fill="none"/><path d="M102.5 406 197.5 406 318.5 406 439.5 406 583.5 406 717.5 406" stroke="#000000" stroke-miterlimit="10" fill="none"/><path d="M102.5 433 197.5 433 318.5 433 439.5 433 583.5 433 717.5 433" stroke="#000000" stroke-miterlimit="10" fill="none"/><path d="M102.5 460 197.5 460 318.5 460 439.5 460 583.5 460 717.5 460" stroke="#000000" stroke-miterlimit="10" fill="none"/><path d="M102.5 487 197.5 487 318.5 487 439.5 487 583.5 487 717.5 487" stroke="#000000" stroke-miterlimit="10" fill="none"/><path d="M197.5 244 197.5 271 197.5 298 197.5 325 197.5 352 197.5 379 197.5 406 197.5 433 197.5 460 197.5 487 197.5 514" stroke="#000000" stroke-miterlimit="10" fill="none"/><path d="M318.5 244 318.5 271 318.5 298 318.5 325 318.5 352 318.5 379 318.5 406 318.5 433 318.5 460 318.5 487 318.5 514" stroke="#000000" stroke-miterlimit="10" fill="none"/><path d="M439.5 244 439.5 271 439.5 298 439.5 325 439.5 352 439.5 379 439.5 406 439.5 433 439.5 460 439.5 487 439.5 514" stroke="#000000" stroke-miterlimit="10" fill="none"/><path d="M583.5 244 583.5 271 583.5 298 583.5 325 583.5 352 583.5 379 583.5 406 583.5 433 583.5 460 583.5 487 583.5 514" stroke="#000000" stroke-miterlimit="10" fill="none"/><rect x="102.5" y="244" width="95" height="27" fill="#DAE8FC"/><path d="" stroke="#6C8EBF" stroke-linecap="square" stroke-miterlimit="10" fill="none"/><g font-family="Helvetica" font-weight="700" font-size="12" text-anchor="middle" clip-path="url(#mx-clip-103-244-95-27-0)"><text x="149.5" y="262">料金番号</text></g><rect x="197.5" y="244" width="121" height="27" fill="#DAE8FC"/><path d="" stroke="#6C8EBF" stroke-linecap="square" stroke-miterlimit="10" fill="none"/><g font-family="Helvetica" font-weight="700" font-size="12" text-anchor="middle" clip-path="url(#mx-clip-198-244-121-27-0)"><text x="257.5" y="262">料金名</text></g><rect x="318.5" y="244" width="121" height="27" fill="#DAE8FC"/><path d="" stroke="#6C8EBF" stroke-linecap="square" stroke-miterlimit="10" fill="none"/><g font-family="Helvetica" font-weight="700" font-size="12" text-anchor="middle" clip-path="url(#mx-clip-319-244-121-27-0)"><text x="378.5" y="262">月額料金</text></g><rect x="439.5" y="244" width="144" height="27" fill="#DAE8FC"/><path d="" stroke="#6C8EBF" stroke-linecap="square" stroke-miterlimit="10" fill="none"/><g font-family="Helvetica" font-weight="700" font-size="12" text-anchor="middle" clip-path="url(#mx-clip-440-244-144-27-0)"><text x="511" y="262">適用開始日</text></g><rect x="583.5" y="244" width="134" height="27" fill="#DAE8FC"/><path d="" stroke="#6C8EBF" stroke-linecap="square" stroke-miterlimit="10" fill="none"/><g font-family="Helvetica" font-weight="700" font-size="12" text-anchor="middle" clip-path="url(#mx-clip-584-244-134-27-0)"><text x="650" y="262">適用終了日</text></g><path d="" stroke="#000000" stroke-linecap="square" stroke-miterlimit="10" fill="none"/><g fill="#1100FF" font-family="Helvetica" font-weight="700" font-size="12" text-anchor="middle" clip-path="url(#mx-clip-103-271-95-27-0)" text-decoration="underline"><text x="149.5" y="289">0</text></g><path d="" stroke="#000000" stroke-linecap="square" stroke-miterlimit="10" fill="none"/><g font-family="Helvetica" font-weight="700" font-size="12" text-anchor="middle" clip-path="url(#mx-clip-198-271-121-27-0)"><text x="257.5" y="289">基本料金</text></g><path d="" stroke="#000000" stroke-linecap="square" stroke-miterlimit="10" fill="none"/><g font-family="Helvetica" font-weight="700" font-size="12" text-anchor="middle" clip-path="url(#mx-clip-319-271-121-27-0)"><text x="378.5" y="289">5000</text></g><path d="" stroke="#000000" stroke-linecap="square" stroke-miterlimit="10" fill="none"/><g font-family="Helvetica" font-weight="700" font-size="12" text-anchor="middle" clip-path="url(#mx-clip-440-271-144-27-0)"><text x="511" y="289">2023/01/01</text></g><path d="" stroke="#000000" stroke-linecap="square" stroke-miterlimit="10" fill="none"/><path d="" stroke="#000000" stroke-linecap="square" stroke-miterlimit="10" fill="none"/><path d="" stroke="#000000" stroke-linecap="square" stroke-miterlimit="10" fill="none"/><path d="" stroke="#000000" stroke-linecap="square" stroke-miterlimit="10" fill="none"/><path d="" stroke="#000000" stroke-linecap="square" stroke-miterlimit="10" fill="none"/><path d="" stroke="#000000" stroke-linecap="square" stroke-miterlimit="10" fill="none"/><path d="" stroke="#000000" stroke-linecap="square" stroke-miterlimit="10" fill="none"/><path d="" stroke="#000000" stroke-linecap="square" stroke-miterlimit="10" fill="none"/><path d="" stroke="#000000" stroke-linecap="square" stroke-miterlimit="10" fill="none"/><path d="" stroke="#000000" stroke-linecap="square" stroke-miterlimit="10" fill="none"/><path d="" stroke="#000000" stroke-linecap="square" stroke-miterlimit="10" fill="none"/><path d="" stroke="#000000" stroke-linecap="square" stroke-miterlimit="10" fill="none"/><path d="" stroke="#000000" stroke-linecap="square" stroke-miterlimit="10" fill="none"/><path d="" stroke="#000000" stroke-linecap="square" stroke-miterlimit="10" fill="none"/><path d="" stroke="#000000" stroke-linecap="square" stroke-miterlimit="10" fill="none"/><path d="" stroke="#000000" stroke-linecap="square" stroke-miterlimit="10" fill="none"/><path d="" stroke="#000000" stroke-linecap="square" stroke-miterlimit="10" fill="none"/><path d="" stroke="#000000" stroke-linecap="square" stroke-miterlimit="10" fill="none"/><path d="" stroke="#000000" stroke-linecap="square" stroke-miterlimit="10" fill="none"/><path d="" stroke="#000000" stroke-linecap="square" stroke-miterlimit="10" fill="none"/><path d="" stroke="#000000" stroke-linecap="square" stroke-miterlimit="10" fill="none"/><path d="" stroke="#000000" stroke-linecap="square" stroke-miterlimit="10" fill="none"/><path d="" stroke="#000000" stroke-linecap="square" stroke-miterlimit="10" fill="none"/><path d="" stroke="#000000" stroke-linecap="square" stroke-miterlimit="10" fill="none"/><path d="" stroke="#000000" stroke-linecap="square" stroke-miterlimit="10" fill="none"/><path d="" stroke="#000000" stroke-linecap="square" stroke-miterlimit="10" fill="none"/><path d="" stroke="#000000" stroke-linecap="square" stroke-miterlimit="10" fill="none"/><path d="" stroke="#000000" stroke-linecap="square" stroke-miterlimit="10" fill="none"/><path d="" stroke="#000000" stroke-linecap="square" stroke-miterlimit="10" fill="none"/><path d="" stroke="#000000" stroke-linecap="square" stroke-miterlimit="10" fill="none"/><path d="" stroke="#000000" stroke-linecap="square" stroke-miterlimit="10" fill="none"/><path d="" stroke="#000000" stroke-linecap="square" stroke-miterlimit="10" fill="none"/><path d="" stroke="#000000" stroke-linecap="square" stroke-miterlimit="10" fill="none"/><path d="" stroke="#000000" stroke-linecap="square" stroke-miterlimit="10" fill="none"/><path d="" stroke="#000000" stroke-linecap="square" stroke-miterlimit="10" fill="none"/><path d="" stroke="#000000" stroke-linecap="square" stroke-miterlimit="10" fill="none"/><path d="" stroke="#000000" stroke-linecap="square" stroke-miterlimit="10" fill="none"/><path d="" stroke="#000000" stroke-linecap="square" stroke-miterlimit="10" fill="none"/><path d="" stroke="#000000" stroke-linecap="square" stroke-miterlimit="10" fill="none"/><path d="" stroke="#000000" stroke-linecap="square" stroke-miterlimit="10" fill="none"/><path d="" stroke="#000000" stroke-linecap="square" stroke-miterlimit="10" fill="none"/><path d="M103 210C103 204.48 107.48 200 113 200L153 200C158.52 200 163 204.48 163 210L163 222C163 227.52 158.52 232 153 232L113 232C107.48 232 103 227.52 103 222Z" stroke="#666666" stroke-miterlimit="10" fill="#E6E6E6"/><g fill="#666666" font-family="Arial,Helvetica" font-weight="700" font-size="17" text-anchor="middle"></g><g font-family="Yu Gothic UI" font-size="12" text-anchor="middle"><text x="132.5" y="220.5">戻る</text></g><path d="M360 500C380 470.667 388.333 447.667 385 431 381.667 414.333 375 396 365 376 355 356 360 330.667 380 300" stroke="#000000" stroke-miterlimit="10" fill="none"/><path d="M806 227.5 736 227.5 666 242" stroke="#FF8000" stroke-miterlimit="10" fill="none"/><g fill="#666666" font-family="Arial,Helvetica" font-size="17" text-anchor="middle"></g><g fill="#FF8000" font-family="Helvetica" font-size="17" text-anchor="end"><text x="803.5" y="224.5">②</text></g><rect x="27" y="110" width="750" height="50" stroke="#666666" fill="#F5F5F5"/><rect x="27" y="160" width="750" height="30" stroke="#666666" fill="#F5F5F5"/><g fill="#666666" font-family="Yu Gothic UI" font-size="12" text-anchor="middle"><text x="401.5" y="177.5">タイトル</text></g><rect x="42" y="120" width="130" height="30" stroke="#666666" fill="#F5F5F5"/><g fill="#666666" font-family="Yu Gothic UI" font-size="12" text-anchor="middle"><text x="106.5" y="139.5">ロゴ</text></g><rect x="697" y="120" width="69" height="30" stroke="#666666" fill="#F5F5F5"/><g fill="#666666" font-family="Yu Gothic UI" font-size="12" text-anchor="middle"><text x="731" y="139.5">ログアウト</text></g><rect x="187" y="120" width="500" height="30" stroke="#666666" fill="#F5F5F5"/><g fill="#666666" font-family="Yu Gothic UI" font-size="12" text-anchor="middle"><text x="436.5" y="139.5">機能へのリンク</text></g><path d="M0 207.5 70 207.5 110 222" stroke="#FF8000" stroke-miterlimit="10" fill="none"/><g fill="#666666" font-family="Arial,Helvetica" font-size="17" text-anchor="middle"></g><g fill="#FF8000" font-family="Helvetica" font-size="17"><text x="1.5" y="204.5">①</text></g></g></svg>